<?xml version="1.0" encoding="utf-8"?>
<!-- DAN aka logo.svg — Homage to Braun & Dieter Rams. -->
<svg xmlns="http://www.w3.org/2000/svg" xml:space="preserve" id="Layer_1" x="0" y="0" style="enable-background: new 0 0 109 82" version="1.1" viewBox="0 0 109 82">
	<style>
		.st0 {
			fill: #ffffff;
		}
	</style>
	<path
		d="M80 31.7v49.9h9V34.1c0-4.3 4.1-4.7 5.5-4.7s5.5.3 5.5 4.7v47.5h9V31.7c0-10.4-11.4-11.3-14.5-11.3S80 21.3 80 31.7zM71.7 81.7v-69c0-10.4-13.1-12-16.3-12s-16.3 1.6-16.3 12v69h9.7V56.1H62v25.6h9.7zm-22.9-36V15.1c0-4.3 5.1-4.7 6.6-4.7s6.6.3 6.6 4.7v30.6H48.8z"
		class="st0"
	/>
	<path
		d="M.4 52.7v-31h16.2c4.7 0 14.3 1.2 14.3 14.4v31.2c0 13.2-9.6 14.4-14.3 14.4H.4v-29zm9.7-.1v-23h4.7c3 0 6.4.2 6.4 8.9v25.9c0 8.7-3.4 8.9-6.4 8.9h-4.7V52.6z"
		style="fill-rule: evenodd; clip-rule: evenodd; fill: #ffffff"
	/>
</svg>