<svg width="648" height="465" viewBox="0 0 648 465" fill="none" xmlns="http://www.w3.org/2000/svg">
<path d="M647.998 464.382H589.951L589.952 188.645C589.946 180.638 583.459 174.148 575.451 174.143H546.407C538.402 174.148 531.912 180.638 531.905 188.645V464.382H473.857C473.857 464.382 473.857 174.158 473.857 174.143C473.857 142.083 499.847 116.095 531.905 116.095C531.912 116.095 589.951 116.095 589.954 116.095C622.014 116.095 648 142.083 648 174.143C647.998 174.158 647.998 464.382 647.998 464.382Z" fill="white"/>
<path d="M419.78 58.0475C419.78 58.0608 419.78 464.382 419.78 464.382H361.73V319.263H286.269V464.382H228.221C228.221 464.382 228.221 58.0608 228.221 58.0475C228.221 25.9878 254.209 0 286.269 0C286.274 0 361.728 0 361.731 0C393.791 0 419.78 25.9895 419.78 58.0475ZM347.233 58.0475H300.772C292.766 58.0525 286.275 64.5428 286.27 72.5494V261.215H361.733V72.5494C361.725 64.5428 355.238 58.0541 347.233 58.0475Z" fill="white"/>
<!-- id logo-letter-d: D glyph; homepage scatter + script fallback = leftmost path bbox -->
<path id="logo-letter-d" fill-rule="evenodd" clip-rule="evenodd" d="M116.095 116.095C148.154 116.095 174.163 142.083 174.163 174.145L174.142 406.335C174.142 438.396 148.154 464.382 116.095 464.382H0V116.095H116.095ZM58.0473 174.143V405.394C58.0473 405.394 93.587 405.399 101.594 405.394C109.6 405.389 116.09 398.899 116.095 390.893C116.1 382.883 116.095 188.644 116.095 188.644C116.09 180.638 109.6 174.149 101.594 174.143H58.0473Z" fill="white"/>
</svg>
