<svg width="1024" height="1024" viewBox="0 0 1024 1024" fill="none" xmlns="http://www.w3.org/2000/svg">
<rect width="1024" height="1024" fill="black"/>
<path d="M835.998 721.182H777.951L777.952 445.445C777.946 437.438 771.459 430.948 763.451 430.943H734.407C726.402 430.948 719.912 437.438 719.905 445.445V721.182H661.857C661.857 721.182 661.857 430.958 661.857 430.943C661.857 398.883 687.847 372.896 719.905 372.896C719.912 372.896 777.951 372.896 777.954 372.896C810.014 372.896 836 398.883 836 430.943C835.998 430.958 835.998 721.182 835.998 721.182Z" fill="white"/>
<path d="M607.78 314.848C607.78 314.861 607.78 721.182 607.78 721.182H549.73V576.063H474.269V721.182H416.221C416.221 721.182 416.221 314.861 416.221 314.848C416.221 282.788 442.209 256.8 474.269 256.8C474.274 256.8 549.728 256.8 549.731 256.8C581.791 256.8 607.78 282.79 607.78 314.848ZM535.233 314.848H488.772C480.766 314.853 474.275 321.343 474.27 329.35V518.016H549.733V329.35C549.725 321.343 543.238 314.854 535.233 314.848Z" fill="white"/>
<path fill-rule="evenodd" clip-rule="evenodd" d="M304.095 372.895C336.154 372.895 362.163 398.884 362.163 430.945L362.142 663.135C362.142 695.196 336.154 721.183 304.095 721.183H188V372.895H304.095ZM246.047 430.944V662.194C246.047 662.194 281.587 662.199 289.594 662.194C297.6 662.189 304.09 655.7 304.095 647.693C304.1 639.683 304.095 445.445 304.095 445.445C304.09 437.438 297.6 430.949 289.594 430.944H246.047Z" fill="white"/>
</svg>
