<svg width="1024" height="1024" viewBox="0 0 1024 1024" fill="none" xmlns="http://www.w3.org/2000/svg">
<rect width="1024" height="1024" fill="black"/>
<path d="M664.633 419.224C664.631 482.093 664.631 720.995 664.631 720.995H718.964V433.66C718.964 407.538 743.771 405.449 752.399 405.449C761.028 405.449 785.834 407.538 785.834 433.66V720.995H840.167C840.167 720.995 840.167 482.093 840.165 419.224C840.164 356.355 771.206 351.116 752.399 351.116C733.592 351.116 664.634 356.355 664.633 419.224Z" fill="white"/>
<path d="M418.047 304.288C418.046 367.157 418.045 720.993 418.045 720.993H476.557V318.723C476.557 292.602 507.633 290.512 516.262 290.512C524.89 290.512 555.966 292.602 555.966 318.723V720.993H614.478C614.478 720.993 614.478 367.157 614.477 304.288C614.476 241.419 535.069 232 516.262 232C497.454 232 418.048 241.419 418.047 304.288Z" fill="white"/>
<path d="M476.557 503.663H555.966V566.354H476.557V503.663Z" fill="white"/>
<path fill-rule="evenodd" clip-rule="evenodd" d="M184 545.988V358.594H281.727C310.099 358.594 367.895 365.93 367.895 445.576V634.09C367.86 713.669 310.091 721 281.727 721L184 721V545.988ZM242.515 545.311V406.225H270.684C288.907 406.225 309.386 407.289 309.386 460.157V616.813C309.361 669.632 288.901 670.693 270.684 670.693H242.515V545.311Z" fill="white"/>
</svg>
