<svg width="71" height="34" viewBox="0 0 71 34" fill="none" xmlns="http://www.w3.org/2000/svg">
<path d="M45.3592 0.168622C47.3826 0.168622 49.0689 1.85484 49.0689 3.87829C49.0689 5.90175 47.3826 7.58797 45.3592 7.58797H35.7478V21.4149L43.8416 12.9839C45.1906 11.4663 47.5513 11.2976 49.0689 12.6466L49.2375 12.8152V3.54105C49.2375 1.68622 50.9237 0 52.7785 0H65.931C67.9545 0 69.6407 1.68621 69.6407 3.70967C69.6407 5.73313 67.9545 7.41935 65.931 7.41935H56.3196V21.2463L64.4134 12.8152C65.5938 11.2976 67.7858 10.9604 69.4721 12.1407C70.9896 13.3211 71.3269 15.5132 70.1465 17.1994C69.9779 17.368 69.8093 17.7053 69.4721 17.8739L54.9706 32.7126C54.2961 33.3871 53.453 33.7243 52.6099 33.7243C50.5864 33.7243 49.0689 32.0381 49.0689 30.0146V17.368L48.7316 17.7053L34.2302 32.544C33.5557 33.2184 32.7126 33.5557 31.8695 33.5557C29.846 33.5557 28.3284 31.8695 28.3284 29.846V3.54105C28.3284 1.68622 30.0146 0 31.8695 0H45.3592V0.168622ZM9.78005 0.168622H23.4384C25.4618 0.168622 26.9794 1.68621 26.9794 3.70967C26.9794 3.70967 26.9794 3.70967 26.9794 3.87829V30.0146C26.9794 32.0381 25.4618 33.5557 23.4384 33.5557C21.4149 33.5557 19.8973 32.0381 19.8973 30.0146V18.3797L19.3915 19.0542L5.90175 32.8812C5.22727 33.5557 4.38416 33.8929 3.54105 33.8929C1.51759 33.8929 0 32.2067 0 30.1833V10.1173C0 9.27418 0.337243 8.5997 0.843107 7.92521L7.75659 0.843108C8.26245 0.337243 9.10556 0.168622 9.78005 0.168622ZM19.8973 14.1642V7.58797H11.2976L7.0821 11.8035V21.0777L14.3328 13.6583C15.6818 12.3094 17.8739 12.1407 19.2228 13.4897L19.8973 14.1642Z" fill="white"/>
</svg>
