<svg width="140" height="20" viewBox="0 0 140 20" fill="none" xmlns="http://www.w3.org/2000/svg">
<g clip-path="url(#clip0_766_700)">
<path d="M120.497 8.82093C122.265 8.82093 122.947 9.90254 123.042 10.8444C123.043 10.8586 123.041 10.8729 123.037 10.8864C123.032 10.9 123.025 10.9124 123.015 10.9229C123.006 10.9335 122.994 10.9419 122.981 10.9476C122.968 10.9533 122.954 10.9563 122.939 10.9562H118.085C118.07 10.9562 118.056 10.9531 118.043 10.9471C118.03 10.9412 118.018 10.9325 118.008 10.9216C117.999 10.9107 117.991 10.8979 117.987 10.884C117.983 10.8702 117.982 10.8556 117.983 10.8412C118.114 9.92092 118.93 8.82093 120.497 8.82093ZM123.158 14.8089C123.126 14.8088 123.094 14.8163 123.065 14.8309C123.037 14.8455 123.012 14.8667 122.993 14.8928C122.555 15.5095 121.843 15.8898 120.779 15.8898C119.313 15.8898 118.04 14.9264 117.903 13.5612C117.901 13.547 117.903 13.5328 117.908 13.5193C117.912 13.5058 117.919 13.4934 117.929 13.4829C117.938 13.4724 117.95 13.464 117.963 13.4582C117.976 13.4524 117.99 13.4494 118.004 13.4493H126.727C126.751 13.3727 126.803 12.7879 126.803 12.2535C126.803 8.18586 124.377 5.77021 120.446 5.77021C117.153 5.77021 114.116 8.3632 114.116 12.4316C114.116 16.6782 117.23 19.1697 120.727 19.1697C123.888 19.1697 125.891 17.4011 126.541 15.2635C126.545 15.2507 126.566 15.1708 126.59 15.0542C126.596 15.0245 126.596 14.9939 126.589 14.9644C126.581 14.935 126.568 14.9075 126.549 14.884C126.529 14.8605 126.505 14.8416 126.478 14.8286C126.451 14.8156 126.421 14.8089 126.39 14.8089H123.158ZM130.871 12.3669L126.735 6.47158C126.714 6.44099 126.702 6.40513 126.699 6.36789C126.697 6.33066 126.705 6.29349 126.722 6.26045C126.739 6.2274 126.765 6.19973 126.797 6.18048C126.829 6.16122 126.866 6.15111 126.903 6.15125H130.969C131.039 6.15125 131.103 6.1856 131.141 6.24311L133.266 9.47837C133.306 9.53988 133.397 9.53908 133.437 9.47677L135.513 6.24551C135.531 6.21663 135.557 6.19285 135.587 6.17637C135.617 6.1599 135.65 6.15126 135.685 6.15125H139.517C139.684 6.15125 139.78 6.33737 139.685 6.47238L135.605 12.2128C135.581 12.2469 135.567 12.2877 135.567 12.3297C135.567 12.3716 135.58 12.4125 135.604 12.4468C136.94 14.348 138.466 16.5448 139.836 18.4676C139.932 18.6026 139.836 18.7879 139.67 18.7879H135.632C135.598 18.788 135.565 18.7798 135.535 18.7639C135.505 18.748 135.48 18.725 135.461 18.6968L133.258 15.3561C133.249 15.3421 133.236 15.3307 133.221 15.3227C133.206 15.3148 133.19 15.3106 133.173 15.3106C133.156 15.3106 133.139 15.3148 133.125 15.3227C133.11 15.3307 133.097 15.3421 133.088 15.3561C132.428 16.3371 131.565 17.7031 130.911 18.6968C130.892 18.725 130.867 18.7481 130.837 18.764C130.807 18.7799 130.774 18.7881 130.74 18.7879H126.976C126.939 18.7881 126.902 18.7781 126.87 18.759C126.838 18.7399 126.812 18.7124 126.795 18.6795C126.778 18.6466 126.77 18.6096 126.772 18.5725C126.774 18.5354 126.787 18.4997 126.808 18.4692L130.872 12.5986C130.895 12.5646 130.908 12.5242 130.908 12.4828C130.908 12.4413 130.895 12.4009 130.871 12.3669ZM108.959 18.585V0.583416C108.959 0.470781 109.051 0.379715 109.164 0.379715H112.635C112.748 0.379715 112.84 0.470781 112.84 0.583416V18.585C112.84 18.6968 112.748 18.7879 112.635 18.7879H109.164C109.137 18.788 109.11 18.7828 109.086 18.7727C109.061 18.7626 109.038 18.7477 109.019 18.7288C109 18.71 108.985 18.6876 108.975 18.6629C108.965 18.6382 108.959 18.6118 108.959 18.585ZM103.241 18.585V0.583416C103.241 0.470781 103.333 0.379715 103.446 0.379715H106.917C107.03 0.379715 107.121 0.470781 107.121 0.583416V18.585C107.121 18.6968 107.03 18.7879 106.917 18.7879H103.446C103.419 18.788 103.392 18.7828 103.368 18.7727C103.343 18.7626 103.32 18.7477 103.301 18.7288C103.282 18.71 103.267 18.6876 103.257 18.6629C103.247 18.6382 103.241 18.6118 103.241 18.585ZM94.6553 15.8131C96.213 15.8131 97.5399 14.5933 97.5399 12.4572C97.5399 10.2708 96.2378 9.12608 94.6553 9.12608C92.9961 9.12608 91.7452 10.2708 91.7452 12.4572C91.7452 14.5421 93.0473 15.8131 94.6553 15.8131ZM97.5654 17.1607C97.0039 18.3813 95.7281 19.1442 94.1449 19.1442C90.4175 19.1442 87.8397 16.3219 87.8397 12.4316C87.8397 8.66915 90.2649 5.76941 94.017 5.76941C96.2889 5.76941 97.2842 7.01558 97.5399 7.60032V6.35415C97.5399 6.24231 97.6309 6.15125 97.7444 6.15125H101.088C101.2 6.15125 101.292 6.24231 101.292 6.35495V18.585C101.292 18.6968 101.201 18.7879 101.088 18.7879H97.7468C97.7198 18.7879 97.6931 18.7826 97.6683 18.7722C97.6434 18.7618 97.6208 18.7466 97.6019 18.7274C97.5829 18.7082 97.568 18.6855 97.5579 18.6605C97.5478 18.6355 97.5428 18.6088 97.5431 18.5818C97.5495 18.1225 97.5654 17.0608 97.5654 17.1607ZM79.5599 6.29104L81.8852 13.3351C81.9172 13.431 82.053 13.4278 82.0802 13.3311L84.0668 6.29983C84.0789 6.257 84.1046 6.21929 84.1401 6.19246C84.1756 6.16563 84.2189 6.15116 84.2634 6.15125H87.6344C87.7726 6.15125 87.8709 6.28385 87.8301 6.41486L84.0253 18.6449C84.0125 18.6866 83.9866 18.723 83.9515 18.7489C83.9165 18.7748 83.874 18.7888 83.8304 18.7887H80.2732C80.2305 18.7886 80.1889 18.7752 80.1542 18.7502C80.1196 18.7253 80.0936 18.6902 80.0799 18.6497L77.4677 10.9155C77.4358 10.8228 77.304 10.8236 77.2736 10.9155L74.7094 18.6481C74.6959 18.6888 74.67 18.7242 74.6353 18.7493C74.6006 18.7744 74.5589 18.7879 74.516 18.7879H70.8822C70.8388 18.7879 70.7966 18.7742 70.7615 18.7486C70.7265 18.7231 70.7005 18.687 70.6873 18.6457L66.8329 6.41566C66.8234 6.38513 66.8212 6.35278 66.8265 6.32123C66.8318 6.28968 66.8444 6.25983 66.8634 6.23408C66.8824 6.20833 66.9072 6.18742 66.9357 6.17302C66.9643 6.15863 66.9958 6.15117 67.0278 6.15125H70.629C70.72 6.15125 70.8007 6.21196 70.8255 6.29983L72.8121 13.3087C72.8393 13.4046 72.9751 13.4078 73.0071 13.3127L75.3572 6.29104C75.3708 6.25031 75.3969 6.21489 75.4317 6.1898C75.4665 6.16471 75.5084 6.15122 75.5513 6.15125H79.3657C79.4536 6.15125 79.5327 6.20717 79.5599 6.29104ZM65.7801 9.71562C65.78 9.74533 65.7735 9.77468 65.761 9.80161C65.7484 9.82854 65.7301 9.85239 65.7073 9.8715C65.6846 9.8906 65.6579 9.90449 65.6292 9.9122C65.6005 9.91991 65.5705 9.92125 65.5412 9.91613C65.2153 9.86104 64.8852 9.83484 64.5547 9.83784C62.9969 9.83784 61.5934 10.7533 61.5934 13.2704V18.585C61.5934 18.6968 61.5023 18.7879 61.3897 18.7879H57.918C57.8912 18.788 57.8647 18.7828 57.84 18.7727C57.8152 18.7626 57.7927 18.7477 57.7737 18.7288C57.7547 18.71 57.7396 18.6876 57.7293 18.6629C57.719 18.6382 57.7136 18.6118 57.7135 18.585V6.35495C57.7135 6.24311 57.8046 6.15125 57.918 6.15125H61.2619C61.3745 6.15125 61.4656 6.24231 61.4656 6.35495V7.85515C62.1294 6.43084 63.7383 6.02423 64.7592 6.02423C65.0691 6.02423 65.379 6.05778 65.6211 6.11051C65.7146 6.13128 65.7801 6.21435 65.7801 6.30942V9.71562ZM51.9188 18.585V6.35495C51.9188 6.24311 52.0107 6.15125 52.1233 6.15125H55.595C55.7076 6.15125 55.7995 6.24231 55.7995 6.35495V18.585C55.7995 18.6968 55.7076 18.7879 55.595 18.7879H52.1233C52.0966 18.788 52.07 18.7828 52.0453 18.7727C52.0205 18.7626 51.998 18.7477 51.979 18.7288C51.96 18.71 51.9449 18.6876 51.9346 18.6629C51.9243 18.6382 51.9189 18.6118 51.9188 18.585ZM53.8336 0.0234375C55.1101 0.0234375 56.131 1.04035 56.131 2.28652C56.131 3.53269 55.1101 4.5496 53.8336 4.5496C52.6082 4.5496 51.5873 3.53269 51.5873 2.28652C51.5873 1.04035 52.6082 0.0234375 53.8336 0.0234375ZM39.5553 11.4651H43.6581C43.7284 11.4651 43.7779 11.3964 43.754 11.3301L41.7282 5.50979C41.7213 5.48965 41.7083 5.47214 41.6911 5.45972C41.6738 5.4473 41.6531 5.44058 41.6318 5.44049C41.6105 5.4404 41.5897 5.44695 41.5723 5.45923C41.555 5.47151 41.5419 5.4889 41.5348 5.50899L39.4603 11.3301C39.4363 11.3956 39.4858 11.4659 39.5561 11.4659L39.5553 11.4651ZM44.9339 15.1269H38.2277C38.1856 15.1269 38.1446 15.14 38.1103 15.1644C38.076 15.1887 38.05 15.223 38.036 15.2627L36.8297 18.6529C36.8157 18.6927 36.7896 18.7271 36.7551 18.7515C36.7206 18.7758 36.6794 18.7888 36.6372 18.7887H32.8396C32.8065 18.7889 32.774 18.781 32.7446 18.7658C32.7153 18.7506 32.6901 18.7285 32.6712 18.7013C32.6524 18.6742 32.6404 18.6429 32.6363 18.6101C32.6322 18.5773 32.6362 18.544 32.6479 18.5131L39.3101 0.892563C39.3247 0.853776 39.3508 0.820376 39.385 0.796824C39.4191 0.773272 39.4596 0.760689 39.501 0.760756H43.8898C43.9745 0.760756 44.0511 0.813479 44.0807 0.893361L50.6678 18.5139C50.6792 18.5447 50.6829 18.5779 50.6787 18.6104C50.6744 18.643 50.6624 18.6741 50.6436 18.701C50.6247 18.7279 50.5997 18.7499 50.5705 18.765C50.5413 18.7801 50.509 18.788 50.4761 18.7879H46.5243C46.4821 18.7879 46.441 18.7748 46.4065 18.7505C46.3721 18.7262 46.346 18.6918 46.3318 18.6521L45.1256 15.2627C45.1114 15.2231 45.0855 15.1888 45.0512 15.1645C45.0169 15.1402 44.9759 15.1271 44.9339 15.1269Z" fill="white"/>
<path fill-rule="evenodd" clip-rule="evenodd" d="M27.729 7.52444C28.2259 8.0081 28.5706 8.62648 28.7206 9.30348C28.8706 9.98047 28.8194 10.6866 28.5734 11.3349L26.6985 16.4282C26.2064 17.7654 25.0849 18.7999 23.6989 19.0699C23.0057 19.2087 22.2877 19.1563 21.6219 18.9185C20.956 18.6808 20.3674 18.2664 19.9189 17.7199L8.67616 4.25005C8.64821 4.2169 8.61204 4.19167 8.57128 4.17689C8.53052 4.1621 8.48659 4.15828 8.44389 4.1658C8.40118 4.17332 8.3612 4.19192 8.32795 4.21975C8.29469 4.24757 8.26932 4.28363 8.25438 4.32434L4.59654 14.2178C4.52066 14.4223 4.72196 14.6204 4.92167 14.539L9.41028 12.7056C9.66334 12.6031 9.93486 12.5539 10.2078 12.5612C10.4808 12.5685 10.7493 12.6321 10.9965 12.748C11.2437 12.864 11.4643 13.0298 11.6444 13.235C11.8245 13.4402 11.9603 13.6805 12.0432 13.9406C12.3747 14.9575 11.8172 16.0559 10.8354 16.4569L4.97199 18.851C3.88639 19.2944 2.63942 19.2161 1.66165 18.5634C0.995331 18.1182 0.498564 17.4613 0.251578 16.6988C0.00459267 15.9364 0.0218092 15.113 0.300447 14.3616L4.62211 2.67636C5.13416 1.29119 6.30044 0.313423 7.74233 0.0609929C8.4445 -0.0648416 9.16752 -0.00128266 9.83697 0.245127C10.5064 0.491537 11.0981 0.911896 11.5511 1.46294L18.0041 9.19559L23.9394 6.77115C25.2582 6.23274 26.7105 6.52111 27.729 7.52444ZM24.306 11.4083C24.3811 11.2038 24.1798 11.0057 23.9801 11.088L20.7009 12.4269L22.6676 14.7842C22.6955 14.8177 22.7318 14.8433 22.7727 14.8584C22.8137 14.8734 22.8579 14.8773 22.9009 14.8698C22.9438 14.8623 22.984 14.8435 23.0174 14.8154C23.0508 14.7873 23.0762 14.7509 23.091 14.7099L24.306 11.4083Z" fill="white"/>
</g>
<defs>
<clipPath id="clip0_766_700">
<rect width="139.955" height="19.1719" fill="white"/>
</clipPath>
</defs>
</svg>
