<svg width="133" height="24" viewBox="0 0 133 24" fill="none" xmlns="http://www.w3.org/2000/svg">
<path d="M47.2623 17.3432H40.2413L39.3762 19.9156C39.2354 20.3342 38.7589 20.6767 38.3172 20.6767H34.525C34.0833 20.6767 33.8548 20.3407 34.0172 19.9299L40.89 2.54367C41.0524 2.13293 41.5466 1.79688 41.9883 1.79688H45.5446C45.9864 1.79688 46.4801 2.13311 46.6419 2.54406L53.4874 19.9295C53.6492 20.3405 53.4203 20.6767 52.9786 20.6767H49.1863C48.7447 20.6767 48.2681 20.3342 48.1274 19.9156L47.2623 17.3432ZM46.0232 13.6263L43.7517 6.78229L41.4803 13.6263H46.0232Z" fill="white"/>
<path d="M69.6516 20.6748C69.21 20.6748 68.6616 20.3656 68.433 19.9877L65.1907 14.6273L61.9484 19.9877C61.7197 20.3656 61.1714 20.6748 60.7297 20.6748H56.1113C55.6696 20.6748 55.5135 20.3773 55.7643 20.0138L62.0047 10.9694L56.3152 2.46242C56.0697 2.0953 56.2301 1.79492 56.6718 1.79492H60.9361C61.3778 1.79492 61.9294 2.10217 62.1618 2.47771L65.1907 7.37046L68.1926 2.47933C68.4236 2.1029 68.9739 1.79492 69.4156 1.79492H73.7095C74.1512 1.79492 74.3106 2.09455 74.0637 2.46075L68.3471 10.9398L74.6167 20.0141C74.8677 20.3775 74.7118 20.6748 74.2701 20.6748H69.6516Z" fill="white"/>
<path d="M82.8139 19.8717C82.8139 20.3134 82.4525 20.6748 82.0109 20.6748H78.6019C78.1602 20.6748 77.7988 20.3134 77.7988 19.8717V2.59795C77.7988 2.15629 78.1602 1.79492 78.6019 1.79492H82.0109C82.4525 1.79492 82.8139 2.15629 82.8139 2.59795V19.8717Z" fill="white"/>
<path d="M85.834 11.1755C85.834 5.68858 89.9638 1.26367 96.3063 1.26367C102.649 1.26367 106.779 5.68858 106.779 11.1755C106.779 16.692 102.649 21.1169 96.3063 21.1169C89.9638 21.1169 85.834 16.692 85.834 11.1755ZM101.646 11.1755C101.646 8.31411 99.6399 5.71799 96.3063 5.71799C93.0025 5.71799 90.9669 8.31411 90.9669 11.1755C90.9669 14.0371 93.0025 16.692 96.3063 16.692C99.6104 16.692 101.646 14.0371 101.646 11.1755Z" fill="white"/>
<path d="M128.184 20.6748C127.742 20.6748 127.334 20.3164 127.277 19.8784L125.965 9.75994L122.174 19.9224C122.02 20.3362 121.532 20.6748 121.091 20.6748H119.422C118.981 20.6748 118.494 20.3359 118.341 19.9216L114.548 9.67132L113.235 19.8783C113.178 20.3164 112.771 20.6748 112.329 20.6748H109.127C108.685 20.6748 108.373 20.3168 108.433 19.8792L110.81 2.59047C110.871 2.15292 111.281 1.79492 111.723 1.79492H114.689C115.131 1.79492 115.621 2.13274 115.777 2.54565L120.242 14.3029L124.734 2.54507C124.892 2.13248 125.382 1.79492 125.824 1.79492H128.79C129.232 1.79492 129.642 2.15292 129.703 2.59047L132.08 19.8792C132.14 20.3168 131.828 20.6748 131.386 20.6748H128.184Z" fill="white"/>
<path d="M25.4045 16.0694L19.9377 6.54728C19.6871 6.10964 19.0694 5.75158 18.5651 5.75158H15.1521C14.3588 5.75158 14.0336 5.18906 14.4293 4.50156L16.3009 1.25004C16.4495 0.991985 16.4491 0.674301 16.3001 0.416526C16.151 0.158751 15.8759 0 15.5781 0H10.8169C10.3126 0 9.69348 0.357259 9.4411 0.793925L0.189366 16.8026C-0.0629684 17.2393 -0.0631622 17.9539 0.189026 18.3907L2.56958 22.514C2.9662 23.201 3.61667 23.2018 4.015 22.5158L5.87517 19.3124C6.2735 18.6264 6.92396 18.6272 7.32059 19.3142L9.00696 22.2351C9.2591 22.6719 9.87806 23.0293 10.3824 23.0293H21.3844C21.8887 23.0293 22.5077 22.6719 22.7598 22.2351L25.4017 17.6592C25.6539 17.2224 25.6551 16.507 25.4045 16.0694ZM18.0217 15.6111C18.4158 16.2995 18.0893 16.8627 17.296 16.8627H8.73824C7.94498 16.8627 7.62043 16.3007 8.01706 15.6137L12.2993 8.1966C12.696 7.5096 13.345 7.50962 13.7415 8.19664L18.0217 15.6111Z" fill="white"/>
</svg>
