<svg width="186" height="37" viewBox="0 0 186 37" fill="none" xmlns="http://www.w3.org/2000/svg">
<g clip-path="url(#clip0_766_636)">
<path d="M18.4736 21.1133L29.0293 10.5576L18.4736 0.00195312V21.1133L7.91797 10.5576L13.1958 26.3911L18.4736 21.1133Z" fill="white"/>
<path d="M34.3076 15.8345L29.0298 10.5566L23.752 26.3902L34.3076 15.8345Z" fill="white"/>
<path d="M34.3074 15.8359L26.3906 29.0305L36.9463 18.4749L34.3074 15.8359Z" fill="white"/>
<path d="M18.4736 21.1133L18.4746 31.669L23.7524 26.3911L18.4736 21.1133Z" fill="white"/>
<path d="M23.7522 26.3926L21.1133 34.3093L26.3911 29.0315L23.7522 26.3926Z" fill="white"/>
<path d="M10.5574 29.0305L13.1958 26.3911L2.64062 15.8359L10.5574 29.0305Z" fill="white"/>
<path d="M15.8342 34.3074L18.4731 31.6685L13.1958 26.3911L15.8342 34.3074Z" fill="white"/>
<path d="M18.4748 36.946L21.1137 34.3071L18.4746 31.669L18.4748 36.946Z" fill="white"/>
<path d="M48.1818 16.0054C45.0972 16.0054 43.3027 13.689 43.3027 10.4109C43.3027 7.07411 45.2614 4.86328 48.305 4.86328C50.5334 4.86328 52.3278 6.18274 52.7852 8.48153H51.3192C50.9908 7.14448 49.9528 6.13583 48.2346 6.13583C46.3346 6.13583 44.8509 7.61948 44.8509 10.4109C44.8509 13.126 46.2759 14.727 48.2756 14.727C49.9821 14.727 51.0377 13.7652 51.3778 12.3813H52.8439C52.3689 14.7622 50.5099 16.0054 48.1818 16.0054Z" fill="white"/>
<path d="M59.1764 10.9031V10.7096C59.1764 9.25523 58.3613 8.76849 57.3643 8.76849C56.2501 8.76849 55.5992 9.37838 55.5405 10.3577H54.1448C54.2797 8.63948 55.7927 7.67188 57.3526 7.67188C59.5458 7.67188 60.5428 8.72744 60.5252 10.9676L60.5076 12.809C60.49 14.146 60.5662 15.0667 60.7128 15.8232H59.3465C59.2995 15.5241 59.2585 15.2016 59.2409 14.7266C58.7542 15.5417 57.9214 16.0167 56.5081 16.0167C55.0069 16.0167 53.7637 15.184 53.7637 13.7179C53.7754 11.8238 55.8983 11.2725 59.1764 10.9031ZM55.2766 13.6769C55.2766 14.4334 55.8572 14.9377 56.819 14.9377C58.0798 14.9377 59.2819 14.3571 59.2819 12.4747V11.9704C56.8307 12.2225 55.2766 12.5803 55.2766 13.6769Z" fill="white"/>
<path d="M62.4141 15.8117V5.05664H63.7628V15.8117H62.4141Z" fill="white"/>
<path d="M65.7617 15.8117V5.05664H67.1105V15.8117H65.7617Z" fill="white"/>
<path d="M74.0416 10.9031V10.7096C74.0416 9.25523 73.2265 8.76849 72.2296 8.76849C71.1154 8.76849 70.4644 9.37838 70.4058 10.3577H69.0101C69.145 8.63948 70.6579 7.67188 72.2178 7.67188C74.4111 7.67188 75.408 8.72744 75.3904 10.9676L75.3728 12.809C75.3552 14.146 75.4314 15.0667 75.5781 15.8232H74.2117C74.1648 15.5241 74.1237 15.2016 74.1061 14.7266C73.6135 15.5417 72.7867 16.0167 71.3734 16.0167C69.8721 16.0167 68.6289 15.184 68.6289 13.7179C68.6406 11.8238 70.7635 11.2725 74.0416 10.9031ZM70.1419 13.6769C70.1419 14.4334 70.7224 14.9377 71.6842 14.9377C72.945 14.9377 74.1472 14.3571 74.1472 12.4747V11.9704C71.6959 12.2225 70.1419 12.5803 70.1419 13.6769Z" fill="white"/>
<path d="M84.0002 7.83019V14.7442C84.0002 16.3744 83.7011 17.043 83.2437 17.5473C82.6632 18.2158 81.6721 18.6028 80.4817 18.6028C78.6696 18.6028 77.4557 17.7701 77.2035 16.1574H78.6403C78.8162 16.867 79.2501 17.4183 80.4934 17.4183C81.2205 17.4183 81.7718 17.213 82.1236 16.826C82.4227 16.5152 82.6456 16.1457 82.6456 15.0608V14.3043C82.1588 15.1488 81.3847 15.6824 80.1063 15.6824C78.3412 15.6824 76.7227 14.2574 76.7227 11.6889C76.7227 9.13792 78.3412 7.69531 80.1063 7.69531C81.3847 7.69531 82.153 8.24655 82.6456 9.09101V7.83019H84.0002ZM78.2004 11.6889C78.2004 13.5127 79.1329 14.5389 80.4582 14.5389C81.6604 14.5389 82.7159 13.7238 82.7159 11.6889C82.7159 9.67157 81.6604 8.85644 80.4582 8.85644C79.1329 8.85644 78.2004 9.87682 78.2004 11.6889Z" fill="white"/>
<path d="M89.933 7.69556C91.8623 7.69556 92.5602 8.94465 92.5602 10.7684V15.8117H91.2114V11.1672C91.2114 9.93571 91.0061 8.86841 89.458 8.86841C88.1502 8.86841 87.3527 9.77151 87.3527 11.478V15.8117H86.0039V5.05664H87.3527V9.03261C87.8101 8.27612 88.5842 7.69556 89.933 7.69556Z" fill="white"/>
<path d="M99.3698 10.9031V10.7096C99.3698 9.25523 98.5546 8.76849 97.5577 8.76849C96.4435 8.76849 95.7925 9.37838 95.7339 10.3577H94.3382C94.4731 8.63948 95.9861 7.67188 97.546 7.67188C99.7392 7.67188 100.736 8.72744 100.719 10.9676L100.701 12.809C100.683 14.146 100.76 15.0667 100.906 15.8232H99.5398C99.4929 15.5241 99.4518 15.2016 99.4342 14.7266C98.9417 15.5417 98.1148 16.0167 96.7015 16.0167C95.2003 16.0167 93.957 15.184 93.957 13.7179C93.9688 11.8238 96.0916 11.2725 99.3698 10.9031ZM95.47 13.6769C95.47 14.4334 96.0506 14.9377 97.0123 14.9377C98.2731 14.9377 99.4753 14.3571 99.4753 12.4747V11.9704C97.024 12.2225 95.47 12.5803 95.47 13.6769Z" fill="white"/>
<path d="M106.466 7.69531C108.396 7.69531 109.093 8.9444 109.093 10.7682V15.8115H107.745V11.167C107.745 9.93546 107.539 8.86817 105.991 8.86817C104.683 8.86817 103.886 9.77126 103.886 11.4778V15.8115H102.537V7.83019H103.886V9.03236C104.343 8.27587 105.112 7.69531 106.466 7.69531Z" fill="white"/>
<path d="M114.564 15.8117V5.05664H116.077V15.8117H114.564Z" fill="white"/>
<path d="M122.224 7.69531C124.153 7.69531 124.851 8.9444 124.851 10.7682V15.8115H123.502V11.167C123.502 9.93546 123.297 8.86817 121.749 8.86817C120.441 8.86817 119.644 9.77126 119.644 11.4778V15.8115H118.295V7.83019H119.644V9.03236C120.101 8.27587 120.869 7.69531 122.224 7.69531Z" fill="white"/>
<path d="M130.661 7.69531C132.591 7.69531 133.289 8.9444 133.289 10.7682V15.8115H131.94V11.167C131.94 9.93546 131.735 8.86817 130.186 8.86817C128.879 8.86817 128.081 9.77126 128.081 11.4778V15.8115H126.732V7.83019H128.081V9.03236C128.544 8.27587 129.313 7.69531 130.661 7.69531Z" fill="white"/>
<path d="M138.484 16.005C136.631 16.005 134.654 14.7442 134.654 11.8531C134.654 8.96199 136.631 7.70117 138.484 7.70117C140.337 7.70117 142.313 8.96199 142.313 11.8531C142.313 14.7442 140.337 16.005 138.484 16.005ZM140.87 11.8531C140.87 9.73021 139.698 8.88575 138.484 8.88575C137.27 8.88575 136.097 9.67156 136.097 11.8531C136.097 13.9759 137.27 14.8204 138.484 14.8204C139.698 14.8204 140.87 13.8997 140.87 11.8531Z" fill="white"/>
<path d="M148.413 7.83203H149.809L146.795 15.8133H145.592L142.578 7.83203H144.079L146.243 13.9426L148.413 7.83203Z" fill="white"/>
<path d="M155.368 10.9031V10.7096C155.368 9.25523 154.553 8.76849 153.556 8.76849C152.442 8.76849 151.791 9.37838 151.732 10.3577H150.336C150.471 8.63948 151.984 7.67188 153.544 7.67188C155.737 7.67188 156.734 8.72744 156.717 10.9676L156.699 12.809C156.681 14.146 156.758 15.0667 156.904 15.8232H155.538C155.491 15.5241 155.45 15.2016 155.432 14.7266C154.946 15.5417 154.113 16.0167 152.7 16.0167C151.198 16.0167 149.955 15.184 149.955 13.7179C149.967 11.8238 152.09 11.2725 155.368 10.9031ZM151.468 13.6769C151.468 14.4334 152.049 14.9377 153.01 14.9377C154.271 14.9377 155.473 14.3571 155.473 12.4747V11.9704C153.022 12.2225 151.468 12.5803 151.468 13.6769Z" fill="white"/>
<path d="M160.34 5.82422V7.8298H161.853V8.91469H160.34V13.6471C160.34 14.4799 160.399 14.6851 161.173 14.6851H161.853V15.8111H160.874C159.343 15.8111 158.991 15.4709 158.991 13.8055V8.91469H157.73V7.8298H158.991V5.82422H160.34Z" fill="white"/>
<path d="M164.792 6.68691H163.443V5.05664H164.792V6.68691ZM164.792 15.8117H163.443V7.83044H164.792V15.8117Z" fill="white"/>
<path d="M170.105 16.005C168.251 16.005 166.275 14.7442 166.275 11.8531C166.275 8.96199 168.251 7.70117 170.105 7.70117C171.958 7.70117 173.934 8.96199 173.934 11.8531C173.928 14.7442 171.958 16.005 170.105 16.005ZM172.491 11.8531C172.491 9.73021 171.318 8.88575 170.105 8.88575C168.891 8.88575 167.718 9.67156 167.718 11.8531C167.718 13.9759 168.891 14.8204 170.105 14.8204C171.318 14.8204 172.491 13.8997 172.491 11.8531Z" fill="white"/>
<path d="M179.347 7.69531C181.276 7.69531 181.974 8.9444 181.974 10.7682V15.8115H180.625V11.167C180.625 9.93546 180.42 8.86817 178.872 8.86817C177.564 8.86817 176.767 9.77126 176.767 11.4778V15.8115H175.418V7.83019H176.767V9.03236C177.224 8.27587 177.998 7.69531 179.347 7.69531Z" fill="white"/>
<path d="M43.502 22.214V20.9062H52.0169V22.214H48.5159V31.6672H47.0029V22.214H43.502Z" fill="white"/>
<path d="M55.0365 30.67C56.221 30.67 56.8778 30.1363 57.218 29.3505H58.6137C58.2442 30.7286 56.9834 31.8604 55.0365 31.8604C52.5148 31.8604 51.1191 30.0484 51.1191 27.691C51.1191 25.1693 52.808 23.5508 54.9896 23.5508C57.4232 23.5508 58.8893 25.5974 58.7134 28.119H52.5735C52.6321 29.8373 53.8519 30.67 55.0365 30.67ZM57.2942 26.9638C57.2649 25.8378 56.4204 24.706 54.9954 24.706C53.7932 24.706 52.7084 25.357 52.5911 26.9638H57.2942Z" fill="white"/>
<path d="M71.5788 24.1551C71.5788 26.8233 69.7374 27.4039 67.1102 27.4039H65.2571V31.6672H63.7441V20.9062H67.1102C69.7433 20.9062 71.5788 21.5044 71.5788 24.1551ZM65.2571 26.0844H67.2334C68.805 26.0844 70.0365 25.9202 70.0365 24.1551C70.0365 22.4016 68.805 22.1788 67.2334 22.1788H65.2571V26.0844Z" fill="white"/>
<path d="M75.8548 31.8624C74.0017 31.8624 72.0254 30.6016 72.0254 27.7105C72.0254 24.8194 74.0017 23.5586 75.8548 23.5586C77.7079 23.5586 79.6841 24.8194 79.6841 27.7105C79.6841 30.6016 77.7079 31.8624 75.8548 31.8624ZM78.2415 27.7046C78.2415 25.5818 77.0687 24.7373 75.8548 24.7373C74.6409 24.7373 73.468 25.5231 73.468 27.7046C73.468 29.8275 74.6409 30.6719 75.8548 30.6719C77.0687 30.6719 78.2415 29.7513 78.2415 27.7046Z" fill="white"/>
<path d="M82.5167 27.2748L85.7362 23.6859H87.3958L84.3523 26.9934L87.8122 31.6672H86.1643L83.4492 27.9903L82.5167 28.9989V31.6672H81.168V20.9062H82.5167V27.2748Z" fill="white"/>
<path d="M93.4049 26.7527V26.5592C93.4049 25.1048 92.5898 24.6181 91.5928 24.6181C90.4786 24.6181 89.8277 25.228 89.7691 26.2073H88.3734C88.5082 24.4891 90.0212 23.5215 91.5811 23.5215C93.7743 23.5215 94.7713 24.5771 94.7537 26.8172L94.7361 28.6586C94.7185 29.9956 94.7947 30.9163 94.9413 31.6728H93.575C93.528 31.3737 93.487 31.0512 93.4694 30.5762C92.9768 31.3913 92.15 31.8663 90.7367 31.8663C89.2354 31.8663 87.9922 31.0336 87.9922 29.5675C88.0039 27.6734 90.1268 27.1221 93.4049 26.7527ZM89.5052 29.5265C89.5052 30.283 90.0857 30.7873 91.0475 30.7873C92.3083 30.7873 93.5105 30.2067 93.5105 28.3243V27.82C91.0592 28.0722 89.5052 28.4299 89.5052 29.5265Z" fill="white"/>
<path d="M97.9152 24.9465C98.4019 24.102 99.2522 23.5508 100.525 23.5508C102.349 23.5508 103.938 25.0814 103.938 27.7027C103.938 30.3416 102.349 31.8546 100.525 31.8546C99.2464 31.8546 98.4019 31.3033 97.9152 30.4589V34.2589H96.5664V23.6798H97.9152V24.9465ZM102.472 27.7027C102.472 25.8027 101.569 24.706 100.185 24.706C98.9825 24.706 97.8565 25.5974 97.8565 27.7027C97.8565 29.8079 98.9825 30.6993 100.185 30.6993C101.569 30.6993 102.472 29.6027 102.472 27.7027Z" fill="white"/>
<path d="M107.832 31.8625C105.979 31.8625 105.281 30.6134 105.281 28.7896V23.6877H106.63V28.3908C106.63 29.6223 106.835 30.6896 108.307 30.6896C109.586 30.6896 110.342 29.7865 110.342 28.08V23.6877H111.691V31.6689H110.342V30.5254C109.879 31.2819 109.152 31.8625 107.832 31.8625ZM106.302 21.1309H110.753V22.2451H106.302V21.1309Z" fill="white"/>
<path d="M121.749 20.9062L125.801 31.6613H124.171L123.326 29.3332H118.383L117.55 31.6613H116.008L120.001 20.9062H121.749ZM122.846 28.0431L120.828 22.4368L118.84 28.0431H122.846Z" fill="white"/>
<path d="M129.02 31.8625C127.167 31.8625 126.469 30.6134 126.469 28.7896V23.6877H127.818V28.3908C127.818 29.6223 128.023 30.6896 129.495 30.6896C130.773 30.6896 131.53 29.7865 131.53 28.08V23.6877H132.878V31.6689H131.53V30.5254C131.066 31.2819 130.339 31.8625 129.02 31.8625Z" fill="white"/>
<path d="M139.803 26.7527V26.5592C139.803 25.1048 138.988 24.6181 137.991 24.6181C136.877 24.6181 136.226 25.228 136.167 26.2073H134.772C134.907 24.4891 136.42 23.5215 137.98 23.5215C140.173 23.5215 141.17 24.5771 141.152 26.8172L141.135 28.6586C141.117 29.9956 141.193 30.9163 141.34 31.6728H139.979C139.932 31.3737 139.891 31.0512 139.874 30.5762C139.387 31.3913 138.554 31.8663 137.141 31.8663C135.64 31.8663 134.396 31.0336 134.396 29.5675C134.402 27.6734 136.525 27.1221 139.803 26.7527ZM135.904 29.5265C135.904 30.283 136.484 30.7873 137.446 30.7873C138.707 30.7873 139.909 30.2067 139.909 28.3243V27.82C137.458 28.0722 135.904 28.4299 135.904 29.5265Z" fill="white"/>
<path d="M146.97 23.551C148.899 23.551 149.597 24.8001 149.597 26.6239V31.6672H148.248V27.0227C148.248 25.7912 148.043 24.7239 146.495 24.7239C145.187 24.7239 144.39 25.627 144.39 27.3335V31.6672H143.041V20.9062H144.39V24.8822C144.847 24.1257 145.621 23.551 146.97 23.551Z" fill="white"/>
<path d="M156.405 26.7527V26.5592C156.405 25.1048 155.59 24.6181 154.593 24.6181C153.479 24.6181 152.828 25.228 152.769 26.2073H151.373C151.508 24.4891 153.021 23.5215 154.581 23.5215C156.774 23.5215 157.771 24.5771 157.754 26.8172L157.736 28.6586C157.718 29.9956 157.795 30.9163 157.941 31.6728H156.575C156.528 31.3737 156.487 31.0512 156.469 30.5762C155.977 31.3913 155.15 31.8663 153.737 31.8663C152.235 31.8663 150.992 31.0336 150.992 29.5675C151.004 27.6734 153.127 27.1221 156.405 26.7527ZM152.505 29.5265C152.505 30.283 153.086 30.7873 154.047 30.7873C155.308 30.7873 156.51 30.2067 156.51 28.3243V27.82C154.065 28.0722 152.505 28.4299 152.505 29.5265Z" fill="white"/>
</g>
<defs>
<clipPath id="clip0_766_636">
<rect width="185.176" height="36.9449" fill="white"/>
</clipPath>
</defs>
</svg>
