<svg width="166" height="28" viewBox="0 0 166 28" fill="none" xmlns="http://www.w3.org/2000/svg">
<path d="M7.74259 6.95357C3.61719 6.95357 0.472656 10.3577 0.472656 14.6274C0.472656 18.8682 3.61719 22.2723 7.74259 22.2723C10.1947 22.2723 12.4161 20.8299 13.2239 18.9836V21.9262H15.8203V0.000976562H13.2239V10.2423C12.4161 8.42486 10.1947 6.95357 7.74259 6.95357ZM8.17532 9.23263C11.0314 9.23263 13.3104 11.5982 13.3104 14.6274C13.3104 17.6277 11.0314 20.0221 8.17532 20.0221C5.31928 20.0221 3.04021 17.6277 3.04021 14.6274C3.04021 11.5982 5.31928 9.23263 8.17532 9.23263Z" fill="white"/>
<path d="M33.0194 17.368H30.4807C29.7306 19.099 28.2305 20.0798 26.0668 20.0798C23.2973 20.0798 21.1048 18.0893 20.8163 15.2332H33.1637C33.3945 10.7039 30.5673 6.95357 25.9514 6.95357C21.826 6.95357 18.393 10.3 18.393 14.6274C18.393 18.9259 21.826 22.2723 26.038 22.2723C29.4422 22.2723 32.0386 20.426 33.0194 17.368ZM25.9514 9.17493C28.7209 9.17493 30.3653 11.1655 30.625 13.3003H20.9317C21.4799 10.8482 23.4993 9.17493 25.9514 9.17493Z" fill="white"/>
<path d="M35.6904 0.000976562V21.9262H38.2868V0.000976562H35.6904Z" fill="white"/>
<path d="M43.2441 1.09724H43.2153C42.2921 1.09724 41.5709 1.78961 41.5709 2.71278C41.5709 3.63594 42.2921 4.32832 43.2153 4.32832H43.2441C44.1673 4.32832 44.8885 3.63594 44.8885 2.71278C44.8885 1.78961 44.1673 1.09724 43.2441 1.09724ZM41.9459 7.29975V21.9262H44.5423V7.29975H41.9459Z" fill="white"/>
<path d="M54 17.8585L49.0092 7.29975H46.1531L53.9423 22.6474L61.7315 7.29975H58.9909L54 17.8585Z" fill="white"/>
<path d="M76.1846 17.368H73.6459C72.8959 19.099 71.3957 20.0798 69.232 20.0798C66.4625 20.0798 64.27 18.0893 63.9815 15.2332H76.3289C76.5597 10.7039 73.7325 6.95357 69.1166 6.95357C64.9912 6.95357 61.5582 10.3 61.5582 14.6274C61.5582 18.9259 64.9912 22.2723 69.2032 22.2723C72.6074 22.2723 75.2038 20.426 76.1846 17.368ZM69.1166 9.17493C71.8861 9.17493 73.5305 11.1655 73.7902 13.3003H64.0969C64.6451 10.8482 66.6645 9.17493 69.1166 9.17493Z" fill="white"/>
<path d="M86.4141 7.09781C84.0484 6.80932 82.1444 8.16522 81.3366 9.95386V7.29975H78.7402V21.9262H81.3366V14.3389C81.3366 10.502 83.8753 9.29033 86.4141 9.69421V7.09781Z" fill="white"/>
<path d="M102.306 17.2526H98.6708C98.0361 18.5508 96.8533 19.2144 95.1224 19.2144C93.0164 19.2144 91.2855 17.8008 90.8816 15.5794H102.45C102.479 15.2621 102.479 14.9447 102.479 14.6562C102.479 10.2712 99.6228 6.80932 95.0647 6.80932C90.8816 6.80932 87.3332 10.0981 87.3332 14.5408C87.3332 18.9836 90.8816 22.2723 95.0935 22.2723C98.5554 22.2723 101.354 20.4837 102.306 17.2526ZM95.0647 9.92501C97.286 9.92501 98.6131 11.5117 98.815 13.0984H90.997C91.5162 11.1655 93.1318 9.92501 95.0647 9.92501Z" fill="white"/>
<path d="M110.604 22.2723C112.796 22.2723 114.642 21.1472 115.45 19.849V21.9262H119.258V7.15551H115.45V9.23263C114.642 7.93443 112.796 6.80932 110.604 6.80932C106.536 6.80932 103.42 10.1846 103.42 14.5408C103.42 18.9259 106.536 22.2723 110.604 22.2723ZM111.354 19.0124C109.017 19.0124 107.199 17.0795 107.199 14.5408C107.199 12.0021 109.017 10.0981 111.354 10.0981C113.719 10.0981 115.537 12.0021 115.537 14.5408C115.537 17.0795 113.719 19.0124 111.354 19.0124Z" fill="white"/>
<path d="M126.449 22.2723C129.334 22.2723 131.988 20.3972 131.988 17.3969C131.988 12.2906 124.92 13.8196 124.92 11.2521C124.92 10.2712 125.699 9.63652 126.68 9.63652C127.747 9.63652 128.353 10.3289 128.613 11.1367L131.613 9.92501C130.747 7.96328 129.045 6.80932 126.622 6.80932C123.593 6.80932 121.429 8.91529 121.429 11.5117C121.429 16.6757 128.439 14.9447 128.439 17.8008C128.439 18.7528 127.661 19.474 126.507 19.474C125.093 19.474 124.17 18.5508 123.651 17.1949L120.506 18.4354C121.372 20.9164 123.766 22.2723 126.449 22.2723Z" fill="white"/>
<path d="M133.364 27.9844H137.317L148.02 7.15551H143.981L139.74 15.8679L135.499 7.15551H131.403L137.749 19.7625L133.364 27.9844Z" fill="white"/>
<path fill-rule="evenodd" clip-rule="evenodd" d="M163.514 5.86196C162.055 3.93973 159.824 2.85005 157.421 2.85005C155.017 2.85005 152.786 3.93973 151.327 5.86196C149.238 8.61569 149.238 12.4311 151.327 15.1848L157.421 23.1589L163.514 15.1848C165.603 12.4311 165.603 8.61569 163.514 5.86196ZM157.421 6.32126C159.623 6.32126 161.426 8.1284 161.426 10.3368C161.426 12.5453 159.623 14.3524 157.421 14.3524C155.218 14.3524 153.416 12.5453 153.416 10.3368C153.416 8.1284 155.218 6.32126 157.421 6.32126Z" fill="white"/>
</svg>
