<svg width="103" height="46" viewBox="0 0 103 46" fill="none" xmlns="http://www.w3.org/2000/svg">
<path d="M0.221945 39.8669C0.221945 43.0574 2.75478 44.8906 5.45554 44.7787L3.45446 45.9121C2.11108 45.2684 -0.00195312 42.8335 -0.00195312 39.9649C-0.00195312 34.5074 4.32206 29.9735 11.7247 29.9735C12.7462 29.9735 13.7257 30.0854 14.7473 30.2393V23.8163C14.1595 22.4169 12.8581 21.3814 10.969 20.7377L14.7473 20.2479V17.6591C14.1595 16.2598 12.8581 15.2242 10.969 14.5805L14.5933 14.0908V10.2565C15.9927 8.10152 20.3167 4.36523 23.5072 2.53208C20.8625 3.28773 15.8947 6.15641 13.4039 8.68925C12.0045 7.38784 9.51367 6.10044 7.03681 6.10044C5.30161 6.10044 3.69235 6.85609 3.69235 8.42337C3.69235 10.2006 5.52551 10.5364 6.82691 10.3685L5.58148 11.39C4.82583 10.9562 3.42647 9.99065 3.42647 7.82164C3.42647 3.72153 7.09279 0.796875 11.3608 0.796875C14.8732 0.796875 17.9518 2.19623 20.0508 3.66556C22.7516 2.2662 24.9066 1.55253 27.7193 1.55253L28.363 2.95188C27.6074 2.19623 26.7397 1.93035 25.8721 1.93035C25.1725 1.93035 24.5707 2.09828 24.039 2.42013V16.3577L32.3512 8.95512L37.6967 13.3351C38.2425 12.8453 38.8862 11.7678 39.264 10.9562V12.0897L32.2952 18.6807C33.5966 20.4159 36.0175 22.5709 37.2629 23.2705C37.095 24.7818 36.997 26.3491 36.997 28.9939V33.4719C37.5848 34.3954 38.3544 34.7733 38.9981 34.7733C39.8097 34.7733 40.7753 34.0736 41.5869 33.2619V33.6398L34.0724 39.9089C31.6375 38.8314 30.448 36.4525 30.448 35.6409V31.5967L20.0788 39.9089C15.6988 36.2846 11.8646 33.9196 7.2747 33.9196C2.97868 33.9196 0.221945 36.5224 0.221945 39.8669ZM14.8592 30.2533C18.2037 30.8411 21.4502 32.3104 23.7171 33.5978V2.65802C21.772 4.11335 21.0164 7.73768 21.0164 12.4395V15.4621C21.0164 18.4847 21.0724 22.9767 21.2263 24.9638L14.8592 30.2533ZM24.053 16.7495V26.1532L32.9109 17.6731L27.9432 13.3491L24.053 16.7495ZM27.3415 23.3965L24.053 26.531V33.7657C24.7527 34.1995 25.3544 34.5773 25.7882 34.9552L30.49 31.2329V26.0413L27.3415 23.3965Z" fill="white"/>
<path d="M51.2149 35.2218C52.1384 35.2218 53.3279 34.4661 53.8596 33.5426V34.0883L46.8909 39.9236C45.6454 38.6222 43.3225 36.7891 41.2794 36.0334L43.2805 34.8999V19.4511C43.2805 15.6168 43.0706 14.1615 41.1675 12.5382L43.1686 12.0485C43.1686 4.81379 42.7907 3.02261 40.146 1.3014V1.24543C41.6573 1.88913 43.5464 3.40044 44.414 4.75781C45.6594 2.86868 49.0599 0.545749 53.5378 0V0.0559755C50.1933 0.699679 49.2698 4.81379 49.2698 10.915V34.0883C49.7595 34.8999 50.5152 35.2218 51.2149 35.2218Z" fill="white"/>
<path d="M54.1812 36.0343L56.1823 34.9008V15.9955C55.5946 15.1279 54.8389 14.7501 54.1812 14.7501C53.5235 14.7501 52.8378 14.96 52.2361 15.6737V15.4078L58.5612 10.0623C59.8626 11.6855 60.9961 12.6511 62.2835 13.3507L63.7948 12.3852V12.5531C62.4514 14.2323 62.1715 18.1645 62.1715 22.3346V33.9493C62.7593 34.8728 63.5149 35.2507 64.1726 35.2507C64.9842 35.2507 65.9498 34.551 66.7614 33.7394V34.1172L59.7926 39.9525C58.5612 38.6231 56.2383 36.79 54.1812 36.0343ZM64.9283 2.75762L64.8163 4.91263L60.0165 8.97076V8.64891C61.9057 7.29154 63.9067 5.02458 64.8303 2.60369L64.9283 2.75762Z" fill="white"/>
<path d="M80.6573 16.1628C80.1116 15.2393 78.8801 14.5396 77.8446 14.5396L75.0879 17.0724V33.9207C75.6336 34.8862 76.865 35.432 77.8446 35.488V35.6559L72.709 39.9239C71.4635 38.6225 69.1406 36.7894 67.0975 36.0337L69.0986 34.6344V15.9949C68.5109 15.1273 67.7552 14.7495 67.0975 14.7495C66.4398 14.7495 65.7542 14.9594 65.1524 15.6731V15.4072L71.4775 10.0617C73.8564 11.1951 75.1019 13.3082 75.1019 16.7646L82.2806 10.0617C84.6595 11.1951 86.7165 13.3082 86.7165 16.7086L93.6293 10.0057C95.0287 11.6289 97.0857 13.2942 98.3312 14.0078L99.8425 13.0423V13.1542C98.5411 14.8894 98.2752 18.1779 98.2752 22.9777V33.9487C98.8629 34.8722 99.6326 35.2501 100.276 35.2501C101.088 35.2501 102.011 34.5504 102.865 33.7388V34.1166L95.8403 39.9519C93.4614 38.8744 92.216 36.4955 92.216 35.6839V16.3168L89.4033 14.4276L86.7025 16.9605V33.9207C87.2483 34.8443 88.0039 35.2221 88.6476 35.2221C89.2913 35.2221 89.991 34.9562 90.6487 34.2565V34.5784L84.2816 39.9239C83.0922 38.6225 80.7133 36.7894 78.6702 36.0337L80.6713 34.6344V16.1628H80.6573Z" fill="white"/>
</svg>
