<svg width="146" height="46" viewBox="0 0 146 46" fill="none" xmlns="http://www.w3.org/2000/svg">
<g clip-path="url(#clip0_766_712)">
<path d="M48.832 24.3783C48.832 22.718 49.4066 21.2843 50.5556 20.1524C51.7046 18.945 53.0691 18.4168 54.7208 18.4168C56.3726 18.4168 57.737 19.0205 58.8861 20.1524C60.0351 21.3597 60.6096 22.7936 60.6096 24.5292C60.6096 26.2648 60.0351 27.6985 58.8861 28.906C57.737 30.038 56.3007 30.6416 54.649 30.6416C52.9973 30.6416 51.6328 30.038 50.4838 28.8305C49.4065 27.6231 48.832 26.1139 48.832 24.3783ZM51.4174 24.4538C51.4174 25.5856 51.7046 26.4912 52.2791 27.1704C52.8537 27.8495 53.6436 28.2268 54.649 28.2268C55.6544 28.2268 56.4444 27.925 57.0189 27.2458C57.5934 26.5667 57.8807 25.6611 57.8807 24.5292C57.8807 23.3973 57.5934 22.4917 57.0189 21.8126C56.4444 21.1334 55.6544 20.7561 54.649 20.7561C53.6436 20.7561 52.9255 21.1334 52.2791 21.8126C51.7046 22.4917 51.4174 23.3219 51.4174 24.4538ZM61.256 24.3783C61.256 22.718 61.8305 21.2843 62.9795 20.1524C64.1285 18.945 65.493 18.4168 67.1448 18.4168C68.7965 18.4168 70.161 19.0205 71.31 20.1524C72.459 21.3597 73.0336 22.7936 73.0336 24.5292C73.0336 26.2648 72.459 27.6985 71.31 28.906C70.161 30.038 68.7247 30.6416 67.0729 30.6416C65.4212 30.6416 64.0567 30.038 62.9077 28.8305C61.8305 27.6231 61.256 26.1139 61.256 24.3783ZM63.8413 24.4538C63.8413 25.5856 64.1285 26.4912 64.7031 27.1704C65.2776 27.8495 66.0675 28.2268 67.0729 28.2268C68.0783 28.2268 68.8683 27.925 69.4428 27.2458C70.0173 26.5667 70.3046 25.6611 70.3046 24.5292C70.3046 23.3973 70.0173 22.4917 69.4428 21.8126C68.8683 21.1334 68.0783 20.7561 67.0729 20.7561C66.0675 20.7561 65.3494 21.1334 64.7031 21.8126C64.1285 22.4917 63.8413 23.3219 63.8413 24.4538ZM76.337 18.6431V19.6997C76.8397 19.1714 77.1988 18.8695 77.5579 18.6431C77.9169 18.4168 78.3478 18.3414 78.8505 18.3414C79.4969 18.3414 80.215 18.5677 80.9332 19.0205L79.7841 21.4353C79.2814 21.058 78.8505 20.907 78.3478 20.907C76.9834 20.907 76.2652 22.039 76.2652 24.2273V30.1888H73.7517V18.6431H76.337ZM88.9764 10.1914H91.5617V30.2643H88.9764V29.057C87.971 30.1134 86.822 30.5661 85.6011 30.5661C84.093 30.5661 82.8722 29.9624 81.8668 28.8305C80.8613 27.6231 80.3587 26.1894 80.3587 24.3783C80.3587 22.6426 80.8613 21.2089 81.8668 20.077C82.8722 18.945 84.093 18.3414 85.5293 18.3414C86.822 18.3414 87.971 18.8695 88.9764 20.0014V10.1914ZM82.944 24.4538C82.944 25.5856 83.2312 26.4912 83.8057 27.1704C84.3803 27.8495 85.0984 28.2268 86.032 28.2268C86.9656 28.2268 87.7556 27.8495 88.3301 27.1704C88.9046 26.4912 89.1918 25.5856 89.1918 24.4538C89.1918 23.3973 88.9046 22.4917 88.3301 21.7371C87.7556 21.058 86.9656 20.6807 86.1038 20.6807C85.242 20.6807 84.5239 21.058 83.8776 21.7371C83.2312 22.4917 82.944 23.3973 82.944 24.4538ZM92.2799 13.889C92.2799 13.4363 92.4235 12.9835 92.7826 12.6817C93.1416 12.3044 93.5007 12.1534 93.9316 12.1534C94.3625 12.1534 94.7934 12.3044 95.0806 12.6817C95.4397 12.9835 95.5834 13.4363 95.5834 13.889C95.5834 14.3418 95.4397 14.7946 95.0806 15.0965C94.7934 15.4738 94.3625 15.6246 93.9316 15.6246C93.5007 15.6246 93.0698 15.4738 92.7826 15.0965C92.4953 14.7946 92.2799 14.3418 92.2799 13.889ZM95.2243 18.6431V30.1888H92.7108V18.6431H95.2243ZM96.4451 18.6431H99.0304V19.6997C99.8922 18.7941 100.898 18.3414 102.047 18.3414C103.339 18.3414 104.345 18.7941 105.063 19.6241C105.709 20.3788 105.996 21.5107 105.996 23.1709V30.2643H103.411V23.85C103.411 22.718 103.268 21.888 102.98 21.5107C102.693 21.058 102.118 20.8316 101.4 20.8316C100.539 20.8316 99.964 21.1334 99.605 21.7371C99.2459 22.3407 99.1023 23.3219 99.1023 24.7556V30.3397H96.5169V18.6431H96.4451ZM115.404 18.6431H117.99V30.1888H115.404V28.9814C114.327 30.038 113.25 30.4907 112.029 30.4907C110.521 30.4907 109.228 29.887 108.223 28.7551C107.217 27.5477 106.715 26.1139 106.715 24.3028C106.715 22.5672 107.217 21.1334 108.223 20.0014C109.228 18.8695 110.449 18.2658 111.957 18.2658C113.25 18.2658 114.399 18.7941 115.404 19.926V18.6431ZM109.372 24.4538C109.372 25.5856 109.659 26.4912 110.234 27.1704C110.808 27.8495 111.526 28.2268 112.46 28.2268C113.393 28.2268 114.183 27.8495 114.758 27.1704C115.332 26.4912 115.62 25.5856 115.62 24.4538C115.62 23.3973 115.332 22.4917 114.758 21.7371C114.48 21.4038 114.138 21.137 113.754 20.9548C113.37 20.7726 112.953 20.6791 112.532 20.6807C111.67 20.6807 110.952 21.058 110.305 21.7371C109.659 22.4917 109.372 23.3973 109.372 24.4538ZM122.514 21.1334V30.1888H120V21.1334H118.923V18.6431H120V14.4173H122.514V18.6431H124.525V21.1334H122.514ZM135.225 25.0575H127.325C127.397 26.0385 127.684 26.7931 128.187 27.3212C128.69 27.8495 129.408 28.1514 130.198 28.1514C130.844 28.1514 131.347 28.0004 131.778 27.6985C132.209 27.3968 132.64 26.7931 133.142 25.9629L135.297 27.2458C134.938 27.8495 134.65 28.3778 134.22 28.7551C133.861 29.2078 133.43 29.5097 132.999 29.8116C132.568 30.1134 132.137 30.2643 131.634 30.4153C131.132 30.5661 130.629 30.6416 130.054 30.6416C128.403 30.6416 127.11 30.1134 126.105 28.9814C125.099 27.8495 124.596 26.4158 124.596 24.5292C124.596 22.718 125.099 21.2089 126.033 20.077C127.038 18.945 128.259 18.4168 129.911 18.4168C131.562 18.4168 132.783 18.945 133.717 20.077C134.65 21.1334 135.153 22.6426 135.153 24.5292L135.225 25.0575ZM132.568 22.869C132.209 21.4353 131.347 20.7561 129.983 20.7561C129.695 20.7561 129.408 20.8316 129.121 20.907C128.834 20.9824 128.618 21.1334 128.403 21.3597C128.187 21.5107 127.972 21.7371 127.828 22.039C127.684 22.2653 127.541 22.5672 127.469 22.9445H132.568V22.869ZM142.909 20.6051L140.827 21.8126C140.467 21.1334 140.108 20.7561 139.606 20.7561C139.39 20.7561 139.175 20.8316 139.031 20.9824C138.888 21.1334 138.816 21.3597 138.816 21.5862C138.816 22.039 139.318 22.4917 140.252 22.869C141.617 23.4727 142.478 24.0765 142.981 24.5292C143.484 25.0575 143.699 25.7366 143.699 26.5667C143.699 27.6985 143.34 28.6041 142.55 29.3587C141.76 30.038 140.898 30.4153 139.821 30.4153C137.954 30.4153 136.661 29.4343 135.871 27.5477L138.026 26.4912C138.313 27.0195 138.528 27.3968 138.744 27.5477C139.031 27.8495 139.39 28.0004 139.821 28.0004C140.683 28.0004 141.114 27.6231 141.114 26.7931C141.114 26.3402 140.755 25.8875 140.108 25.4348C139.821 25.2838 139.606 25.1329 139.318 25.0575C139.031 24.9065 138.816 24.831 138.528 24.6802C137.81 24.3028 137.236 23.9255 136.949 23.5482C136.589 23.0954 136.374 22.4163 136.374 21.6616C136.374 20.6807 136.733 19.8505 137.379 19.1714C138.026 18.4922 138.888 18.1904 139.821 18.1904C141.186 18.3414 142.263 19.096 142.909 20.6051Z" fill="white"/>
<path d="M50.1266 30.1923L44.5969 24.4572L50.0548 18.722L46.5359 18.6465L42.2988 23.0989V10.1948H39.7853V23.0989L35.5482 18.722H32.0293L37.4872 24.4572L31.9575 30.1923H35.5482L39.7853 25.7399V30.2677H42.2988V25.7399L46.5359 30.1923H50.1266ZM26.0687 8.68556L20.539 2.875L13.2857 10.4967L15.0811 12.3832L20.539 6.6481L26.0687 12.3832L27.7923 10.5721L26.0687 8.68556ZM0 24.4572L7.32509 16.7601L9.04864 18.6465L3.59073 24.4572L9.04864 30.1923L7.25328 32.0788L0 24.4572ZM20.539 45.9638L13.2139 38.3421L15.0093 36.4555L20.539 42.2662L25.9969 36.5311L27.7923 38.4176L20.539 45.9638Z" fill="white"/>
</g>
<defs>
<clipPath id="clip0_766_712">
<rect width="145.066" height="45.9613" fill="white"/>
</clipPath>
</defs>
</svg>
