<svg width="50" height="31" viewBox="0 0 50 31" fill="none" xmlns="http://www.w3.org/2000/svg">
<path d="M44.8022 15.4555V15.3273C42.4614 14.9425 40.9543 12.5376 41.0826 9.49136L41.275 6.0283C41.3712 3.97611 40.2489 2.82176 38.1326 2.82176H35.888V0H38.2608C42.3331 0 44.5777 2.27665 44.3533 6.18863L44.1929 9.5555C44.0647 12.249 45.5397 13.9485 48.0728 13.9485H49.612V16.8343H48.0728C45.5397 16.8343 44.0647 18.5338 44.1929 21.2273L44.3533 24.5942C44.5777 28.5062 42.3331 30.7828 38.2608 30.7828H35.6956V27.961H38.1326C40.2489 27.961 41.3712 26.8067 41.275 24.7545L41.0826 21.2914C40.9543 18.2452 42.4614 15.8403 44.8022 15.4555Z" fill="white"/>
<path d="M15.6357 15.6641C15.6357 13.1309 17.4955 11.3032 20.0287 11.3032C22.1129 11.3032 23.5559 12.4896 24.8064 13.8684C26.057 12.4896 27.4999 11.3032 29.5842 11.3032C32.1173 11.3032 33.9771 13.1309 33.9771 15.6641C33.9771 18.1973 32.1173 20.025 29.5842 20.025C27.4999 20.025 26.057 18.8386 24.8064 17.4598C23.5559 18.8386 22.1129 20.025 20.0287 20.025C17.4955 20.025 15.6357 18.1973 15.6357 15.6641ZM20.2531 17.6521C21.4075 17.6521 22.3374 16.7864 23.3314 15.6641C22.3374 14.5418 21.4075 13.676 20.2531 13.676C19.0988 13.676 18.2971 14.5097 18.2971 15.6641C18.2971 16.8184 19.0988 17.6521 20.2531 17.6521ZM26.2814 15.6641C27.2754 16.7864 28.2053 17.6521 29.3597 17.6521C30.5141 17.6521 31.3157 16.8184 31.3157 15.6641C31.3157 14.5097 30.5141 13.676 29.3597 13.676C28.2053 13.676 27.2754 14.5418 26.2814 15.6641Z" fill="white"/>
<path d="M4.80981 15.3273V15.4555C7.15059 15.8403 8.65766 18.2452 8.5294 21.2914L8.33701 24.7545C8.24081 26.8067 9.3631 27.961 11.4794 27.961H13.9164V30.7828H11.3512C7.27885 30.7828 5.03427 28.5062 5.25873 24.5942L5.41906 21.2273C5.54732 18.5338 4.07231 16.8343 1.53914 16.8343H0V13.9485H1.53914C4.07231 13.9485 5.54732 12.249 5.41906 9.5555L5.25873 6.18863C5.03427 2.27665 7.27885 0 11.3512 0H13.724V2.82176H11.4794C9.3631 2.82176 8.24081 3.97611 8.33701 6.0283L8.5294 9.49136C8.65766 12.5376 7.15059 14.9425 4.80981 15.3273Z" fill="white"/>
</svg>
