<svg width="170" height="26" viewBox="0 0 170 26" fill="none" xmlns="http://www.w3.org/2000/svg">
<g clip-path="url(#clip0_766_871)">
<path d="M1.09946 21.6921L1.15276 18.4966C1.16629 17.6446 1.15276 16.0466 1.09946 15.408L1.44576 15.3147L7.59697 22.4374V18.7492C7.59697 17.8971 7.57074 16.1797 7.49037 15.5409C8.0095 15.5409 8.51514 15.5281 8.96822 15.4742C8.91486 15.8603 8.87504 16.9256 8.86157 17.4447L8.76838 23.0642C8.75485 23.5833 8.75485 24.6608 8.79473 25.0342L8.44904 25.1272L2.35041 18.1106V22.9837C2.35041 23.5029 2.36395 24.5277 2.40382 24.901H0.939453C1.01976 24.2618 1.08593 22.5577 1.09946 21.6921Z" fill="white"/>
<path d="M15.1588 22.0924L11.5238 22.1986C11.6169 23.4368 12.2563 24.0626 13.4412 24.0626C14.3729 24.0626 15.0657 23.6499 15.6652 23.1579L15.6111 24.4089C14.9319 24.862 14.2001 25.1407 13.3217 25.1407C11.2713 25.1407 10.2991 23.6898 10.2991 22.0258C10.2991 20.1083 11.511 18.5913 13.4014 18.5913C15.2121 18.5913 15.9581 19.9489 15.9581 21.6132L15.1588 22.0924ZM14.8123 21.1871C14.6794 20.1615 14.2534 19.6161 13.3352 19.6161C12.3495 19.6161 11.7237 20.3345 11.5508 21.2804L14.8123 21.1871Z" fill="white"/>
<path d="M17.8223 22.7967L17.1829 21.0927C16.8907 20.3075 16.5577 19.415 16.291 18.8425L17.6358 18.6695L19.0071 22.89L19.6066 21.1596C19.926 20.2543 20.2055 19.415 20.4054 18.7493L21.2979 18.6695L22.8021 22.8636L23.3483 21.1468C23.5077 20.6531 23.8804 19.415 24.0539 18.7493C24.5325 18.7493 24.9585 18.7365 25.3582 18.6959L23.1748 24.9538L22.3897 25.0471C22.1891 24.3421 21.8968 23.4498 21.5505 22.5046L20.8449 20.6135L19.3535 24.9538L18.5549 25.0471C18.3949 24.4211 18.1024 23.5826 17.8223 22.7967Z" fill="white"/>
<path d="M35.7551 15.7018L30.0306 23.8103C30.5356 23.8103 31.2952 23.823 31.8143 23.823C33.1721 23.823 34.5703 23.8103 35.4621 23.7833C35.3953 24.156 35.3689 24.5293 35.3561 24.9553C34.5973 24.9019 33.1059 24.8885 31.9203 24.8885C30.4695 24.8885 29.1381 24.9019 28.2192 24.9553L27.9531 24.7022L33.6784 16.6073C33.1059 16.5937 32.6265 16.5937 31.9743 16.5937C30.6694 16.5937 29.5505 16.6073 28.552 16.62C28.5919 16.2873 28.6054 15.8747 28.6054 15.4616C29.7902 15.5019 30.4027 15.529 31.9871 15.529C33.5717 15.529 34.6635 15.5019 35.502 15.4616L35.7551 15.7018Z" fill="white"/>
<path d="M40.9067 22.0924L37.2719 22.1986C37.3656 23.4368 38.0042 24.0626 39.1892 24.0626C40.1207 24.0626 40.8135 23.6499 41.413 23.1579L41.359 24.4089C40.6805 24.862 39.9479 25.1407 39.0696 25.1407C37.0193 25.1407 36.047 23.6898 36.047 22.0258C36.047 20.1083 37.2591 18.5913 39.1493 18.5913C40.9601 18.5913 41.7061 19.9489 41.7061 21.6132L40.9067 22.0924ZM40.5604 21.1871C40.4275 20.1615 40.0014 19.6161 39.0831 19.6161C38.0976 19.6161 37.4716 20.3345 37.2987 21.2804L40.5604 21.1871Z" fill="white"/>
<path d="M42.3457 23.2781C42.3457 22.0393 43.4509 21.2142 45.5809 21.2142C45.7539 21.2142 45.9273 21.227 46.1002 21.2405L46.1137 21.0406C46.1399 20.1225 45.7539 19.6695 44.8221 19.6695C44.2096 19.6695 43.5576 19.9354 43.1315 20.2556L42.852 19.1907C43.517 18.8047 44.2367 18.5914 45.0212 18.5914C46.6065 18.5914 47.3518 19.55 47.3119 20.961L47.2316 23.5975C47.2188 23.9702 47.3255 24.1301 47.6178 24.1301C47.7778 24.1301 47.9506 24.0903 48.1504 24.0234L48.0311 24.8755C47.8041 24.9687 47.5516 25.0618 47.2316 25.0618C46.726 25.0618 46.2602 24.7155 46.194 24.0234C45.8341 24.6495 45.1286 25.0881 44.2766 25.0881C43.1046 25.0881 42.3457 24.3692 42.3457 23.2781ZM46.0603 22.6252L46.0866 22.0257C45.9011 22.0129 45.7274 22.0002 45.5412 22.0002C44.0496 22.0002 43.5305 22.5456 43.5305 23.2113C43.5305 23.7168 43.81 24.1032 44.5426 24.1032C45.3946 24.1032 46.0204 23.4773 46.0603 22.6252Z" fill="white"/>
<path d="M48.9219 24.9026C48.9886 24.3295 49.0149 23.5044 49.0149 22.7186V17.6462C49.0149 16.874 48.9886 16.0218 48.9219 15.4494C49.4011 15.4095 49.894 15.3562 50.2938 15.2765C50.2531 15.6221 50.2397 16.2743 50.2397 16.7273V23.6111C50.2397 24.0762 50.2531 24.5563 50.2938 24.9026H48.9219Z" fill="white"/>
<path d="M51.3848 23.2781C51.3848 22.0393 52.49 21.2142 54.62 21.2142C54.7929 21.2142 54.9663 21.227 55.1392 21.2405L55.1528 21.0406C55.1791 20.1225 54.7929 19.6695 53.8611 19.6695C53.2488 19.6695 52.5967 19.9354 52.1707 20.2556L51.8911 19.1907C52.556 18.8047 53.2758 18.5914 54.0602 18.5914C55.6456 18.5914 56.3909 19.55 56.351 20.961L56.2708 23.5975C56.258 23.9702 56.3646 24.1301 56.6568 24.1301C56.8168 24.1301 56.9898 24.0903 57.1895 24.0234L57.0702 24.8755C56.8432 24.9687 56.5908 25.0618 56.2708 25.0618C55.7651 25.0618 55.2992 24.7155 55.233 24.0234C54.8731 24.6495 54.1676 25.0881 53.3157 25.0881C52.1436 25.0881 51.3848 24.3692 51.3848 23.2781ZM55.0994 22.6252L55.1257 22.0257C54.9394 22.0129 54.7664 22.0002 54.5803 22.0002C53.0887 22.0002 52.5696 22.5456 52.5696 23.2113C52.5696 23.7168 52.8491 24.1032 53.5818 24.1032C54.4337 24.1032 55.0595 23.4773 55.0994 22.6252Z" fill="white"/>
<path d="M62.0756 24.9026C62.1424 24.3295 62.1686 23.4112 62.1686 22.6396V21.0408C62.1686 20.2691 61.9162 19.6703 61.1039 19.6703C60.2249 19.6703 59.2798 20.5351 59.2798 21.3338V23.5307C59.2798 23.9973 59.2932 24.5563 59.333 24.9026H57.9746C58.028 24.3295 58.0551 23.4112 58.0551 22.6396V21.0408C58.0551 20.2691 58.028 19.3503 57.9746 18.7777C58.4412 18.7777 58.7735 18.7508 59.173 18.7115L59.2671 19.8959C59.7719 19.0708 60.6781 18.5922 61.4234 18.5922C62.7547 18.5922 63.3934 19.4171 63.3934 20.8018V23.5307C63.3934 23.9973 63.4204 24.5563 63.4473 24.9026H62.0756Z" fill="white"/>
<path d="M69.1716 19.0302L69.158 17.6455C69.158 16.8733 69.1446 16.0211 69.0784 15.4486C69.5578 15.4088 70.05 15.3555 70.4497 15.2758C70.4098 15.6214 70.3963 16.2736 70.3963 16.7266V22.6915C70.3963 23.4638 70.4226 24.2889 70.4894 24.9019H69.3579L69.2648 24.2362C68.8524 24.769 68.1063 25.1409 67.3873 25.1409C65.6569 25.1409 64.5645 23.7969 64.5645 22.0926C64.5645 20.1354 65.9228 18.5915 67.747 18.5915C68.2798 18.5915 68.8253 18.7642 69.1716 19.0302ZM65.7899 21.9454C65.7899 23.3708 66.6418 24.0756 67.6141 24.0756C68.2663 24.0756 68.8787 23.7171 69.1716 23.1446V20.2152C68.8524 19.8824 68.3722 19.6562 67.7735 19.6562C66.5217 19.6562 65.7899 20.6944 65.7899 21.9454Z" fill="white"/>
<path d="M79.1831 25.1409C76.4534 25.1409 74.3633 23.0244 74.3633 20.3481C74.3633 17.5517 76.5336 15.3156 79.4362 15.3156C80.4349 15.3156 81.6596 15.6747 82.392 16.1542L82.0187 17.3525C81.3536 16.8198 80.2079 16.5005 79.3032 16.5005C77.1455 16.5005 75.7081 18.0851 75.7081 20.2415C75.7081 22.6119 77.3589 23.9696 79.3295 23.9696C80.075 23.9696 80.6608 23.8364 81.2207 23.5435V21.8792C81.2207 21.6796 81.2207 21.3202 81.1936 21.0805C80.7946 21.0672 80.9005 21.0672 80.4874 21.0672C79.8225 21.0672 79.4362 21.0805 78.6766 21.1077C78.7037 20.6547 78.7037 20.2279 78.6766 19.9087C79.4889 19.9349 79.8885 19.9484 80.4874 19.9484C81.4198 19.9484 81.806 19.9349 82.5918 19.8952C82.525 20.415 82.4987 22.2656 82.4987 23.1175V24.1559C81.7526 24.6487 80.7946 25.1409 79.1831 25.1409Z" fill="white"/>
<path d="M86.653 25.1409C84.8424 25.1409 83.6973 23.69 83.6973 22.0259C83.6973 20.1084 84.9355 18.5907 86.8259 18.5907C88.6501 18.5907 89.7952 20.0424 89.7952 21.7064C89.7952 23.6238 88.557 25.1409 86.653 25.1409ZM86.7727 19.6689C85.641 19.6689 84.9084 20.6275 84.9084 21.826C84.9084 23.3037 85.6282 24.0626 86.72 24.0626C87.8912 24.0626 88.5833 23.0905 88.5833 21.8792C88.5833 20.454 87.7845 19.6689 86.7727 19.6689Z" fill="white"/>
<path d="M91.7904 22.7967L91.0451 21.0927C90.6988 20.3075 90.326 19.415 90.0195 18.8425L91.3508 18.6695L93.148 23.1567L93.9205 21.0927C94.1074 20.587 94.5726 19.3887 94.7725 18.7493C95.2517 18.7493 95.7446 18.7365 96.1301 18.6959L93.5342 24.9538L92.6956 25.0471C92.4959 24.4211 92.1232 23.5826 91.7904 22.7967Z" fill="white"/>
<path d="M101.219 22.0924L97.5838 22.1986C97.6769 23.4368 98.3164 24.0626 99.5012 24.0626C100.433 24.0626 101.126 23.6499 101.725 23.1579L101.671 24.4089C100.992 24.862 100.26 25.1407 99.3819 25.1407C97.3313 25.1407 96.3592 23.6898 96.3592 22.0258C96.3592 20.1083 97.5711 18.5913 99.4613 18.5913C101.272 18.5913 102.018 19.9489 102.018 21.6132L101.219 22.0924ZM100.872 21.1871C100.739 20.1615 100.314 19.6161 99.3953 19.6161C98.4096 19.6161 97.7837 20.3345 97.611 21.2804L100.872 21.1871Z" fill="white"/>
<path d="M106.369 20.0032C105.491 19.8432 104.386 20.309 104.386 21.2414V23.5315C104.386 23.9973 104.399 24.557 104.439 24.9026H103.081C103.148 24.3294 103.161 23.4121 103.161 22.6397V20.7756C103.161 20.0032 103.121 19.4043 103.027 18.8581C103.453 18.8445 103.853 18.7779 104.239 18.6853L104.372 19.8966C104.878 19.0708 105.531 18.7116 106.529 18.5922L106.369 20.0032Z" fill="white"/>
<path d="M111.415 24.9026C111.482 24.3295 111.509 23.4112 111.509 22.6396V21.0408C111.509 20.2691 111.256 19.6703 110.444 19.6703C109.565 19.6703 108.62 20.5351 108.62 21.3338V23.5307C108.62 23.9973 108.633 24.5563 108.673 24.9026H107.314C107.368 24.3295 107.395 23.4112 107.395 22.6396V21.0408C107.395 20.2691 107.368 19.3503 107.314 18.7777C107.781 18.7777 108.113 18.7508 108.513 18.7115L108.607 19.8959C109.112 19.0708 110.018 18.5922 110.763 18.5922C112.095 18.5922 112.733 19.4171 112.733 20.8018V23.5307C112.733 23.9973 112.76 24.5563 112.787 24.9026H111.415Z" fill="white"/>
<path d="M121.999 24.9026C122.066 24.3295 122.093 23.4112 122.093 22.6396V21.0408C122.093 20.2691 121.88 19.6703 121.068 19.6703C120.189 19.6703 119.43 20.3488 119.43 21.1609V23.5307C119.43 23.9973 119.443 24.5563 119.483 24.9026H118.125C118.178 24.3295 118.205 23.4112 118.205 22.6396V21.0408C118.205 20.2691 118.032 19.6703 117.22 19.6703C116.354 19.6703 115.582 20.3488 115.582 21.1609V23.5307C115.582 23.9973 115.596 24.5563 115.636 24.9026H114.264C114.331 24.3295 114.357 23.4112 114.357 22.6396V21.0408C114.357 20.2691 114.331 19.3503 114.264 18.7777C114.744 18.7777 115.063 18.7508 115.462 18.7115L115.556 19.7231C116.101 18.9912 116.834 18.5922 117.539 18.5922C118.524 18.5922 119.097 19.0971 119.31 19.7762C119.723 19.0971 120.469 18.5922 121.374 18.5922C122.705 18.5922 123.317 19.4171 123.317 20.8018V23.5307C123.317 23.9973 123.331 24.5563 123.371 24.9026H121.999Z" fill="white"/>
<path d="M129.364 22.0926L125.729 22.1987C125.823 23.437 126.461 24.0628 127.646 24.0628C128.578 24.0628 129.271 23.6501 129.87 23.1581L129.816 24.4091C129.137 24.8622 128.405 25.1409 127.526 25.1409C125.476 25.1409 124.504 23.69 124.504 22.026C124.504 20.1085 125.716 18.5915 127.606 18.5915C129.417 18.5915 130.163 19.9491 130.163 21.6134L129.364 22.0926ZM129.017 21.1873C128.884 20.1617 128.458 19.6163 127.54 19.6163C126.554 19.6163 125.928 20.3346 125.756 21.2806L129.017 21.1873Z" fill="white"/>
<path d="M135.327 24.9026C135.394 24.3295 135.421 23.4112 135.421 22.6396V21.0408C135.421 20.2691 135.168 19.6703 134.356 19.6703C133.477 19.6703 132.532 20.5351 132.532 21.3338V23.5307C132.532 23.9973 132.545 24.5563 132.585 24.9026H131.227C131.28 24.3295 131.307 23.4112 131.307 22.6396V21.0408C131.307 20.2691 131.28 19.3503 131.227 18.7777C131.693 18.7777 132.025 18.7508 132.425 18.7115L132.518 19.8959C133.024 19.0708 133.93 18.5922 134.675 18.5922C136.007 18.5922 136.645 19.4171 136.645 20.8018V23.5307C136.645 23.9973 136.672 24.5563 136.699 24.9026H135.327Z" fill="white"/>
<path d="M141.478 24.7436C141.198 24.97 140.665 25.0901 140.266 25.0901C139.108 25.0901 138.629 24.438 138.629 23.2793V19.791H137.523L137.843 18.7263H138.642L138.762 17.4206L139.853 17.1273V18.7263H141.491C141.465 19.0193 141.451 19.3115 141.451 19.791H139.853V23.1997C139.853 23.8248 140.08 23.9983 140.533 23.9983C140.865 23.9983 141.264 23.8519 141.531 23.6783L141.478 24.7436Z" fill="white"/>
<path d="M8.30639 2.3158C7.38749 2.30225 6.58884 2.28946 5.54977 2.28946C5.53695 2.58174 5.53695 2.92823 5.53695 3.12795V7.57509C5.53695 8.08095 5.54977 9.11917 5.5903 9.49244H2.75403C2.82086 8.85322 2.84714 7.14915 2.84714 6.28371V4.29937C2.84714 3.80721 2.83439 2.98151 2.80738 2.28946C1.76895 2.28946 0.903473 2.30225 -0.00195312 2.3158C0.0386502 1.63669 0.0514628 0.798205 0.0514628 0.0527297C1.34301 0.0926136 2.63383 0.118793 4.19211 0.118793C5.76312 0.118793 7.09449 0.0926136 8.41305 0.0527297C8.34622 0.771103 8.30639 1.42387 8.30639 2.3158Z" fill="white"/>
<path d="M14.91 6.56313L11.142 6.64274C11.1946 7.45505 11.7145 7.90794 12.686 7.90794C13.7386 7.90794 14.5103 7.58794 15.1895 7.22945L15.1496 8.94646C14.3374 9.42569 13.4455 9.70534 12.3937 9.70534C9.95714 9.70534 8.73242 8.21454 8.73242 6.35046C8.73242 4.23323 10.2366 2.78231 12.3539 2.78231C14.4569 2.78231 15.4028 4.21967 15.4028 6.00414L14.91 6.56313ZM13.2187 5.56464C13.1654 4.84642 12.8724 4.41956 12.2736 4.41956C11.6349 4.41956 11.2081 4.92511 11.1548 5.61792L13.2187 5.56464Z" fill="white"/>
<path d="M21.5135 5.51285V7.57665C21.5135 8.08252 21.5271 9.12088 21.5668 9.49401H18.7441C18.811 8.85479 18.8379 7.15071 18.8379 6.28527V3.34218C18.8379 2.49014 18.811 0.772666 18.7441 0.13329C19.264 0.13329 21.1273 0.120354 21.5668 0.0672272C21.5271 0.453285 21.5135 1.51814 21.5135 2.03787V4.03499L22.6983 2.45041C23.1244 1.90481 23.9103 0.825948 24.4431 0.107112H27.4918L23.8035 4.58043L26.0809 7.41665C26.4528 7.88263 27.3318 8.94795 27.7316 9.42733L24.6286 9.62721L21.5135 5.51285Z" fill="white"/>
<path d="M27.6113 7.89704C27.6113 6.59273 28.7037 5.71297 30.9134 5.71297C31.0464 5.71297 31.22 5.72652 31.4057 5.74008L31.4191 5.56653C31.4326 5.00753 31.1801 4.70171 30.434 4.70171C29.6753 4.70171 28.863 4.9812 28.3566 5.28688L28.0772 3.55662C28.7961 3.13052 29.9013 2.78435 30.9796 2.78435C32.9909 2.78435 33.8429 3.62284 33.8158 5.47398L33.7625 7.60415C33.749 7.97681 33.8827 8.06997 34.1486 8.06997C34.2418 8.06997 34.3614 8.03009 34.468 8.00376L34.3748 9.41479C33.9489 9.57479 33.6032 9.65455 33.1238 9.65455C32.338 9.65455 31.7526 9.38846 31.5394 8.60263C31.1667 9.25556 30.3679 9.65455 29.5686 9.65455C28.3702 9.65455 27.6113 9.00224 27.6113 7.89704ZM33.4432 1.78571C32.8173 1.77216 32.3515 1.75938 31.8053 1.75938H30.1411C29.4619 1.75938 28.996 1.77216 28.4506 1.78571C28.4768 1.3995 28.5031 0.707613 28.5031 0.201903C29.329 0.228236 29.942 0.241018 31.0464 0.241018C31.8189 0.241018 32.7106 0.228236 33.5094 0.201903C33.4695 0.680511 33.4432 1.2666 33.4432 1.78571ZM31.3658 7.32465L31.3928 6.71223C31.286 6.69868 31.1667 6.69868 31.0329 6.69868C30.2343 6.69868 29.9149 7.05779 29.9149 7.52377C29.9149 7.96403 30.1673 8.25631 30.5806 8.25631C31.0329 8.25631 31.3529 7.96403 31.3658 7.32465Z" fill="white"/>
<path d="M35.9301 7.36407L35.2906 5.63351C34.9983 4.84784 34.5452 3.62237 34.2793 3.03705C34.6256 3.03705 36.356 2.95667 36.7429 2.93049L37.8211 6.4181L39.0187 2.99717L40.6567 2.94312L41.828 6.43165L42.2541 5.0873C42.2946 4.96719 42.8933 3.1564 42.9332 2.99717C43.8522 2.99717 44.505 2.99717 45.2503 2.95667L42.6934 9.50749L40.8965 9.57448C40.6831 8.908 40.3906 8.10939 40.0842 7.24381L39.7377 6.25887L38.486 9.50749L36.6888 9.56092C36.5025 8.9351 36.223 8.16268 35.9301 7.36407Z" fill="white"/>
<path d="M45.1445 7.89704C45.1445 6.59273 46.2363 5.71297 48.4466 5.71297C48.5796 5.71297 48.7532 5.72652 48.9387 5.74008L48.9523 5.56653C48.9658 5.00753 48.7127 4.70171 47.9674 4.70171C47.2085 4.70171 46.3963 4.9812 45.8899 5.28688L45.6104 3.55662C46.3293 3.13052 47.4345 2.78435 48.5128 2.78435C50.5233 2.78435 51.376 3.62284 51.3492 5.47398L51.2957 7.60415C51.2822 7.97681 51.4159 8.06997 51.682 8.06997C51.775 8.06997 51.8946 8.03009 52.0012 8.00376L51.9082 9.41479C51.4821 9.57479 51.1357 9.65455 50.6571 9.65455C49.8712 9.65455 49.2858 9.38846 49.0724 8.60263C48.6991 9.25556 47.9011 9.65455 47.1018 9.65455C45.9033 9.65455 45.1445 9.00224 45.1445 7.89704ZM48.8996 7.32465L48.926 6.71223C48.8194 6.69868 48.6991 6.69868 48.5661 6.69868C47.7675 6.69868 47.4481 7.05779 47.4481 7.52377C47.4481 7.96403 47.7005 8.25631 48.1138 8.25631C48.5661 8.25631 48.8862 7.96403 48.8996 7.32465Z" fill="white"/>
<path d="M56.7929 9.49244C56.8599 8.92006 56.8726 8.00119 56.8726 7.22953V5.83128C56.8726 5.05886 56.7259 4.69913 56.1805 4.69913C55.554 4.69913 55.1017 5.25889 55.1017 5.81773V8.12068C55.1017 8.58728 55.1153 9.14627 55.1549 9.49244H52.4922C52.5456 8.92006 52.572 8.00119 52.572 7.22953V5.23179C52.572 4.46014 52.5456 3.66061 52.4922 3.08822C52.9582 3.08822 54.5959 2.88911 54.9949 2.84846L55.0888 4.28659C55.6216 3.34139 56.593 2.78239 57.4983 2.78239C58.79 2.78239 59.4023 3.64706 59.4023 5.08535V8.12068C59.4023 8.58728 59.4286 9.14627 59.4556 9.49244H56.7929Z" fill="white"/>
<path d="M60.0156 7.89704C60.0156 6.59273 61.1073 5.71297 63.3177 5.71297C63.4507 5.71297 63.6243 5.72652 63.8098 5.74008L63.8234 5.56653C63.8368 5.00753 63.5844 4.70171 62.8383 4.70171C62.0794 4.70171 61.2673 4.9812 60.7609 5.28688L60.4813 3.55662C61.2004 3.13052 62.3056 2.78435 63.3839 2.78435C65.3952 2.78435 66.2472 3.62284 66.2201 5.47398L66.1667 7.60415C66.1531 7.97681 66.2871 8.06997 66.5529 8.06997C66.6462 8.06997 66.7663 8.03009 66.8723 8.00376L66.7791 9.41479C66.353 9.57479 66.0067 9.65455 65.5281 9.65455C64.7423 9.65455 64.1569 9.38846 63.9435 8.60263C63.5708 9.25556 62.7721 9.65455 61.9729 9.65455C60.7745 9.65455 60.0156 9.00224 60.0156 7.89704ZM63.7707 7.32465L63.7971 6.71223C63.6903 6.69868 63.5708 6.69868 63.4379 6.69868C62.6384 6.69868 62.3192 7.05779 62.3192 7.52377C62.3192 7.96403 62.5717 8.25631 62.9849 8.25631C63.4379 8.25631 63.7573 7.96403 63.7707 7.32465Z" fill="white"/>
<path d="M71.9707 9.3483C71.5311 9.57451 70.919 9.72096 70.293 9.72096C68.8285 9.72096 67.8835 9.20185 67.8835 7.2845V4.62167H66.8045L67.1111 2.95763H67.9098L68.0435 1.63961L70.4131 0.813751V2.95763H72.0504C72.024 3.25052 72.0105 4.14244 72.0105 4.62167H70.4131V6.99145C70.4131 7.68395 70.6792 7.85704 71.0924 7.85704C71.4245 7.85704 71.7573 7.73739 72.024 7.57739L71.9707 9.3483Z" fill="white"/>
<path d="M72.2363 7.89704C72.2363 6.59273 73.328 5.71297 75.5385 5.71297C75.6714 5.71297 75.845 5.72652 76.0305 5.74008L76.0441 5.56653C76.0576 5.00753 75.8051 4.70171 75.059 4.70171C74.3003 4.70171 73.488 4.9812 72.9817 5.28688L72.7022 3.55662C73.4213 3.13052 74.5263 2.78435 75.6046 2.78435C77.6159 2.78435 78.4679 3.62284 78.4408 5.47398L78.3875 7.60415C78.374 7.97681 78.5078 8.06997 78.7736 8.06997C78.8669 8.06997 78.987 8.03009 79.0931 8.00376L78.9998 9.41479C78.5739 9.57479 78.2275 9.65455 77.7488 9.65455C76.9631 9.65455 76.3776 9.38846 76.1642 8.60263C75.7915 9.25556 74.9929 9.65455 74.1936 9.65455C72.9952 9.65455 72.2363 9.00224 72.2363 7.89704ZM75.9914 7.32465L76.0178 6.71223C75.9112 6.69868 75.7915 6.69868 75.6586 6.69868C74.8591 6.69868 74.5399 7.05779 74.5399 7.52377C74.5399 7.96403 74.7924 8.25631 75.2056 8.25631C75.6586 8.25631 75.978 7.96403 75.9914 7.32465Z" fill="white"/>
<path d="M83.8868 9.49244C83.9535 8.92006 83.9662 8.00119 83.9662 7.22953V5.83128C83.9662 5.05886 83.8198 4.69913 83.2744 4.69913C82.6478 4.69913 82.1953 5.25889 82.1953 5.81773V8.12068C82.1953 8.58728 82.2089 9.14627 82.2488 9.49244H79.5859C79.6394 8.92006 79.6657 8.00119 79.6657 7.22953V5.23179C79.6657 4.46014 79.6394 3.66061 79.5859 3.08822C80.0518 3.08822 81.6898 2.88911 82.0888 2.84846L82.1826 4.28659C82.7152 3.34139 83.6869 2.78239 84.5922 2.78239C85.8836 2.78239 86.496 3.64706 86.496 5.08535V8.12068C86.496 8.58728 86.5224 9.14627 86.5495 9.49244H83.8868Z" fill="white"/>
<path d="M90.3826 7.70989C89.9701 7.70989 89.5832 7.67017 89.2511 7.58963C89.0377 7.7099 88.9445 7.8565 88.9445 7.96306C88.9445 8.17572 89.2247 8.30877 90.5554 8.30877H90.8618C92.7658 8.30877 93.9514 8.76181 93.9514 10C93.9514 11.3983 92.3526 12.6762 89.8363 12.6762C87.8265 12.6762 86.8009 11.9572 86.8009 11.0518C86.8009 10.399 87.3471 9.92031 88.106 9.66713C87.6132 9.45447 87.2803 9.05486 87.2803 8.56193C87.2803 8.06993 87.6665 7.55051 88.3187 7.19079C87.7062 6.79102 87.3471 6.19215 87.3471 5.41988C87.3471 3.91568 88.6522 2.78338 90.5155 2.78338C90.9552 2.78338 91.3548 2.85021 91.7005 2.95693C91.7807 1.8254 92.433 1.22591 93.871 1.3859L93.8049 3.12986C93.1121 2.95693 92.7395 3.06349 92.6058 3.43554C93.1917 3.88858 93.5245 4.54074 93.5245 5.23355C93.5245 6.72481 92.1933 7.70989 90.3826 7.70989ZM89.3706 10.0668C88.8776 10.2396 88.6785 10.5056 88.6785 10.719C88.6785 11.0653 89.0909 11.3449 90.0497 11.3449C91.0745 11.3449 91.7408 10.9452 91.7408 10.5455C91.7408 10.2525 91.4344 10.1329 90.5291 10.0931H90.2496C89.9829 10.0796 89.6635 10.0668 89.3706 10.0668ZM90.4494 4.31468C89.9431 4.31468 89.6102 4.66101 89.6102 5.30038C89.6102 6.0457 89.9565 6.37848 90.4359 6.37848C90.9416 6.37848 91.2608 6.01937 91.2608 5.36644C91.2608 4.60757 90.8889 4.31468 90.4494 4.31468Z" fill="white"/>
<path d="M93.9648 7.89704C93.9648 6.59273 95.0573 5.71297 97.2669 5.71297C97.4001 5.71297 97.5736 5.72652 97.7592 5.74008L97.7728 5.56653C97.7862 5.00753 97.533 4.70171 96.7877 4.70171C96.0288 4.70171 95.2166 4.9812 94.7102 5.28688L94.4307 3.55662C95.1497 3.13052 96.2549 2.78435 97.3331 2.78435C99.3438 2.78435 100.196 3.62284 100.169 5.47398L100.116 7.60415C100.103 7.97681 100.236 8.06997 100.502 8.06997C100.595 8.06997 100.715 8.03009 100.821 8.00376L100.728 9.41479C100.302 9.57479 99.9567 9.65455 99.4775 9.65455C98.6915 9.65455 98.1063 9.38846 97.8929 8.60263C97.5194 9.25556 96.7215 9.65455 95.9221 9.65455C94.7237 9.65455 93.9648 9.00224 93.9648 7.89704ZM97.7193 7.32465L97.7464 6.71223C97.6396 6.69868 97.5194 6.69868 97.3866 6.69868C96.5878 6.69868 96.2684 7.05779 96.2684 7.52377C96.2684 7.96403 96.521 8.25631 96.9341 8.25631C97.3865 8.25631 97.7065 7.96403 97.7193 7.32465Z" fill="white"/>
<path d="M106.85 9.73463C104.786 9.73463 103.455 8.28326 103.455 6.41903C103.455 4.30256 104.88 2.78481 107.023 2.78481C109.101 2.78481 110.445 4.23557 110.445 6.0998C110.445 8.21704 109.007 9.73463 106.85 9.73463ZM106.97 4.54217C106.318 4.54217 105.905 5.07499 105.905 6.19281C105.905 7.49805 106.331 7.96372 106.917 7.96372C107.582 7.96372 107.995 7.45817 107.995 6.31247C107.995 4.96827 107.543 4.54217 106.97 4.54217Z" fill="white"/>
<path d="M115.826 2.67818C116.292 1.57298 116.599 0.880324 116.851 0.134848L118.995 0.00195312L121.911 6.76544C122.257 7.59053 122.763 8.6694 123.136 9.49495L120.3 9.60182L119.581 7.81736H116.319C116.146 8.25701 115.759 9.30877 115.68 9.49495H112.91L115.826 2.67818ZM116.865 6.16656H119.008L117.929 3.27706L116.865 6.16656Z" fill="white"/>
<path d="M126.596 9.73463C124.532 9.73463 123.201 8.28326 123.201 6.41903C123.201 4.30256 124.626 2.78481 126.769 2.78481C128.846 2.78481 130.191 4.23557 130.191 6.0998C130.191 8.21704 128.753 9.73463 126.596 9.73463ZM126.716 4.54217C126.063 4.54217 125.651 5.07499 125.651 6.19281C125.651 7.49805 126.077 7.96372 126.663 7.96372C127.328 7.96372 127.741 7.45817 127.741 6.31247C127.741 4.96827 127.288 4.54217 126.716 4.54217Z" fill="white"/>
<path d="M135.435 9.3483C134.995 9.57451 134.383 9.72096 133.757 9.72096C132.293 9.72096 131.348 9.20185 131.348 7.2845V4.62167H130.27L130.575 2.95763H131.374L131.508 1.63961L133.877 0.813751V2.95763H135.515C135.488 3.25052 135.475 4.14244 135.475 4.62167H133.877V6.99145C133.877 7.68395 134.144 7.85704 134.557 7.85704C134.889 7.85704 135.222 7.73739 135.488 7.57739L135.435 9.3483Z" fill="white"/>
<path d="M141.972 6.56508L138.204 6.64469C138.257 7.457 138.777 7.90989 139.748 7.90989C140.801 7.90989 141.573 7.5899 142.252 7.2314L142.212 8.94842C141.4 9.42764 140.508 9.70729 139.456 9.70729C137.019 9.70729 135.795 8.21649 135.795 6.35242C135.795 4.23518 137.299 2.78427 139.416 2.78427C141.519 2.78427 142.465 4.22163 142.465 6.00609L141.972 6.56508ZM140.281 5.5666C140.228 4.84838 139.935 4.42151 139.336 4.42151C138.697 4.42151 138.27 4.92707 138.217 5.61988L140.281 5.5666Z" fill="white"/>
<path d="M142.705 7.89704C142.705 6.59273 143.797 5.71297 146.007 5.71297C146.14 5.71297 146.314 5.72652 146.499 5.74008L146.513 5.56653C146.526 5.00753 146.274 4.70171 145.528 4.70171C144.769 4.70171 143.957 4.9812 143.45 5.28688L143.171 3.55662C143.89 3.13052 144.995 2.78435 146.073 2.78435C148.084 2.78435 148.937 3.62284 148.91 5.47398L148.856 7.60415C148.843 7.97681 148.976 8.06997 149.243 8.06997C149.336 8.06997 149.456 8.03009 149.562 8.00376L149.469 9.41479C149.043 9.57479 148.697 9.65455 148.218 9.65455C147.432 9.65455 146.846 9.38846 146.633 8.60263C146.26 9.25556 145.462 9.65455 144.662 9.65455C143.464 9.65455 142.705 9.00224 142.705 7.89704ZM146.46 7.32465L146.487 6.71223C146.38 6.69868 146.26 6.69868 146.127 6.69868C145.328 6.69868 145.009 7.05779 145.009 7.52377C145.009 7.96403 145.261 8.25631 145.674 8.25631C146.127 8.25631 146.447 7.96403 146.46 7.32465Z" fill="white"/>
<path d="M154.831 5.09874C153.714 4.97863 152.661 5.24442 152.661 6.48344V8.12068C152.661 8.58651 152.675 9.14627 152.715 9.49244H150.053C150.119 8.92006 150.132 8.00119 150.132 7.22876V5.16558C150.132 4.39254 150.092 3.67416 150.039 3.10177C150.491 3.10177 152.143 2.88834 152.542 2.83491L152.649 4.48647C153.021 3.52772 153.807 2.87479 154.991 2.78178L154.831 5.09874Z" fill="white"/>
<path d="M158.521 9.73463C156.457 9.73463 155.125 8.28326 155.125 6.41903C155.125 4.30256 156.551 2.78481 158.693 2.78481C160.77 2.78481 162.116 4.23557 162.116 6.0998C162.116 8.21704 160.678 9.73463 158.521 9.73463ZM158.641 4.54217C157.988 4.54217 157.575 5.07499 157.575 6.19281C157.575 7.49805 158.002 7.96372 158.587 7.96372C159.252 7.96372 159.666 7.45817 159.666 6.31247C159.666 4.96827 159.212 4.54217 158.641 4.54217Z" fill="white"/>
<path d="M162.381 7.89704C162.381 6.59273 163.473 5.71297 165.684 5.71297C165.816 5.71297 165.99 5.72652 166.175 5.74008L166.189 5.56653C166.203 5.00753 165.949 4.70171 165.204 4.70171C164.446 4.70171 163.633 4.9812 163.126 5.28688L162.847 3.55662C163.567 3.13052 164.671 2.78435 165.75 2.78435C167.76 2.78435 168.613 3.62284 168.585 5.47398L168.533 7.60415C168.519 7.97681 168.653 8.06997 168.919 8.06997C169.012 8.06997 169.132 8.03009 169.238 8.00376L169.144 9.41479C168.719 9.57479 168.373 9.65455 167.894 9.65455C167.108 9.65455 166.523 9.38846 166.309 8.60263C165.937 9.25556 165.137 9.65455 164.338 9.65455C163.14 9.65455 162.381 9.00224 162.381 7.89704ZM166.137 7.32465L166.163 6.71223C166.057 6.69868 165.937 6.69868 165.803 6.69868C165.005 6.69868 164.685 7.05779 164.685 7.52377C164.685 7.96403 164.937 8.25631 165.351 8.25631C165.803 8.25631 166.123 7.96403 166.137 7.32465Z" fill="white"/>
</g>
<defs>
<clipPath id="clip0_766_871">
<rect width="169.24" height="25.1392" fill="white"/>
</clipPath>
</defs>
</svg>
