<svg width="97" height="52" viewBox="0 0 97 52" fill="none" xmlns="http://www.w3.org/2000/svg">
<g clip-path="url(#clip0_766_693)">
<path d="M0.414062 13.3756V7.27397H1.88081V13.3756H0.414062ZM4.16893 10.9702V13.3756H2.87819V9.03406H3.99292L4.11026 9.85544C4.2276 9.62076 4.34494 9.38608 4.57962 9.21007C4.8143 9.03406 5.04898 8.91672 5.34233 8.91672L5.577 10.2661C5.28366 10.2661 5.04898 10.3248 4.8143 10.4421C4.52095 10.5595 4.34494 10.7355 4.16893 10.9702ZM6.7504 8.44736C6.63306 8.44736 6.57439 8.44737 6.45705 8.3887C6.33971 8.33003 6.28104 8.33003 6.22237 8.21269C6.1637 8.15402 6.10503 8.09535 6.04636 7.97801C5.98769 7.91934 5.98769 7.802 5.98769 7.68466C5.98769 7.56732 5.98769 7.44998 5.98769 7.39131C6.04636 7.27397 6.04636 7.2153 6.1637 7.09796C6.22237 7.03929 6.33971 6.98062 6.39838 6.92195C6.51572 6.86328 6.57439 6.86328 6.69173 6.86328C6.80907 6.86328 6.86774 6.86328 6.98508 6.92195C7.10242 6.98062 7.16109 7.03929 7.21976 7.09796C7.27843 7.15663 7.3371 7.27397 7.39577 7.39131C7.45444 7.50865 7.45444 7.56732 7.39577 7.68466C7.39577 7.802 7.39577 7.86067 7.3371 7.97801C7.27843 8.03668 7.21976 8.15402 7.16109 8.21269C7.10242 8.27136 6.98508 8.33003 6.92641 8.3887C6.92641 8.44737 6.80907 8.44736 6.7504 8.44736ZM6.10503 13.3756V9.03406H7.39577V13.3756H6.10503ZM9.56655 10.9702V13.3756H8.27581V9.03406H9.39054L9.50788 9.91411C9.62522 9.67943 9.74256 9.44475 9.97724 9.26874C10.2119 9.09273 10.4466 8.97539 10.7399 8.97539L10.9746 10.3248C10.6813 10.3248 10.4466 10.3835 10.2119 10.5008C9.97724 10.5595 9.74256 10.7355 9.56655 10.9702ZM13.6734 13.3756L13.6148 12.8476C13.4388 13.0236 13.2627 13.1996 13.0281 13.317C12.7934 13.4343 12.5587 13.493 12.324 13.493C12.148 13.493 12.0307 13.493 11.8547 13.4343C11.6787 13.3756 11.5613 13.2583 11.444 13.1996C11.3266 13.0823 11.268 12.9649 11.2093 12.7889C11.1506 12.6129 11.1506 12.4956 11.1506 12.3196C11.1506 11.3222 11.9133 10.7942 13.5561 10.6768V10.6181C13.5561 10.2075 13.3801 10.0901 12.9107 10.0901C12.4414 10.0901 11.972 10.2075 11.5613 10.4421L11.3853 9.44475C11.9133 9.21007 12.5 9.09273 13.0867 9.09273C14.2601 9.09273 14.7882 9.50342 14.7882 10.6181V13.5516L13.6734 13.3756ZM13.5561 11.2635C12.676 11.3809 12.4414 11.7329 12.4414 12.0849C12.4414 12.1436 12.4414 12.2022 12.4414 12.2609C12.4414 12.3196 12.5 12.3782 12.5 12.3782C12.5587 12.4369 12.5587 12.4369 12.6174 12.4956C12.676 12.4956 12.7347 12.4956 12.7934 12.4956C13.0867 12.4956 13.3214 12.3782 13.4974 12.1436L13.5561 11.2635ZM18.0737 13.3756V10.6768C18.0737 10.3835 17.9563 10.1488 17.663 10.1488C17.5456 10.1488 17.3696 10.2075 17.2523 10.2661C17.135 10.3248 17.0176 10.4421 16.9589 10.5008V13.3756H15.6682V9.03406H16.7829L16.9003 9.62076C17.0763 9.44475 17.2523 9.26874 17.487 9.1514C17.7216 9.03406 17.9563 8.97539 18.191 8.97539C18.9537 8.97539 19.3644 9.44475 19.3644 10.3248V13.4343L18.0737 13.3756ZM21.8285 15.0184C20.6551 15.0184 19.8338 14.6077 19.8338 13.9623C19.8338 13.5516 20.0684 13.317 20.5378 13.0236C20.4791 12.9649 20.4205 12.9063 20.3618 12.7889C20.3031 12.7303 20.3031 12.6129 20.3031 12.4956C20.3031 12.2022 20.5378 11.9676 20.9485 11.7329C20.7138 11.6155 20.4791 11.4395 20.3618 11.2048C20.2445 10.9702 20.1271 10.7355 20.1858 10.4421C20.1858 9.50342 20.9485 8.91672 21.9459 8.91672C22.4152 8.91672 22.8846 9.03406 23.2366 9.32741L24.1753 8.91672L24.3513 9.91411H23.6473C23.706 10.0901 23.706 10.2075 23.706 10.3835C23.706 11.3222 22.9433 11.8502 22.0045 11.8502C21.8872 11.8502 21.7699 11.8502 21.5939 11.8502C21.5352 11.8502 21.5352 11.9089 21.5352 11.9089C21.5352 11.9676 21.4765 11.9676 21.4765 12.0262C21.4765 12.1436 21.5939 12.2022 22.1219 12.2609L22.8846 12.3196C23.706 12.4369 24.234 12.6716 24.234 13.317C24.1753 14.373 23.1779 15.0184 21.8285 15.0184ZM21.1245 13.317C21.0658 13.3756 21.0072 13.4343 20.9485 13.5516C20.8898 13.6103 20.8898 13.7276 20.8898 13.845C20.8898 14.1383 21.1832 14.373 21.9459 14.373C22.5912 14.373 23.0019 14.1383 23.0019 13.845C23.0019 13.669 22.8259 13.5516 22.4152 13.493L21.8285 13.4343C21.4765 13.3756 21.3005 13.317 21.1245 13.317ZM21.8872 9.7381C21.5352 9.7381 21.3005 10.0314 21.3005 10.5008C21.3005 10.9115 21.5352 11.2048 21.8872 11.2048C22.2392 11.2048 22.4739 10.9115 22.4739 10.5008C22.4739 10.3835 22.4739 10.3248 22.4739 10.2075C22.4739 10.1488 22.4152 10.0314 22.3566 9.97278C22.2979 9.91411 22.2392 9.85544 22.1219 9.79677C22.0632 9.7381 21.9459 9.7381 21.8872 9.7381ZM25.4661 8.44736C25.3487 8.44736 25.2901 8.44737 25.1727 8.3887C25.0554 8.33003 24.9967 8.33003 24.938 8.21269C24.8794 8.15402 24.8207 8.09535 24.762 7.97801C24.7034 7.91934 24.7034 7.802 24.7034 7.68466C24.7034 7.56732 24.7034 7.44998 24.7034 7.39131C24.762 7.27397 24.762 7.2153 24.8794 7.09796C24.938 7.03929 25.0554 6.98062 25.114 6.92195C25.2314 6.86328 25.2901 6.86328 25.4074 6.86328C25.5247 6.86328 25.5834 6.86328 25.7007 6.92195C25.8181 6.98062 25.8768 7.03929 25.9354 7.09796C25.9941 7.15663 26.0528 7.27397 26.1114 7.39131C26.1701 7.50865 26.1701 7.56732 26.1114 7.68466C26.1114 7.802 26.1114 7.86067 26.0528 7.97801C25.9941 8.03668 25.9354 8.15402 25.8767 8.21269C25.8181 8.27136 25.7007 8.33003 25.6421 8.3887C25.6421 8.44737 25.5247 8.44736 25.4661 8.44736ZM24.8207 13.3756V9.03406H26.1114V13.3756H24.8207ZM31.6851 8.50603V13.317H30.2183V8.50603H28.5169V7.2153H33.1518L33.3278 8.50603H31.6851ZM35.0292 13.4343C33.7972 13.4343 32.8585 12.7303 32.8585 11.2048C32.8585 9.79677 33.6798 8.91672 34.7946 8.91672C36.0853 8.91672 36.6133 9.91411 36.6133 11.2048C36.6133 11.3222 36.6133 11.4395 36.6133 11.5569H34.0905C34.0905 11.6742 34.0905 11.8502 34.1492 11.9676C34.2079 12.0849 34.2665 12.2022 34.3839 12.3196C34.5012 12.4369 34.6185 12.4956 34.7359 12.4956C34.8532 12.5542 34.9706 12.5542 35.1466 12.5542C35.6159 12.5542 36.0853 12.3782 36.496 12.0849L36.6133 13.0236C36.2613 13.317 35.6746 13.493 35.0292 13.4343ZM34.2079 10.7942H35.5573C35.4986 10.1488 35.2639 9.79677 34.9119 9.79677C34.4425 9.79677 34.2079 10.1488 34.2079 10.7942ZM44.4751 13.3756L44.2404 9.26874L43.1257 13.3756H41.7176L40.6615 9.26874L40.4269 13.3756H39.1361L39.5468 7.27397H41.4242L42.539 11.4982L43.7124 7.27397H45.5311L46.0005 13.3756H44.4751ZM48.582 13.4343C47.4086 13.4343 46.5872 12.5543 46.5872 11.1462C46.5872 9.7381 47.4086 8.85805 48.582 8.85805C49.7554 8.85805 50.5767 9.7381 50.5767 11.1462C50.5767 12.6129 49.6967 13.4343 48.582 13.4343ZM48.582 10.0314C48.1126 10.0314 47.8193 10.5008 47.8193 11.2048C47.8193 11.9089 48.1126 12.3782 48.582 12.3782C49.0513 12.3782 49.3447 11.9089 49.3447 11.2048C49.3447 10.5008 49.0513 10.0314 48.582 10.0314ZM52.9822 13.4343C52.1021 13.4343 51.4568 13.0823 51.4568 11.9676V10.0901H50.9288V8.97539H51.4568V7.68466L52.7475 7.44998V8.97539H53.5689L53.7449 10.0901H52.7475V11.7329C52.7475 11.7915 52.7475 11.8502 52.7475 11.9676C52.7475 12.0262 52.8062 12.0849 52.8649 12.1436C52.9235 12.2022 52.9822 12.2022 53.0409 12.2609C53.0995 12.2609 53.1582 12.2609 53.2755 12.2609C53.3929 12.2609 53.5102 12.2609 53.5689 12.2022L53.7449 13.317C53.5102 13.4343 53.2755 13.4343 52.9822 13.4343ZM56.9131 13.3756L56.7957 12.7889C56.6197 12.9649 56.4437 13.1409 56.209 13.2583C55.9744 13.3756 55.7397 13.4343 55.505 13.493C54.7423 13.493 54.3316 13.0236 54.3316 12.1436V9.03406H55.6223V11.7329C55.6223 12.0262 55.7397 12.2609 56.033 12.2609C56.1504 12.2609 56.3264 12.2022 56.4437 12.1436C56.561 12.0849 56.6784 11.9676 56.7371 11.8502V8.97539H58.0278V13.317L56.9131 13.3756Z" fill="white"/>
<path d="M5.87035 28.3947L2.87819 22.5277V28.3947H0.414062V17.1301H3.0542L5.81168 22.5277V17.1301H8.33448V28.3947H5.87035ZM9.44921 28.3947V25.9892L13.3214 19.7115H9.62522V17.1301H16.6069V19.5355L12.7347 25.8132H16.7243V28.3947H9.44921ZM23.8233 28.5707C21.1832 28.5707 19.4231 26.2239 19.4231 22.7624C19.4231 19.3009 21.1832 16.8954 23.882 16.8954C26.5808 16.8954 28.2822 19.2422 28.2822 22.7037C28.2235 26.2239 26.4634 28.5707 23.8233 28.5707ZM23.8233 19.4182C22.7086 19.4182 22.0632 20.7089 22.0632 22.7037C22.0632 24.6985 22.7086 25.9892 23.8233 25.9892C24.938 25.9892 25.5834 24.6985 25.5834 22.7037C25.5247 20.7089 24.938 19.4182 23.8233 19.4182ZM32.9171 28.3947V23.5251C32.9171 23.0557 32.7411 22.7037 32.3891 22.7037C32.2131 22.7037 32.0957 22.7624 31.9197 22.8797C31.8024 22.9384 31.6851 23.0557 31.5677 23.2317V28.4533H29.2209V20.3569H31.333L31.4504 21.413C32.0371 20.6503 32.6238 20.1809 33.3865 20.1809C34.6185 20.1809 35.2052 21.1196 35.2052 22.7037V28.3947H32.9171ZM41.1896 17.1301H44.2404L47.2326 28.336H44.4751L44.0057 26.5759H41.1309L40.6615 28.3947H38.0214L41.1896 17.1301ZM41.6589 23.9944H43.3604L42.539 20.4156L41.6589 23.9944ZM49.0513 19.4769C48.8166 19.4769 48.5233 19.4182 48.3473 19.2422C48.1126 19.1248 47.9953 18.8902 47.8779 18.6555C47.7606 18.4208 47.7606 18.1275 47.8193 17.8928C47.8779 17.6581 47.9953 17.4234 48.1713 17.2474C48.3473 17.0714 48.582 16.9541 48.8166 16.8954C49.0513 16.8367 49.3447 16.8954 49.5793 16.9541C49.814 17.0714 50.0487 17.2474 50.166 17.4234C50.2834 17.6581 50.4007 17.8928 50.4007 18.1275C50.4007 18.3035 50.4007 18.4795 50.3421 18.6555C50.2834 18.8315 50.166 18.9488 50.0487 19.0662C49.9314 19.1835 49.7554 19.3009 49.638 19.3595C49.4033 19.4182 49.2273 19.4769 49.0513 19.4769ZM47.8779 28.3947V20.3569H50.2247V28.3947H47.8779ZM55.681 22.821C55.329 22.8797 54.977 22.9971 54.6836 23.2317C54.3903 23.4077 54.1556 23.7011 53.9209 23.9944V28.336H51.5741V20.3569H53.6276L53.8622 21.941C54.0383 21.4716 54.3316 21.061 54.7423 20.7676C55.153 20.4743 55.5637 20.2982 56.0917 20.1809C56.7371 20.0636 57.4411 20.1809 58.0278 20.5329C57.5584 21.3543 56.6784 22.9384 56.6784 22.9384C56.385 22.821 56.033 22.7624 55.681 22.821Z" fill="white"/>
<path fill-rule="evenodd" clip-rule="evenodd" d="M28.046 30.7988C32.1529 30.7988 34.265 34.495 36.2598 38.4259C36.7291 39.4233 37.2572 40.4207 37.7265 41.3594C38.1959 42.2981 38.7239 43.1782 39.3106 44.0582C40.308 45.5249 41.4814 46.6983 43.0068 47.285C43.1828 47.3437 43.1241 47.5197 43.0068 47.5197C42.7135 47.5784 42.4201 47.5784 42.1268 47.5784C34.793 47.5784 27.342 34.5537 25.6992 31.4442V31.2682C25.6992 31.2682 25.6992 31.2682 25.7579 31.2095C26.4033 30.9748 27.2246 30.7988 28.046 30.7988Z" fill="white"/>
<path fill-rule="evenodd" clip-rule="evenodd" d="M55.2686 39.952C57.0287 37.3706 58.6128 34.6717 60.0209 31.8556C61.5463 28.9808 62.9544 25.9886 64.4211 23.0551C70.2881 11.2625 76.6831 0.115234 88.9451 0.115234H89.0037C91.5265 0.115234 94.0493 0.643262 96.3961 1.64065C96.3961 1.64065 96.4548 1.64065 96.4548 1.69932C96.4548 1.69932 96.4548 1.69932 96.4548 1.75799V1.87533C91.6439 10.7345 69.1147 50.5126 46.9962 50.5126C45.7641 50.5126 44.532 50.3952 43.3 50.1019C43.124 50.0432 43.124 49.8672 43.3 49.8672C48.1696 48.4005 51.9831 44.7043 55.2686 39.952Z" fill="white"/>
</g>
<defs>
<clipPath id="clip0_766_693">
<rect width="96.8051" height="51.0427" fill="white"/>
</clipPath>
</defs>
</svg>
