<svg width="146" height="21" viewBox="0 0 146 21" fill="none" xmlns="http://www.w3.org/2000/svg">
<path d="M133.809 3.91035C130.618 3.89625 128.019 6.46875 128 9.65935V10.9525C127.922 12.8312 126.408 14.3317 124.529 14.3936C123.032 14.3936 122.453 13.8427 121.869 12.6648C123.971 11.6277 125.026 9.23353 124.374 6.98296C123.722 4.73239 121.551 3.2729 119.22 3.51922C116.89 3.76554 115.072 5.64681 114.905 7.98393C114.738 10.3211 116.271 12.4416 118.542 13.0165C119.349 15.8604 121.485 17.5203 124.529 17.5203C128.059 17.5203 131.157 14.9578 131.157 11.1396V10.5514C133.016 11.677 134.188 11.9464 135.807 11.9464C141.046 11.9464 144.638 7.45614 145.951 3.94777L133.809 3.91035ZM117.831 8.32275C117.831 7.2688 118.686 6.4144 119.74 6.4144C120.794 6.4144 121.648 7.2688 121.648 8.32275C121.648 9.3767 120.794 10.2311 119.74 10.2311C118.686 10.2311 117.831 9.3767 117.831 8.32275Z" fill="white"/>
<path d="M3.62362 11.4486C3.79724 13.2282 5.40175 13.791 7.0347 13.791C8.5539 13.791 9.83362 13.1833 9.83362 11.9036C9.83362 10.9277 9.20498 10.4727 7.51217 10.1898L4.77312 9.69143C2.34241 9.25737 0.477462 8.06446 0.477462 5.30895C0.477462 2.37982 3.12371 0.471475 6.66052 0.471475C10.6523 0.471475 12.9304 2.22865 13.2342 5.22214H9.69741C9.5672 3.87507 8.39525 3.16113 6.70392 3.16113C5.16377 3.16113 4.14299 3.91998 4.14299 5.02757C4.14299 6.11121 4.90334 6.3941 6.37763 6.67399L9.32922 7.23826C12.0234 7.71572 13.5201 9.1047 13.5201 11.6417C13.5201 14.6352 10.7436 16.4807 7.16342 16.4807C3.18956 16.4822 0.324794 14.8552 0 11.4486H3.62362ZM18.5911 20.0833H14.9675V5.11588H18.5462V6.78475C19.0895 5.67715 20.3902 4.85394 21.9528 4.85394C24.9463 4.85394 26.8127 7.28316 26.8127 10.6673C26.8127 14.0514 24.9463 16.4822 21.9528 16.4822C20.4126 16.4822 19.1539 15.6784 18.5896 14.5723L18.5911 20.0833ZM18.5267 10.9068C18.5267 12.7508 19.3724 13.8778 20.8257 13.8778C22.3449 13.8778 23.1696 12.6804 23.1696 10.6673C23.1696 8.65418 22.3449 7.43433 20.8257 7.43433C19.3724 7.43433 18.5267 8.56288 18.5267 10.4278V10.9068ZM36.0716 8.38926C35.684 8.32759 35.292 8.29855 34.8996 8.30245C33.2532 8.30245 31.9929 9.27982 31.9929 11.3618V16.2217H28.3753V5.11438H31.9555V7.47774C32.5198 5.83132 33.7127 4.93327 35.2738 4.93327C35.5461 4.91877 35.8187 4.95532 36.0776 5.04104L36.0716 8.38926ZM39.6338 3.91998C38.4843 3.91998 37.5518 3.09677 37.5518 1.94577C37.5518 0.81872 38.4843 0 39.6338 0C40.7833 0 41.6948 0.824707 41.6948 1.94577C41.6948 3.09677 40.7624 3.91998 39.6338 3.91998ZM37.8123 16.2217V5.11438H41.4344V16.2217H37.8123ZM47.0966 6.82815C47.6399 5.69961 48.8538 4.85394 50.5241 4.85394C53.0851 4.85394 54.6462 6.41505 54.6462 9.1062V16.2217H51.0016V9.97281C51.0016 8.43266 50.3939 7.65286 49.1576 7.65286C48.0306 7.65286 47.1475 8.38926 47.1475 10.2767V16.2217H43.5254V5.11438H47.1041L47.0966 6.82815ZM64.3601 13.9003C63.8167 14.9854 62.6014 15.846 60.9969 15.846C57.96 15.846 56.0935 13.547 56.0935 10.3365C56.0935 7.126 57.96 4.84796 60.9969 4.84796C62.6014 4.84796 63.8601 5.71457 64.4035 6.77876V5.11438H67.9822V14.8986C67.9822 18.6075 65.5739 20.3438 62.0162 20.3438C58.7398 20.3438 56.6803 18.9548 56.2896 16.6992H59.8698C60.1303 17.5448 60.8891 17.8966 61.9967 17.8966C63.4066 17.8966 64.3616 17.1796 64.3616 15.4449L64.3601 13.9003ZM64.4454 10.1255C64.4454 8.45511 63.4919 7.41338 62.082 7.41338C60.5853 7.41338 59.7381 8.51947 59.7381 10.3425C59.7381 12.1655 60.5838 13.2926 62.082 13.2926C63.4919 13.2926 64.4454 12.2449 64.4454 10.5371V10.1255ZM70.0701 16.2217V0.254447H73.6938V16.2217H70.0701ZM81.1775 16.4822C77.6856 16.4822 75.2549 14.2909 75.2549 10.6673C75.2549 7.04368 77.6811 4.85394 81.1775 4.85394C84.6739 4.85394 87.0792 7.04518 87.0792 10.6673C87.0792 14.2894 84.6484 16.4822 81.1775 16.4822ZM81.1775 13.8778C82.6742 13.8778 83.4346 12.6804 83.4346 10.6673C83.4346 8.65418 82.6742 7.45678 81.1775 7.45678C79.6807 7.45678 78.8994 8.65418 78.8994 10.6673C78.8994 12.6804 79.6807 13.8778 81.1775 13.8778ZM95.5178 14.5948C94.9535 15.8311 93.6514 16.4822 91.96 16.4822C89.5952 16.4822 88.0984 15.2009 88.0984 13.2058C88.0984 10.8843 89.9634 10.0387 92.2205 9.79919L95.3442 9.49984V9.05082C95.3442 8.03153 94.7365 7.44481 93.6738 7.44481C92.6755 7.44481 92.1112 8.03153 92.0469 8.85624H88.5759C88.8139 6.36117 90.7447 4.86442 93.804 4.86442C97.1223 4.86442 98.8795 6.40457 98.8795 9.46392V13.0546C98.8633 14.1138 98.9288 15.1726 99.0756 16.2217H95.6256C95.5598 15.6818 95.5238 15.1387 95.5178 14.5948ZM95.3427 12.0129V11.4696L93.346 11.709C92.3701 11.8168 91.6757 12.0772 91.6757 12.9678C91.6757 13.7042 92.1756 14.1652 93.0646 14.1652C94.259 14.1607 95.3427 13.4228 95.3427 12.0129ZM108.364 14.5723C107.8 15.6784 106.499 16.4822 104.959 16.4822C101.966 16.4822 100.099 14.0514 100.099 10.6673C100.099 7.28316 101.964 4.85394 104.959 4.85394C106.52 4.85394 107.779 5.6562 108.321 6.76229V0.254447H111.945V16.2217H108.364V14.5723ZM108.387 10.4293C108.387 8.56288 107.54 7.43583 106.086 7.43583C104.569 7.43583 103.744 8.67364 103.744 10.6688C103.744 12.664 104.569 13.8793 106.086 13.8793C107.54 13.8793 108.387 12.7523 108.387 10.9083V10.4293Z" fill="white"/>
</svg>
