<svg width="73" height="30" viewBox="0 0 73 30" fill="none" xmlns="http://www.w3.org/2000/svg">
<path d="M6.81141 21.3599C8.07126 21.3599 9.15113 20.9099 9.15113 19.7401C9.15113 18.9302 8.61119 18.4802 7.62131 18.2102L5.46157 17.6703C2.04197 16.7704 0.782123 15.0606 0.782123 12.9009C0.782123 10.0212 2.94187 7.77148 6.9014 7.77148C10.051 7.77148 12.5707 9.3013 13.0207 12.001L9.24112 12.9009C9.15113 11.821 8.16125 11.1911 6.99138 11.1911C5.73153 11.1911 4.92163 11.821 4.92163 12.8109C4.92163 13.6208 5.46157 14.0707 6.72142 14.4307L8.79117 14.9706C11.7608 15.7805 13.2906 17.4003 13.2906 19.7401C13.2906 22.7097 10.9509 24.6895 6.81141 24.6895C2.76189 24.6895 0.602145 22.7097 0.242188 20.1L4.11173 19.4701C4.29171 20.64 5.28159 21.3599 6.81141 21.3599Z" fill="white"/>
<path d="M15.5391 3.27148V24.329H19.6786V11.7305H22.7382V8.2209H19.6786V3.27148H15.5391Z" fill="white"/>
<path d="M27.9597 14.8809H35.6988C35.5188 12.4512 34.0789 11.2814 32.0092 11.2814C29.7595 11.2814 28.4096 12.5412 27.9597 14.8809ZM40.0182 17.7606H27.9597C28.2296 20.1903 30.1194 21.0902 32.0092 21.0902C33.989 21.0902 35.1588 20.1903 35.8787 18.7505L39.3883 20.1003C38.2185 22.89 35.3388 24.5998 32.0092 24.5998C27.2398 24.5998 23.9102 21.2702 23.9102 16.1408C23.9102 11.1014 27.1498 7.5918 32.0092 7.5918C36.7786 7.5918 40.0182 10.9214 40.0182 16.1408C40.0182 16.3208 40.0182 17.7606 40.0182 17.7606Z" fill="white"/>
<path d="M67.2842 8.2207H63.0547V24.2388H67.2842V8.2207Z" fill="white"/>
<path d="M50.9068 20.9086C48.3871 20.9086 46.4974 19.1088 46.4974 16.2292C46.4974 13.3495 48.3871 11.5497 50.9068 11.5497C53.5165 11.5497 55.3163 13.3495 55.3163 16.2292C55.3163 19.1088 53.5165 20.9086 50.9068 20.9086ZM59.6358 0.121094H55.4063V9.92993C54.2364 8.40011 52.1667 7.77018 50.2769 7.77018C45.5975 7.77018 42.0879 11.0998 42.0879 16.3192C42.0879 21.8985 45.5075 24.7782 50.1869 24.7782C52.3467 24.7782 54.4164 23.8783 55.4963 22.3484C55.5863 23.1584 55.5863 23.7883 55.7663 24.3282H59.6358V0.121094Z" fill="white"/>
<path d="M67.272 0.124019L67.2598 4.35352L71.4893 4.36578L71.5015 0.136284L67.272 0.124019Z" fill="white"/>
</svg>
