<svg width="40" height="60" viewBox="0 0 40 60" fill="none" xmlns="http://www.w3.org/2000/svg">
<g clip-path="url(#clip0_766_684)">
<path d="M3.0563 26.6196C3.00268 26.8786 2.89336 27.1229 2.73591 27.3354C2.57846 27.548 2.37665 27.7237 2.14449 27.8505C1.39795 28.1469 1.23268 27.5143 1.28397 27.2806C1.39184 27.0415 1.53601 26.8204 1.71138 26.6253C1.85409 26.4067 2.05025 26.2282 2.28126 26.1067C2.36613 26.0739 2.45762 26.0619 2.54808 26.0717C2.63854 26.0815 2.72534 26.1128 2.80122 26.163C2.8771 26.2132 2.93985 26.2809 2.98423 26.3603C3.02861 26.4397 3.05332 26.5286 3.0563 26.6196ZM15.0978 58.1282C14.4797 57.8762 13.7909 57.858 13.1603 58.0769C13.0503 58.1228 12.9574 58.202 12.8948 58.3033C12.8321 58.4047 12.8028 58.5231 12.811 58.642C12.8192 58.7609 12.8644 58.8742 12.9404 58.9661C13.0163 59.0579 13.1191 59.1236 13.2343 59.154C13.8459 59.3419 14.5067 59.2825 15.0751 58.9887C15.3486 58.8349 15.4797 58.322 15.0978 58.1282ZM29.6013 51.9621C29.3448 52.0647 27.1508 53.7515 26.182 54.3442C25.1733 54.8881 24.0988 55.2999 22.985 55.5695C21.6804 55.8887 20.3381 56.0268 18.9958 55.9798C17.6737 55.9798 16.0097 55.8658 14.7217 55.7803C13.9125 55.729 13.24 55.7062 12.9323 55.7062C12.1838 55.6954 11.4359 55.7546 10.6984 55.8829C10.516 55.9228 9.6441 56.5097 11.4848 56.8403C12.8262 57.0576 14.1791 57.1966 15.5367 57.2563C17.6623 57.3589 19.7595 57.3361 20.4718 57.3133C24.3104 57.2018 27.9482 55.5725 30.5872 52.7827C30.741 52.475 30.741 51.5176 29.6013 51.9621ZM12.3453 52.002C12.2769 52.002 11.4962 52.0875 10.8067 52.116C10.3678 52.116 9.99743 52.0818 9.76378 52.0875C9.1939 52.0875 9.06853 52.3325 9.29078 52.9366C9.51303 53.5407 9.86066 53.7401 10.1 53.7116C11.0688 53.5692 12.5391 52.9993 12.7158 52.6916C13.109 52.0932 12.3795 52.0077 12.3453 52.002Z" fill="white"/>
<path d="M25.0294 52.3149C24.4201 52.2531 23.8073 52.3933 23.2855 52.7139C23.1374 52.7936 22.5846 53.4604 23.4337 53.7168C23.738 53.7917 24.0545 53.803 24.3633 53.75C24.6722 53.6971 24.9668 53.581 25.2288 53.4091C25.5366 53.1698 25.7816 52.4802 25.0294 52.3149ZM32.3751 45.9836C32.1301 46.2229 31.2354 47.2601 30.1526 48.303C29.4801 48.9517 28.7621 49.5516 28.0041 50.0981C27.1835 50.668 27.4343 51.9673 28.7336 51.2379C29.6683 50.6665 30.5328 49.9875 31.3094 49.2148C32.6658 47.9155 33.3268 46.7757 33.4465 46.2628C33.6573 45.3909 32.8367 45.522 32.3751 45.9836ZM23.6446 0.569898C23.3254 0.524308 22.0147 0.820645 23.1659 1.76664C23.4736 2.01739 25.4112 2.33652 27.4172 3.19704C28.57 3.70705 29.6293 4.40624 30.5515 5.2657C31.6145 6.27917 32.5694 7.40024 33.4009 8.6109C34.5407 10.1952 35.1105 11.4204 35.4354 11.8763C35.7602 12.3322 36.1762 13.0844 36.6093 13.6543C36.8756 13.9948 37.1651 14.3166 37.4755 14.6174C37.7377 14.948 38.7407 14.9651 38.5013 14.0475C38.1425 13.3226 37.7271 12.6271 37.259 11.9675C36.5181 10.7365 35.669 9.35174 35.4753 9.0497C31.9135 3.3737 28.9045 2.27954 28.4942 2.04589C26.9377 1.37471 25.3111 0.879639 23.6446 0.569898ZM27.8389 12.2866C27.9073 12.6001 28.3632 13.6372 29.1211 13.8595C29.5998 13.9963 29.5884 13.5688 29.691 13.2896C29.5755 12.6596 29.2328 12.0938 28.7279 11.6996C28.0041 11.3064 27.7876 12.0473 27.8389 12.2866ZM7.8874 15.4324C7.55687 15.9111 7.27763 17.5409 8.98157 15.4324C12.663 10.8733 16.6009 9.70506 20.4418 9.62528C21.7582 9.59034 23.0677 9.82702 24.2885 10.3205C25.7645 10.9531 26.1805 11.2722 26.5282 11.0842C27.4514 10.5941 26.9043 9.59679 25.8614 9.32325C24.6159 8.834 23.3141 8.50279 21.9862 8.33735C20.0005 8.12541 17.9926 8.29564 16.0709 8.83885C9.55145 10.7081 8.12675 15.0904 7.8874 15.4324ZM17.6266 0.22797C17.4044 0.22797 17.0568 -0.199439 14.2985 0.13679C13.0172 0.313487 11.7632 0.650455 10.5658 1.13978C10.2467 1.32214 9.69962 2.19405 10.9078 2.35362C10.8166 2.35362 11.6657 2.23964 12.2641 2.04589C13.7847 1.65436 15.3406 1.41573 16.9086 1.33354C18.6125 1.23096 18.1623 0.290657 17.6266 0.22797Z" fill="white"/>
<path d="M22.3112 4.95863C19.741 4.79906 20.4705 4.10381 20.4705 4.10381C20.4705 4.10381 21.9522 2.96405 19.7866 2.65062C17.0113 2.22891 10.5888 3.98983 9.85932 4.45144C9.22105 4.84465 8.71956 4.88454 8.26936 4.45144C7.5741 3.76188 6.59391 4.94723 6.40015 5.27206C6.32037 5.39744 4.92986 7.68835 3.69893 10.0249C2.51928 12.2702 1.50489 14.5839 1.56188 14.7833C1.57697 14.8903 1.616 14.9925 1.67607 15.0823C1.73614 15.1721 1.8157 15.2472 1.90882 15.302C2.00194 15.3567 2.10622 15.3898 2.21389 15.3987C2.32156 15.4075 2.42984 15.392 2.53067 15.3532C2.79282 15.2962 3.01507 14.658 3.43108 13.7177C3.75591 12.9768 4.32579 11.7573 4.80449 10.8683C5.18631 10.1787 5.51114 9.59175 5.83027 9.01047C6.32607 8.14995 6.75348 7.40911 7.10111 7.40911C7.84684 7.39281 8.57548 7.18266 9.21536 6.79934C9.98336 6.20094 10.8412 5.72779 11.757 5.39744C13.8086 4.67939 16.7948 4.22348 17.0455 4.6224C17.433 5.22647 14.3671 5.59689 11.1757 7.53448C9.1073 8.78468 7.40045 10.5524 6.22349 12.6634C4.62783 15.4216 3.60205 17.2224 2.96378 18.2482C2.49051 18.9128 2.10726 19.6372 1.82402 20.4024C1.36812 21.884 -0.0679773 24.8018 0.000408221 25.3375C0.0687937 25.8732 0.678565 26.067 1.14017 25.5028C1.4036 25.1442 1.63437 24.7628 1.82972 24.363C2.22864 23.5709 2.71303 22.3286 3.20313 21.2971C3.97247 19.6558 4.7703 18.2254 4.91277 18.0146C5.05524 17.8037 6.12661 15.6325 7.5798 13.2732C7.9385 12.6184 8.34617 11.9916 8.79935 11.3983C9.67717 10.3365 10.7317 9.43419 11.9166 8.73123C14.0658 7.44735 16.4552 6.61727 18.9375 6.29215C20.574 6.12097 22.2281 6.28319 23.8002 6.769C25.3722 7.25481 26.8295 8.05415 28.0841 9.11875C31.2925 11.7516 32.0276 15.0227 32.9565 17.4561C33.6184 19.1559 34.3678 20.8203 35.2019 22.4425C35.8957 23.9403 36.7683 25.3487 37.8005 26.6368C38.718 27.5885 39.0314 26.8477 38.9802 26.2037C38.9289 25.5598 36.5069 22.357 34.1932 15.6952C33.931 14.9543 33.4979 14.2819 33.2871 13.5581C31.6344 7.9391 24.7674 5.12959 22.3112 4.95863Z" fill="white"/>
<path d="M37.726 30.8411C38.0509 31.0463 38.6891 32.2203 37.5494 32.169C36.9795 32.169 35.5605 31.2002 34.4207 29.6843C33.6856 28.7098 32.9676 27.0457 32.107 25.3874C31.4118 24.0596 30.8875 22.8115 30.3974 21.6091C29.1209 18.5488 28.2546 16.0642 26.2601 14.8104C24.4142 13.6257 22.252 13.0295 20.0598 13.1008C17.1248 13.2614 14.2989 14.2667 11.9219 15.9958C10.0056 17.4751 8.50384 19.4244 7.56233 21.6547C7.18621 22.7546 6.63343 23.9342 7.40276 23.5752C8.06508 22.7877 8.67249 21.9556 9.22068 21.0848C9.93835 20.04 10.7572 19.0684 11.6655 18.1841C12.5766 17.3071 13.6211 16.58 14.7599 16.03C15.999 15.4773 17.3122 15.1087 18.6579 14.9358C20.5556 14.6224 25.0861 16.2864 25.2571 17.1583C25.3771 17.5975 25.5697 18.0136 25.827 18.3893C26.0733 18.677 26.3709 18.9166 26.7046 19.0959C28.5852 20.4294 28.608 20.5833 29.4685 22.9198C29.7192 23.5923 30.5342 25.9744 31.2237 27.4789C31.9963 28.9216 32.9066 30.2861 33.942 31.5535C34.4321 32.1234 34.8937 32.7274 35.475 33.3201C36.0563 33.9128 36.6946 34.3288 36.9966 34.6251C37.5665 35.195 37.5665 35.7193 37.0536 35.9188C36.0962 36.2721 31.8164 31.8441 31.3548 31.1831C30.4461 29.9775 29.7042 28.6549 29.1494 27.2509C28.7975 26.3478 28.4987 25.4249 28.2546 24.487C27.9013 23.0566 27.7247 21.7744 26.545 20.7885C25.8749 20.2508 25.0977 19.8622 24.2655 19.6487C22.8737 19.3329 21.4456 19.2064 20.0199 19.2726C18.0221 19.3441 16.101 20.0598 14.5434 21.3128C12.8337 22.5608 10.6796 26.4417 10.6739 28.1513C10.6739 28.4761 10.5941 29.2113 10.5599 29.861C10.5143 30.8867 10.6568 31.7416 10.5599 32.3855C10.4516 33.3372 10.2237 34.0952 10.0641 34.9614C9.97069 35.5893 9.70875 36.1801 9.30616 36.671C8.95465 36.9747 8.63222 37.3105 8.34306 37.674C8.10941 38.0672 8.46844 38.6827 10.6226 39.0645C11.2608 39.1785 11.8421 39.2925 12.3322 39.3779C13.2041 39.5261 13.8367 39.1842 13.2953 38.5003C12.2068 37.1098 12.0017 37.1839 11.1526 32.4938C10.8106 30.5847 12.053 28.1912 12.9705 26.5158C13.888 24.8403 15.0961 22.4867 17.37 21.7288C18.0201 21.523 18.6946 21.4042 19.3759 21.3754C20.1118 21.3553 20.848 21.4011 21.5757 21.5122C22.1851 21.5713 22.7878 21.6858 23.3765 21.8541C23.9814 22.0268 24.5324 22.3503 24.9778 22.7944C25.9451 23.6959 26.7746 24.7347 27.4397 25.8775C27.8557 26.55 28.9214 28.8523 29.7192 30.2656C30.2036 31.1546 30.7735 31.9125 31.161 32.4824C31.857 33.5468 32.6183 34.5669 33.4406 35.5369C33.9249 36.1068 34.2441 36.5969 34.6601 37.0642C35.0761 37.5315 35.6802 38.0444 35.9822 38.3636C36.8826 39.3209 36.1931 39.7199 36.0848 39.8395C35.9765 39.9592 35.2756 40.1245 35.4465 40.8824C35.6175 41.6404 35.6346 42.3299 34.8425 42.5408C34.3635 42.7105 33.9222 42.9718 33.5431 43.3101C33.3266 43.5722 33.0245 44.1136 32.637 44.5752C32.2749 44.9924 31.8613 45.362 31.4061 45.6751C29.9631 46.9242 28.4402 48.0778 26.847 49.1286C23.738 51.2094 20.3392 52.8205 16.7602 53.9099C15.6855 54.2997 14.5771 54.5897 13.4492 54.7761C12.3094 54.8445 12.2581 54.2062 12.5887 53.7389C12.883 53.4663 13.2275 53.2534 13.6031 53.112C14.4579 52.7245 17.8885 51.8241 20.1681 50.6786C20.9146 50.3082 21.4275 50.1088 21.3933 49.8466C21.3591 49.5845 20.1054 49.9207 18.6864 50.2683C16.9231 50.658 15.1239 50.8624 13.3181 50.8781C12.314 50.871 11.3111 50.8044 10.3148 50.6786C8.6394 50.502 7.46545 50.2398 7.12922 49.8922C6.64482 49.3736 6.7759 48.9861 7.03804 48.8664C7.52814 48.6442 8.39435 48.9348 8.84456 49.0203C10.5233 49.2645 12.215 49.4092 13.9108 49.4534C15.2284 49.4227 16.5405 49.274 17.8316 49.0089C18.8387 48.8317 19.8326 48.5861 20.8063 48.2738C22.9519 47.5228 24.9757 46.4611 26.8129 45.1223C27.8864 44.3051 28.8084 43.306 29.5369 42.1703C29.84 41.6631 30.0956 41.1289 30.3005 40.5747C30.4316 40.2442 30.5456 40.0048 30.5855 39.8908C30.9616 38.8479 30.9217 36.0726 30.2834 35.5711C30.2435 35.5369 29.9415 35.5142 29.7762 37.0813C29.6558 37.9718 29.4845 38.8546 29.2633 39.7256C29.1569 40.3142 28.9809 40.8881 28.739 41.4352C28.2774 42.3356 27.3371 43.4013 25.3198 44.9058C24.4365 45.5611 20.4074 47.607 16.8001 47.5956C15.7401 47.5956 14.5206 47.6925 13.6486 47.6526C10.5143 47.5101 5.67033 46.7636 5.29421 46.3362C4.67874 45.5953 5.29421 45.1223 5.71022 45.1394C5.93247 45.1394 8.96993 45.6409 11.8478 45.8575C14.2926 46.0398 16.6633 45.9657 16.6633 45.9657C16.6633 45.9657 20.5841 46.1595 23.6899 44.0851C24.287 43.7015 24.8581 43.2789 25.3996 42.82C25.9906 42.289 26.515 41.6881 26.961 41.0306C27.5655 40.1916 27.9407 39.2095 28.0495 38.1812C28.3212 36.6576 28.2786 35.0945 27.9241 33.588C27.6791 32.699 27.3143 32.773 27.0921 34.0154C27.0038 35.5635 26.7243 37.0948 26.2601 38.5744C25.6446 40.5348 24.6302 41.8512 21.3534 43.3101C19.4785 44.1421 18.0538 44.1763 16.0364 44.1136C14.4465 44.068 12.8679 43.8572 12.5887 43.823C12.3094 43.7888 9.64239 43.3899 7.32868 43.0765C5.45378 42.8257 4.15445 42.8314 3.50479 42.5693C3.10587 42.4097 2.54169 41.4694 3.50479 41.1731C4.05021 41.1638 4.59497 41.2154 5.12894 41.3269C5.98376 41.4523 7.02094 41.5378 7.76179 41.629C9.47143 41.8512 10.5428 41.9709 12.6798 42.1988C15.6261 42.5408 17.9398 42.8599 19.8888 42.1988C21.9746 41.458 24.482 40.1473 25.1602 36.9047C25.1944 36.7451 25.3084 36.141 25.3825 35.4344C25.5012 34.1082 25.5336 32.7756 25.4793 31.4452C25.3098 30.4799 24.9804 29.5497 24.5048 28.6927C23.7811 27.5529 23.462 26.9831 22.7325 26.4987C21.6554 25.8148 21.154 26.3391 21.5529 26.7437C21.9518 27.1483 22.9377 27.57 23.4278 29.3993C23.8081 31.1212 23.8198 32.9041 23.462 34.6308C23.1722 35.9411 22.4927 37.1331 21.513 38.0501C20.2649 39.2982 18.9257 39.7256 18.0937 39.6629C17.6021 39.6124 17.1069 39.7138 16.6747 39.9535C16.4277 40.0948 16.2291 40.3073 16.1048 40.5633C15.7344 41.3326 15.3754 41.703 11.3463 40.8083C9.996 40.5258 8.66388 40.1623 7.35717 39.7199C5.87144 39.1873 4.32761 38.8333 2.75825 38.6656C1.32215 38.5174 1.72107 37.5258 1.70967 37.2238C1.69827 36.9218 1.99461 36.9673 1.17398 36.084C1.00794 35.886 0.916939 35.6358 0.916939 35.3774C0.916939 35.119 1.00794 34.8688 1.17398 34.6707C1.41333 34.3117 0.28497 33.833 0.797862 33.0124C1.31075 32.1918 4.35961 33.0751 5.28281 31.1375C5.65323 30.351 6.16613 28.043 4.36531 29.6558C2.9805 30.8924 0.769368 30.7956 0.547115 30.3624C0.482156 30.2762 0.440374 30.1747 0.425748 30.0677C0.411123 29.9606 0.424141 29.8517 0.463564 29.7511C0.502986 29.6506 0.567499 29.5618 0.650956 29.4932C0.734414 29.4247 0.834036 29.3786 0.940331 29.3595C1.26516 29.2056 3.21985 29.1714 3.74414 28.0145C3.91889 27.6679 4.0601 27.3053 4.16585 26.9318C4.29432 26.0204 4.50996 25.1235 4.80981 24.2533C5.22582 23.256 5.73872 22.0536 6.08064 21.3754C6.49666 20.5548 6.65052 19.7057 7.63641 18.4634C8.04103 17.9619 8.50263 17.3236 9.31186 16.4346C9.90521 15.7967 10.533 15.1917 11.1925 14.6224C12.4069 13.6331 13.8228 12.9213 15.3412 12.5366C17.3984 11.9211 21.3534 10.7757 25.9865 12.9925C29.4856 14.6623 30.3005 17.9676 31.6853 20.9366C32.1355 21.894 32.4832 22.8742 32.7624 23.4897C33.0248 24.1091 33.3275 24.7107 33.6685 25.2905C33.7882 25.5014 34.4948 27.0343 35.173 28.2026C35.4302 28.6636 35.7442 29.0905 36.1076 29.4734C36.6139 29.9672 37.1547 30.4243 37.726 30.8411ZM32.4832 38.2268C32.347 38.6831 32.2854 39.1584 32.3008 39.6344C32.2673 39.8809 32.2158 40.1247 32.1469 40.3638C32.0329 40.7001 31.8563 41.0021 31.6169 41.5321C31.4802 41.8341 31.4232 42.0678 31.3833 42.102C31.0812 42.518 31.3833 43.0993 31.9532 42.518C32.1898 42.2793 32.3708 41.9913 32.4832 41.6745C32.5509 41.3491 32.6365 41.0275 32.7396 40.7115C32.8566 40.4539 33.0276 40.2246 33.2411 40.039C33.6058 39.737 34.2042 39.5261 34.0731 38.9676C34.0103 38.7319 33.8967 38.5128 33.7401 38.3258C33.5836 38.1387 33.388 37.9882 33.167 37.8849C33.0309 37.8469 32.8856 37.8609 32.7592 37.9241C32.6329 37.9873 32.5345 38.0952 32.4832 38.2268ZM20.4758 16.7024C18.8524 16.4518 17.1914 16.6488 15.6717 17.2723C15.0977 17.5279 14.5562 17.8512 14.059 18.2354C13.1554 18.8593 12.3324 19.5924 11.6085 20.4181C10.7094 21.5142 9.9139 22.6913 9.23208 23.9342C8.01253 26.0428 7.27169 30.049 6.91267 30.9722C6.69516 31.9156 6.13192 32.7432 5.3341 33.2916C4.65302 33.7044 3.88324 33.9486 3.08878 34.004C1.44752 34.3003 2.0117 34.893 3.22555 35.1437C3.89231 35.2805 4.93519 35.6281 5.89258 35.8447C6.84998 36.0612 7.88146 36.1524 8.30887 35.4971C8.54933 35.1199 8.70129 34.6932 8.75338 34.249C8.84737 33.7451 8.89884 33.2342 8.90724 32.7217V30.5847C8.96993 29.8894 9.03832 29.217 9.08391 28.7611C9.16369 28.0031 8.95853 27.0514 10.3376 24.4072C11.7167 21.763 12.9135 20.6802 14.0134 19.8482C14.9029 19.1695 15.9037 18.6508 16.971 18.3152C18.204 17.949 19.4762 17.7309 20.7607 17.6655C21.8663 17.6085 22.0088 17.0216 20.4758 16.7024ZM17.8999 36.5627C17.4062 36.5835 16.913 36.51 16.4467 36.3462C15.4367 35.9476 14.5528 35.2842 13.888 34.4257C13.3181 33.9413 13.3181 34.9956 13.415 35.3945C13.4929 36.0268 13.7567 36.6218 14.1729 37.1041C14.6266 37.5012 15.1556 37.8028 15.7284 37.9907C16.3012 38.1787 16.906 38.2493 17.5067 38.1983C18.1506 38.195 18.7868 38.0592 19.3759 37.7994C19.9233 37.5403 20.3656 37.102 20.6297 36.557C21.0058 35.6167 19.8432 36.198 19.4272 36.312C18.9296 36.4545 18.417 36.5387 17.8999 36.5627ZM18.0196 34.5739C18.6127 34.6049 19.2037 34.4809 19.7343 34.2141C20.2649 33.9473 20.7169 33.5469 21.0457 33.0523C22.1854 31.1261 21.8093 29.3367 20.8006 28.2482C20.4163 27.8408 19.9419 27.529 19.4154 27.338C18.8889 27.147 18.325 27.0821 17.7689 27.1483C15.3127 27.496 14.7656 29.3139 15.0904 30.4536C15.3355 31.297 15.9567 32.1633 16.8457 32.2317C17.9854 32.3114 18.6009 31.9923 18.8288 31.5706C19.1936 30.8981 18.6693 29.9863 18.6579 30.2143C18.6711 30.4447 18.6071 30.6729 18.476 30.8628C18.3449 31.0527 18.1542 31.1935 17.9341 31.2629C17.6184 31.3961 17.2632 31.401 16.944 31.2765C16.6248 31.152 16.3666 30.9079 16.2245 30.5961C16.1116 30.3563 16.056 30.0935 16.0621 29.8286C16.0682 29.5636 16.1359 29.3037 16.2597 29.0693C16.3835 28.835 16.5601 28.6326 16.7755 28.4783C16.9909 28.3239 17.2393 28.2217 17.501 28.1798C17.9536 28.0409 18.4382 28.0464 18.8876 28.1955C19.3369 28.3446 19.7287 28.6299 20.0085 29.0118C20.4961 29.64 20.7237 30.4316 20.6441 31.2229C20.5646 32.0141 20.184 32.7446 19.5811 33.2631C18.9677 33.7648 18.1965 34.0333 17.4041 34.0211C16.667 34.0594 15.9438 33.8101 15.3868 33.3258C15.718 33.7015 16.1223 34.0059 16.5749 34.2205C17.0275 34.435 17.5191 34.5553 18.0196 34.5739ZM23.3651 23.5581C22.8806 23.3173 22.3614 23.1539 21.8264 23.0737C20.9844 22.8921 20.1221 22.8231 19.262 22.8685C18.4582 22.9082 17.6809 23.1677 17.0146 23.619C16.3483 24.0702 15.8187 24.6957 15.4837 25.4273C15.0676 26.567 16.1504 25.5812 16.5664 25.3646C17.0976 25.1168 17.6535 24.9257 18.2248 24.7947C19.1252 24.5782 19.9743 24.4585 20.4701 24.3844C21.4731 24.2305 22.8465 24.3844 24.6302 25.7692C24.7505 25.8687 24.8646 25.9752 24.9721 26.0883C25.411 26.1909 25.3255 25.7008 25.1089 25.4444C24.6719 24.6961 24.0768 24.0524 23.3651 23.5581ZM39.8916 18.4805C39.8927 18.7864 39.803 19.0858 39.6337 19.3406C39.4644 19.5954 39.2233 19.7943 38.9409 19.9119C38.6584 20.0295 38.3474 20.0605 38.0473 20.0011C37.7472 19.9417 37.4715 19.7945 37.2552 19.5782C37.0389 19.3619 36.8917 19.0862 36.8322 18.786C36.7728 18.4859 36.8039 18.1749 36.9215 17.8925C37.0391 17.6101 37.2379 17.3689 37.4928 17.1997C37.7476 17.0304 38.047 16.9407 38.3529 16.9418C38.761 16.9418 39.1524 17.1039 39.4409 17.3925C39.7295 17.681 39.8916 18.0724 39.8916 18.4805ZM37.0422 18.4805C37.0422 18.7395 37.1189 18.9926 37.2627 19.2081C37.4065 19.4235 37.6108 19.5915 37.85 19.6909C38.0892 19.7902 38.3524 19.8165 38.6065 19.7664C38.8606 19.7163 39.0942 19.592 39.2777 19.4093C39.4613 19.2265 39.5865 18.9935 39.6377 18.7396C39.689 18.4858 39.6638 18.2224 39.5655 17.9828C39.4672 17.7432 39.3 17.5381 39.0852 17.3934C38.8705 17.2487 38.6176 17.1709 38.3586 17.1697C38.1853 17.1682 38.0134 17.2012 37.853 17.2668C37.6926 17.3325 37.5469 17.4294 37.4244 17.5519C37.3018 17.6745 37.2049 17.8202 37.1393 17.9806C37.0737 18.141 37.0407 18.3129 37.0422 18.4862V18.4805ZM38.0623 19.3752H37.7716V17.5971H38.4783C38.5406 17.5908 38.6036 17.5975 38.6632 17.6169C38.7229 17.6363 38.7777 17.668 38.8244 17.7098C38.8711 17.7517 38.9085 17.8028 38.9343 17.8599C38.9601 17.9171 38.9736 17.979 38.9741 18.0417C38.9692 18.1451 38.9274 18.2433 38.8563 18.3186C38.7852 18.3939 38.6895 18.4412 38.5866 18.452C38.8088 18.452 38.8886 18.5488 38.9 18.9022C38.9076 19.0579 38.9305 19.2125 38.9684 19.3638H38.6834C38.6282 19.179 38.6032 18.9866 38.6094 18.7939C38.6059 18.7626 38.5961 18.7323 38.5806 18.7048C38.5651 18.6774 38.5442 18.6533 38.5192 18.6342C38.4942 18.615 38.4655 18.6011 38.435 18.5933C38.4045 18.5855 38.3727 18.5839 38.3415 18.5887H38.0566V19.3752H38.0623ZM38.0623 18.3551H38.427C38.4637 18.3561 38.5002 18.3493 38.534 18.335C38.5678 18.3207 38.5982 18.2994 38.623 18.2724C38.6479 18.2454 38.6666 18.2133 38.678 18.1784C38.6894 18.1436 38.6932 18.1066 38.6891 18.0701C38.6925 18.0344 38.688 17.9983 38.6762 17.9644C38.6643 17.9305 38.6454 17.8995 38.6205 17.8735C38.5956 17.8476 38.5655 17.8273 38.5321 17.814C38.4987 17.8008 38.4629 17.7948 38.427 17.7966H38.0623V18.3551Z" fill="white"/>
</g>
<defs>
<clipPath id="clip0_766_684">
<rect width="39.8916" height="59.2789" fill="white"/>
</clipPath>
</defs>
</svg>
