<svg width="52" height="52" viewBox="0 0 52 52" fill="none" xmlns="http://www.w3.org/2000/svg">
<g clip-path="url(#clip0_766_621)">
<path d="M25.5636 0.0507812C11.4424 0.0507812 -0.00195312 11.3472 -0.00195312 25.2806C-0.00195312 39.213 11.4424 50.5106 25.5636 50.5106C39.6806 50.5106 51.1306 39.213 51.1306 25.2806C51.1306 11.3472 39.6806 0.0507812 25.5636 0.0507812Z" fill="white"/>
<path d="M18.7396 24.2237C19.1985 22.4315 20.8158 21.1805 22.674 21.1805C24.5418 21.1805 26.1514 22.4283 26.6124 24.2237H18.7396ZM28.0416 25.3126C28.305 24.9893 28.4041 24.5663 28.3199 24.1205C27.9774 22.505 27.0962 21.211 25.772 20.3783C24.8624 19.8023 23.801 19.498 22.7021 19.498C21.4898 19.498 20.3356 19.8614 19.3641 20.549C17.8458 21.6243 16.9395 23.3808 16.9395 25.2481C16.9395 25.7168 16.9977 26.1821 17.1123 26.6309C17.6959 28.9047 19.6584 30.6244 21.9959 30.9102C22.2219 30.9371 22.4483 30.9508 22.6685 30.9508C23.1368 30.9508 23.5925 30.8913 24.0607 30.77C24.6696 30.6243 25.2496 30.3787 25.7852 30.0404C26.2912 29.7139 26.7573 29.2738 27.2474 28.6601L27.2795 28.627C27.4427 28.4242 27.5186 28.1634 27.4876 27.9118C27.4598 27.6865 27.3516 27.4921 27.1832 27.3645C27.0234 27.2418 26.833 27.1743 26.6473 27.1743C26.4662 27.1743 26.2005 27.2396 25.9599 27.5518L25.9411 27.5767C25.8617 27.6822 25.7795 27.7913 25.6851 27.8994C25.3611 28.2619 24.9887 28.5604 24.5792 28.7865C23.9928 29.0979 23.3591 29.2582 22.6975 29.2629C20.6189 29.2402 19.346 27.8625 18.8486 26.5828C18.7705 26.3524 18.7147 26.1421 18.6788 25.9471C18.6783 25.9273 18.6767 25.9066 18.6755 25.8863L26.7232 25.8849C27.2821 25.873 27.7504 25.6697 28.0416 25.3126Z" fill="black"/>
<path d="M39.7682 23.6934C38.9602 23.6934 38.3028 24.3464 38.3028 25.149C38.3028 25.9518 38.9602 26.6049 39.7682 26.6049C40.5748 26.6049 41.2309 25.9518 41.2309 25.149C41.2309 24.3464 40.5748 23.6934 39.7682 23.6934Z" fill="black"/>
<path d="M34.4301 20.4106C34.4301 19.9534 34.0549 19.5816 33.5948 19.5816L33.3596 19.5781C32.6457 19.5781 31.9708 19.7961 31.402 20.2092C31.2933 19.8747 30.9748 19.6395 30.6156 19.6395C30.1528 19.6395 29.7881 20.0008 29.7852 20.4622L29.7879 30.0137C29.791 30.4687 30.1628 30.8389 30.6171 30.8389C31.0741 30.8389 31.4461 30.4686 31.4461 30.0133V24.1392C31.4461 22.2361 31.6107 21.4405 33.2666 21.2366C33.404 21.2203 33.5514 21.2193 33.5889 21.2193C34.0763 21.2017 34.4301 20.8616 34.4301 20.4106Z" fill="black"/>
<path d="M12.5901 25.2086L16.8847 20.9184C17.0418 20.7649 17.1284 20.5586 17.1284 20.3375C17.1284 19.8811 16.7538 19.5098 16.2936 19.5098C16.0709 19.5098 15.8606 19.5977 15.7022 19.7568L11.4073 24.0254L7.09521 19.7489C6.93799 19.5948 6.72964 19.5098 6.50831 19.5098C6.0503 19.5098 5.67776 19.8811 5.67776 20.3375C5.67776 20.559 5.76666 20.7693 5.92807 20.9291L10.2258 25.2052L5.93455 29.4867C5.76897 29.644 5.67776 29.8553 5.67776 30.0813C5.67776 30.5375 6.0503 30.9089 6.50831 30.9089C6.72627 30.9089 6.93462 30.8243 7.09554 30.6701L11.403 26.3844L15.6919 30.65C15.8564 30.8183 16.07 30.911 16.2936 30.911C16.7538 30.911 17.1284 30.5388 17.1284 30.0813C17.1284 29.8629 17.0419 29.6558 16.885 29.498L12.5901 25.2086Z" fill="black"/>
<path d="M39.7675 29.1526C37.5489 29.1526 35.7441 27.3568 35.7441 25.1495C35.7441 22.9397 37.5489 21.1417 39.7675 21.1417C41.9838 21.1417 43.7867 22.9397 43.7867 25.1495C43.7867 27.3568 41.9838 29.1526 39.7675 29.1526ZM39.7685 19.4357C36.604 19.4357 34.0293 21.9988 34.0293 25.1492C34.0293 28.2987 36.604 30.8612 39.7685 30.8612C42.9316 30.8612 45.5049 28.2987 45.5049 25.1492C45.5049 21.9988 42.9316 19.4357 39.7685 19.4357Z" fill="black"/>
</g>
<defs>
<clipPath id="clip0_766_621">
<rect width="51.1326" height="51.1326" fill="white"/>
</clipPath>
</defs>
</svg>
