<?xml version="1.0" standalone="no"?>
<!DOCTYPE svg PUBLIC "-//W3C//DTD SVG 20010904//EN"
 "http://www.w3.org/TR/2001/REC-SVG-20010904/DTD/svg10.dtd">
<svg version="1.0" xmlns="http://www.w3.org/2000/svg"
 width="1024.000000pt" height="1024.000000pt" viewBox="0 0 1024.000000 1024.000000"
 preserveAspectRatio="xMidYMid meet">
<metadata>
Created by potrace 1.11, written by Peter Selinger 2001-2013
</metadata>
<g transform="translate(0.000000,1024.000000) scale(0.100000,-0.100000)"
fill="#000000" stroke="none">
<path d="M5220 9547 c0 -10 8 -17 18 -17 9 0 13 4 7 8 -5 4 -13 11 -17 16 -5
5 -8 2 -8 -7z"/>
<path d="M5268 9543 c7 -3 16 -2 19 1 4 3 -2 6 -13 5 -11 0 -14 -3 -6 -6z"/>
<path d="M5325 9528 c17 -6 39 -18 50 -27 11 -10 33 -25 48 -35 15 -9 31 -25
34 -34 3 -9 15 -27 26 -39 20 -22 12 -34 -9 -13 -5 5 -18 11 -29 13 -27 4 -85
39 -85 52 -1 5 -24 28 -53 49 l-52 40 33 -35 c17 -19 32 -38 32 -41 0 -3 -30
5 -66 18 -43 15 -87 24 -123 23 -37 0 -49 -3 -36 -8 29 -12 -46 -22 -193 -27
-73 -2 -142 -10 -168 -19 -53 -18 -114 -56 -114 -71 0 -7 -7 -15 -16 -18 -9
-3 -12 -2 -9 4 4 6 -9 2 -28 -7 -19 -10 -29 -19 -22 -21 10 -2 9 -8 -6 -23
-12 -12 -43 -22 -88 -29 -37 -5 -77 -13 -87 -17 -39 -14 -94 -56 -120 -92
l-27 -36 44 41 c49 46 122 84 160 84 18 0 20 -3 10 -9 -11 -7 -9 -10 10 -13
28 -5 17 -11 -47 -27 -48 -13 -110 -58 -118 -86 -3 -11 -24 -42 -46 -70 -23
-27 -56 -68 -73 -90 -18 -21 -42 -50 -55 -63 -13 -13 -39 -47 -58 -75 -20 -29
-42 -56 -50 -60 -8 -4 -14 -15 -14 -23 0 -8 -9 -25 -21 -37 -11 -12 -36 -56
-56 -97 -20 -42 -55 -95 -80 -121 -44 -46 -82 -106 -123 -199 -11 -25 -36 -76
-56 -114 -19 -37 -33 -75 -30 -83 3 -8 2 -12 -3 -9 -5 3 -12 -1 -15 -10 -3 -8
-2 -12 4 -9 13 8 13 -5 0 -25 -9 -13 -10 -13 -10 0 0 13 -1 13 -10 0 -5 -8 -9
-31 -8 -50 l1 -35 13 32 c8 17 18 34 24 38 13 8 13 8 -10 -52 -11 -29 -16 -54
-11 -57 5 -3 11 2 15 12 3 9 13 33 21 52 l15 35 -5 -35 c-3 -19 -6 -45 -5 -57
0 -12 -5 -25 -10 -28 -13 -8 -13 -65 0 -65 6 0 10 -17 11 -37 0 -28 2 -33 8
-19 17 43 19 -25 4 -117 -10 -65 -11 -97 -4 -109 6 -10 7 -36 2 -70 -9 -65 -6
-312 5 -329 6 -10 11 -5 20 16 11 27 12 27 22 9 6 -11 7 -26 3 -33 -4 -6 -2
-35 6 -64 7 -28 13 -61 13 -73 0 -22 27 -94 35 -94 2 0 3 40 2 88 l-3 88 27
-4 c21 -3 29 -11 34 -33 8 -37 23 -47 18 -11 -4 21 -2 24 6 12 6 -8 11 -24 11
-34 0 -11 6 -27 13 -35 7 -9 19 -45 26 -81 7 -36 16 -70 21 -75 5 -6 11 -60
15 -120 3 -61 8 -128 11 -150 22 -183 21 -257 -6 -294 -20 -29 -20 -31 -3 -38
35 -13 48 -33 35 -54 -16 -24 -15 -29 3 -29 9 0 16 -10 16 -25 1 -14 2 -39 3
-55 0 -17 7 -35 15 -39 8 -5 11 -16 8 -25 -6 -16 15 -80 24 -71 3 2 5 -12 5
-32 0 -20 5 -38 12 -41 7 -2 12 -8 12 -13 0 -6 -4 -8 -9 -5 -5 4 -7 -3 -4 -14
3 -11 9 -20 13 -20 5 0 12 -10 16 -22 3 -13 13 -31 22 -40 11 -13 12 -18 2
-18 -7 0 6 -19 29 -41 22 -23 41 -47 41 -54 0 -7 20 -33 45 -58 25 -26 45 -51
45 -57 0 -5 4 -10 8 -10 5 0 15 -12 23 -27 8 -16 21 -35 29 -43 8 -8 22 -28
30 -44 16 -32 54 -73 85 -94 20 -13 20 -13 0 -7 -15 4 -13 -1 10 -21 17 -14
41 -35 54 -47 14 -12 21 -16 17 -9 -4 7 -2 12 7 12 14 0 29 -22 31 -45 1 -5
16 -9 34 -7 33 4 38 -3 34 -53 -1 -11 1 -15 5 -10 9 13 19 12 53 -3 18 -8 20
-11 8 -11 -10 -1 -18 -8 -18 -16 0 -11 5 -12 26 -5 35 14 42 12 20 -5 -16 -12
-17 -17 -6 -31 9 -10 23 -14 41 -10 18 3 36 -2 60 -20 18 -13 41 -24 52 -24
10 0 16 -4 13 -9 -3 -5 10 -12 29 -15 20 -4 33 -11 30 -17 -9 -13 19 -11 33 3
9 9 12 9 12 -1 0 -7 4 -10 9 -6 5 3 12 -4 16 -15 7 -22 20 -26 30 -10 9 14 35
12 35 -3 0 -7 13 -12 32 -12 23 0 35 -6 43 -21 8 -16 15 -19 30 -13 29 11 35
11 35 -2 0 -7 8 -18 17 -24 17 -12 17 -14 -2 -36 l-20 -22 23 12 23 12 -16
-28 -17 -28 21 25 c12 14 26 31 32 38 6 7 14 11 17 7 4 -3 0 -10 -8 -15 -10
-6 -11 -10 -3 -10 9 0 10 -7 3 -25 -6 -15 -6 -26 0 -30 6 -4 10 3 10 14 0 11
5 23 10 26 6 4 8 11 5 16 -4 5 1 9 10 9 14 0 15 -2 1 -21 -8 -12 -12 -27 -10
-34 7 -18 -25 -42 -35 -27 -5 9 -11 5 -19 -13 -15 -32 -30 -32 -34 0 l-3 25
-12 -25 c-6 -14 -7 -23 -2 -19 5 3 9 -9 9 -26 0 -18 -4 -29 -10 -25 -5 3 -10
1 -10 -5 0 -12 -7 -22 -57 -77 -18 -20 -30 -40 -27 -44 2 -4 -10 -19 -28 -33
-18 -14 -27 -26 -19 -26 11 0 9 -5 -5 -21 l-19 -22 65 7 c73 7 170 34 170 47
0 5 7 9 16 9 9 0 12 5 8 12 -5 7 -2 9 8 5 20 -7 18 21 -2 33 -12 7 -11 10 5
15 34 11 119 56 140 75 28 24 50 36 41 22 -9 -16 -5 -15 33 4 18 9 35 13 38
10 3 -3 12 2 19 12 9 11 13 13 14 4 0 -7 5 -10 12 -6 7 4 8 3 4 -5 -4 -6 -12
-9 -17 -6 -5 4 -9 0 -9 -8 0 -7 -11 -20 -25 -27 -14 -7 -23 -15 -20 -18 2 -3
11 0 18 6 18 16 87 24 87 11 0 -6 9 -8 20 -4 12 4 20 2 20 -6 0 -8 4 -8 16 2
13 11 14 9 9 -14 -5 -17 -3 -27 4 -27 6 0 11 5 11 10 0 6 6 5 14 -2 33 -31 5
-52 -169 -127 -102 -45 -320 -93 -502 -112 -132 -13 -243 -3 -401 36 -203 52
-320 117 -480 269 -72 68 -81 89 -98 206 -8 55 -23 158 -30 200 -10 61 -10
181 0 322 5 65 5 161 1 213 l-7 95 -31 -22 c-107 -76 -187 -186 -237 -328 -34
-95 -125 -190 -182 -190 -38 0 -180 -59 -221 -91 -21 -17 -75 -43 -120 -59
-237 -82 -511 -186 -602 -229 -33 -15 -89 -41 -125 -56 -101 -45 -226 -112
-323 -174 -96 -61 -304 -207 -325 -228 -7 -7 -20 -13 -27 -13 -29 0 -82 -57
-140 -149 -6 -9 -18 -27 -27 -41 -19 -28 -83 -190 -104 -265 -8 -27 -28 -108
-43 -180 -16 -71 -47 -200 -69 -285 -47 -181 -89 -378 -131 -615 -17 -93 -42
-228 -55 -300 -13 -71 -41 -220 -61 -330 -75 -416 -97 -535 -131 -705 -28
-140 -37 -213 -44 -365 -8 -171 -17 -295 -50 -682 -5 -67 -7 -135 -5 -150 3
-15 2 -65 -3 -109 -4 -45 -6 -87 -4 -93 3 -8 1102 -11 4114 -11 l4111 0 -7 43
c-7 52 -22 214 -36 412 -6 83 -13 175 -16 205 -8 92 -87 630 -108 744 -8 42
-12 101 -9 144 10 132 -15 270 -108 597 -32 116 -97 365 -144 555 -47 189
-100 401 -120 470 -19 69 -59 217 -90 330 -30 113 -73 268 -95 345 -22 77 -50
174 -61 215 -14 49 -42 107 -82 170 -33 52 -73 120 -89 150 -45 81 -113 156
-169 183 -27 14 -73 41 -102 60 -295 196 -405 240 -907 363 -151 37 -349 86
-439 108 l-165 41 -16 66 c-15 63 -21 71 -113 165 -54 55 -116 118 -140 142
-35 36 -142 115 -169 124 -4 2 -5 36 -1 76 5 58 11 77 30 96 15 16 20 27 13
31 -7 4 -8 11 -2 18 5 7 8 21 6 32 -2 11 4 30 12 42 7 12 14 36 14 53 0 17 6
33 14 36 9 3 19 33 26 74 9 52 16 71 30 75 31 10 78 72 91 117 11 42 8 103 -6
143 -6 16 -4 16 10 -4 l18 -23 18 29 c10 16 27 72 38 124 10 52 35 136 55 187
21 53 41 126 46 169 7 52 16 83 29 97 11 12 24 41 30 66 12 59 7 459 -8 529
-12 61 -8 74 15 45 8 -10 13 -14 10 -7 -4 6 -1 13 6 15 17 6 -5 144 -33 205
-11 25 -23 61 -26 79 -3 19 -26 59 -53 91 -40 51 -68 103 -54 103 3 0 15 -7
28 -15 13 -9 43 -18 67 -21 23 -3 51 -10 61 -15 14 -7 16 -6 12 6 -4 8 -1 15
6 15 6 0 -7 19 -30 43 -22 23 -52 60 -66 83 -23 39 -23 43 -9 70 17 34 19 60
5 69 -17 10 -39 72 -33 93 5 21 -19 65 -54 97 -12 11 -34 45 -49 75 -15 30
-34 59 -41 63 -7 4 -22 25 -33 46 -11 22 -25 45 -33 52 -29 31 -55 76 -61 109
l-7 35 20 -25 c27 -33 26 -21 -2 38 -47 98 -111 197 -115 179 -2 -9 8 -31 21
-47 29 -34 67 -129 67 -167 0 -21 -2 -24 -15 -13 -20 17 -19 1 2 -22 9 -10 11
-18 5 -18 -5 0 -26 23 -46 50 -27 37 -36 61 -37 93 -1 23 -5 53 -9 67 -6 20
-9 14 -10 -30 -3 -48 -4 -51 -9 -20 -8 47 -71 159 -94 166 -10 3 -16 11 -14
18 3 6 -4 13 -14 13 -11 1 -32 11 -48 22 -16 12 -34 21 -41 21 -6 0 -8 6 -4
13 4 6 4 9 0 5 -18 -15 -216 94 -254 141 -7 9 -17 16 -22 16 -6 0 -25 12 -44
27 -65 52 -109 78 -130 77 -16 0 -15 -3 9 -11z m-406 -77 c9 -6 10 -11 2 -15
-14 -9 -51 2 -51 15 0 11 30 12 49 0z m-209 -66 c-7 -8 -27 -15 -44 -15 l-31
1 30 14 c43 19 61 19 45 0z m47 9 c-3 -3 -12 -4 -19 -1 -8 3 -5 6 6 6 11 1 17
-2 13 -5z m-254 -181 c-7 -2 -21 -2 -30 0 -10 3 -4 5 12 5 17 0 24 -2 18 -5z
m1037 -34 c0 -16 -15 -9 -34 17 l-19 26 27 -17 c14 -10 26 -21 26 -26z m180
-46 c0 -26 -16 -12 -37 35 l-22 47 30 -35 c16 -19 29 -40 29 -47z m-1240 61
c0 -10 -28 -34 -39 -34 -6 0 -11 5 -11 10 0 7 -6 7 -19 0 -11 -5 -30 -10 -42
-10 -12 0 -31 -7 -41 -17 -10 -9 -18 -12 -18 -6 0 15 38 46 48 39 5 -3 15 1
22 9 12 14 100 22 100 9z m1586 -338 c4 -11 15 -29 25 -40 21 -22 24 -36 9
-36 -5 0 -10 4 -10 8 0 5 -8 17 -18 28 -40 43 -69 90 -65 103 6 15 48 -30 59
-63z m284 -427 c0 -24 -23 -21 -28 4 -2 10 3 17 12 17 10 0 16 -9 16 -21z
m-60 7 c0 -2 3 -11 6 -19 3 -10 0 -15 -8 -13 -22 3 -39 17 -33 27 6 9 35 13
35 5z m-1120 -140 c19 0 38 -5 42 -11 4 -5 8 -1 8 10 1 18 1 19 11 3 7 -12 6
-24 -1 -38 -9 -16 -8 -18 5 -14 9 4 13 9 11 12 -3 3 -1 11 5 19 14 17 59 17
60 1 0 -9 2 -9 5 -2 6 13 54 6 54 -8 0 -5 9 -6 20 -3 21 7 29 -11 8 -18 -7 -2
-6 -3 2 -2 8 2 22 6 31 9 9 4 23 1 31 -7 8 -9 29 -13 51 -12 26 2 37 -1 37
-10 0 -8 7 -11 19 -8 14 3 19 0 17 -11 -1 -8 -5 -19 -9 -22 -4 -4 -7 -12 -7
-17 0 -5 8 1 19 14 l18 23 8 -25 c7 -23 37 -58 52 -61 34 -6 40 -11 35 -31 -4
-16 -2 -19 11 -14 10 4 17 2 17 -4 0 -5 -7 -12 -15 -15 -12 -5 -13 -10 -4 -20
13 -16 33 -19 24 -4 -3 6 1 7 10 4 20 -8 47 -58 37 -70 -4 -5 0 -3 8 4 11 9
11 15 2 24 -17 17 -15 29 3 22 20 -8 19 -48 -1 -79 -15 -23 -15 -25 0 -25 10
0 13 -6 10 -17 -5 -15 -4 -16 5 -3 6 9 7 18 1 24 -16 16 -11 24 11 19 11 -3
18 -11 15 -18 -3 -8 2 -16 10 -19 8 -3 14 -13 14 -22 0 -12 6 -15 21 -11 16 4
19 3 11 -5 -7 -7 -8 -16 -2 -23 14 -17 0 -54 -24 -61 -21 -7 -21 -8 3 -14 14
-3 27 -12 29 -20 5 -13 3 -13 -11 -1 -15 12 -17 11 -17 -3 0 -9 -5 -16 -11
-16 -6 0 -9 7 -6 14 4 10 1 13 -9 9 -12 -4 -12 -8 -2 -20 10 -12 9 -17 -5 -24
-19 -11 -24 -34 -4 -24 6 4 4 0 -6 -8 -17 -14 -16 -15 4 -20 11 -3 18 -10 14
-16 -3 -7 0 -8 9 -5 12 5 13 11 6 24 -15 29 -12 37 5 13 18 -26 16 -76 -2 -69
-16 6 -17 -1 -3 -17 6 -7 22 -25 36 -42 36 -43 46 -63 34 -70 -5 -3 -6 -13 -3
-22 4 -10 2 -14 -4 -10 -6 4 -18 -2 -28 -13 -10 -11 -25 -20 -33 -20 -12 0
-12 -3 -2 -15 11 -13 10 -14 -4 -9 -9 4 -16 1 -16 -6 0 -7 -6 -10 -14 -7 -8 3
-17 -1 -20 -10 -4 -9 -13 -13 -22 -9 -8 3 -13 2 -10 -3 3 -4 -21 -8 -54 -7
-33 0 -60 5 -60 10 0 4 -7 3 -15 -4 -8 -7 -23 -9 -37 -4 -19 6 -82 14 -113 15
-35 1 -99 -12 -105 -21 -4 -6 -14 -8 -23 -4 -12 4 -17 1 -17 -10 0 -9 -8 -16
-20 -16 -11 0 -20 -7 -20 -15 0 -9 -10 -19 -22 -24 -37 -14 -54 -42 -68 -111
-7 -36 -19 -74 -26 -85 -11 -17 -13 -85 -4 -175 2 -23 -4 -44 -15 -52 -7 -5
-7 -10 0 -15 19 -15 36 -53 24 -53 -7 0 -5 -8 5 -19 10 -11 15 -24 12 -29 -3
-6 -3 -18 0 -27 6 -13 9 -14 16 -3 5 8 6 2 2 -17 -4 -16 -13 -34 -21 -38 -14
-9 -38 -56 -35 -69 2 -7 -13 -12 -30 -9 -4 0 -32 -24 -63 -54 l-56 -55 28 -11
c15 -6 39 -14 52 -18 40 -12 38 -31 -3 -29 -20 2 -36 6 -36 9 0 4 -11 10 -24
13 -13 3 -46 16 -73 28 -26 12 -51 21 -55 20 -5 -1 -8 3 -8 9 0 5 -5 7 -12 3
-16 -10 -58 -12 -52 -2 2 3 0 9 -6 13 -13 8 -52 -4 -45 -15 3 -4 -5 -10 -16
-13 -15 -4 -19 -2 -15 9 10 26 -13 15 -30 -15 -18 -30 -60 -47 -67 -27 -3 7
-9 6 -21 -3 -13 -11 -20 -11 -28 -3 -9 9 -9 12 0 12 6 0 9 6 6 13 -6 17 49 99
108 159 44 45 63 88 37 88 -5 0 -7 -4 -4 -10 3 -5 0 -7 -8 -4 -8 3 -21 -2 -30
-10 -9 -9 -20 -16 -26 -16 -8 0 -102 -85 -146 -131 -5 -6 -27 -28 -48 -50 -21
-21 -35 -43 -32 -48 3 -5 -3 -16 -13 -23 -11 -7 -22 -23 -26 -35 -4 -13 -10
-22 -14 -22 -19 3 -33 -2 -28 -10 3 -4 -3 -8 -14 -7 -11 0 -19 -3 -19 -8 0 -5
-3 -12 -8 -15 -4 -3 -17 -17 -28 -30 l-20 -24 27 5 c25 5 27 3 21 -26 -9 -53
-53 -104 -53 -63 0 8 -11 20 -25 27 -14 7 -25 18 -25 23 0 5 -7 4 -15 -3 -13
-10 -15 -9 -15 12 0 31 -10 41 -27 27 -9 -9 -13 -8 -13 0 0 6 -9 11 -20 11
-16 0 -19 5 -16 24 5 27 -15 41 -33 23 -14 -14 -14 -2 -1 24 8 13 7 19 0 19
-6 0 -8 5 -4 12 5 8 2 9 -11 4 -15 -5 -16 -4 -5 9 10 12 10 15 -4 15 -10 0
-14 5 -11 10 3 6 2 10 -3 10 -11 0 -32 68 -32 103 0 39 -10 59 -24 48 -9 -8
-13 -2 -14 22 0 17 -5 55 -11 82 -26 125 -29 170 -26 322 2 90 7 168 11 174 3
6 8 28 9 48 29 389 54 541 95 566 5 3 15 16 21 28 6 12 -5 4 -25 -18 -44 -50
-47 -33 -4 26 34 49 48 60 60 53 5 -3 8 -2 7 3 -1 4 -1 17 0 28 1 15 3 17 10
6 6 -10 16 -2 36 33 15 25 31 46 36 46 5 0 13 8 16 17 10 26 45 63 59 63 7 0
15 9 19 19 9 28 34 34 160 36 61 2 121 8 135 14 23 10 23 11 -7 5 -18 -3 -33
-1 -33 4 0 5 28 12 63 15 59 5 144 37 222 86 17 10 35 16 41 14 7 -2 15 1 19
7 5 9 10 9 14 1 7 -11 81 6 92 21 3 5 19 11 35 14 16 3 31 7 34 10 2 3 14 2
25 -2 11 -3 36 -7 55 -8z m-410 -82 c-21 -25 -50 -37 -50 -21 0 10 27 27 59
36 2 1 -2 -6 -9 -15z m-85 -34 c-3 -5 -16 -10 -28 -9 -21 0 -21 1 -2 9 28 12
37 12 30 0z m-62 -17 c-7 -2 -19 -2 -25 0 -7 3 -2 5 12 5 14 0 19 -2 13 -5z
m-65 -30 c-10 -2 -28 -2 -40 0 -13 2 -5 4 17 4 22 1 32 -1 23 -4z m1226 -74
c-4 -8 -3 -9 4 -5 7 4 12 1 12 -8 0 -8 -5 -18 -10 -21 -11 -7 -14 0 -25 49 -5
26 -5 27 10 12 9 -9 13 -21 9 -27z m-2114 -24 c0 -8 -4 -15 -10 -15 -5 0 -7 7
-4 15 4 8 8 15 10 15 2 0 4 -7 4 -15z m490 -94 c0 -5 -7 -12 -16 -15 -14 -5
-15 -4 -4 9 14 17 20 19 20 6z m-138 -183 c-7 -7 -12 -8 -12 -2 0 14 12 26 19
19 2 -3 -1 -11 -7 -17z m2495 -85 c-3 -10 -5 -2 -5 17 0 19 2 27 5 18 2 -10 2
-26 0 -35z m-2531 -28 c-8 -33 -26 -32 -26 1 0 14 4 23 10 19 6 -3 10 -1 10 6
0 7 3 10 6 6 4 -3 4 -18 0 -32z m-26 -45 c0 -5 -5 -10 -11 -10 -5 0 -7 5 -4
10 3 6 8 10 11 10 2 0 4 -4 4 -10z m2063 -167 c-5 -15 -3 -16 7 -6 11 10 16 7
27 -14 18 -34 18 -94 -1 -87 -8 3 -11 15 -8 30 2 13 0 24 -5 24 -5 0 -9 -16
-10 -35 -1 -19 3 -33 7 -30 5 3 11 1 15 -5 7 -11 -5 -13 -29 -4 -9 3 -14 10
-11 14 3 5 1 11 -4 14 -5 3 -5 21 -1 41 4 20 6 44 3 55 -3 11 0 20 6 20 6 0 8
-8 4 -17z m-228 -123 c3 -5 -1 -10 -9 -10 -8 0 -18 5 -21 10 -3 6 1 10 9 10 8
0 18 -4 21 -10z m298 -89 c-12 -8 -10 -62 2 -57 6 2 9 9 7 15 -1 7 2 10 8 6 5
-3 10 -13 10 -21 0 -8 5 -14 12 -14 6 0 9 -2 6 -6 -3 -3 -2 -22 3 -42 39 -160
47 -273 25 -357 -20 -75 -35 -155 -36 -187 0 -20 -4 -40 -10 -43 -5 -3 -10 -1
-10 5 0 7 -5 6 -14 -2 -12 -11 -12 -14 1 -22 13 -7 13 -10 2 -18 -11 -7 -11
-11 -2 -15 10 -3 10 -8 -1 -19 -19 -18 -26 -18 -26 2 0 10 -6 14 -15 10 -8 -3
-15 -1 -15 3 0 5 -3 17 -7 27 -4 12 -3 15 5 10 7 -4 12 -1 12 9 0 9 4 14 9 11
5 -3 11 0 14 8 4 10 -3 12 -26 10 -18 -2 -27 0 -21 4 15 10 25 64 10 59 -6 -2
-19 0 -29 5 -17 9 -17 11 -2 34 8 13 11 24 6 24 -5 0 -18 3 -28 6 -15 5 -15 4
-3 -5 12 -8 12 -11 1 -11 -10 0 -11 -3 -2 -14 8 -10 9 -16 1 -21 -6 -4 -10
-12 -9 -18 3 -27 -2 -37 -18 -37 -13 0 -14 -3 -5 -12 17 -17 15 -39 -3 -32 -8
4 -15 12 -15 20 0 16 -16 19 -25 4 -3 -6 -6 -28 -7 -49 0 -30 -5 -41 -22 -49
-15 -8 -17 -11 -6 -13 8 -1 0 -4 -19 -8 -33 -6 -34 -7 -17 -24 13 -13 15 -21
7 -31 -6 -7 -7 -17 -3 -21 4 -5 -1 -5 -10 -2 -12 4 -15 2 -11 -9 3 -7 0 -14
-6 -14 -6 0 -11 5 -11 11 0 5 -4 8 -9 4 -5 -3 -12 -1 -15 4 -3 4 -19 11 -36
14 -28 6 -38 12 -74 44 -8 7 -15 10 -18 8 -2 -2 -12 9 -23 26 -11 16 -28 32
-37 35 -18 5 -23 21 -20 57 2 18 -33 74 -82 132 -14 17 -29 35 -34 40 -5 6 -7
16 -4 24 2 7 0 16 -6 20 -11 7 -32 90 -46 184 -7 41 0 44 54 26 26 -9 34 -9
41 2 6 10 -1 19 -26 32 -31 15 -35 22 -32 51 1 19 6 32 10 29 4 -3 14 1 22 7
10 9 40 10 102 5 93 -8 166 -13 196 -14 10 -1 16 -5 12 -10 -3 -5 5 -11 17
-13 21 -3 21 -4 3 -18 -10 -8 -16 -10 -12 -3 5 7 -4 6 -23 -3 -45 -23 -37 -34
25 -34 67 0 74 -17 8 -18 -27 0 -66 -5 -88 -10 -36 -8 -30 -9 54 -13 83 -4 95
-2 99 14 4 17 23 23 35 10 4 -3 20 -7 36 -7 28 -1 28 0 14 17 -15 16 -15 17 3
17 10 0 29 3 41 6 17 5 22 2 21 -12 0 -11 3 -28 7 -38 7 -16 5 -18 -18 -14
-15 3 -24 1 -21 -3 3 -5 13 -9 22 -10 11 0 7 -5 -10 -13 -22 -9 -25 -15 -16
-24 15 -15 6 -24 -25 -26 -14 0 -23 -5 -20 -9 3 -4 -1 -15 -9 -24 -11 -15 -11
-16 4 -10 18 6 35 -8 20 -17 -19 -11 -1 -76 20 -76 7 0 7 4 -1 13 -6 8 -7 18
-3 22 4 5 1 5 -7 0 -10 -5 -12 -4 -7 4 4 6 12 9 17 5 5 -3 7 -10 4 -15 -4 -5
-1 -9 4 -9 15 0 14 -28 -1 -33 -7 -2 -4 -3 8 -1 11 2 29 -3 40 -10 37 -26 61
-28 67 -6 3 13 1 18 -6 13 -17 -11 -41 -10 -49 2 -14 18 -8 26 11 15 27 -14
31 -13 24 7 -4 10 -2 14 5 9 15 -9 23 7 27 61 2 27 -2 61 -11 82 -9 20 -16 52
-16 71 0 19 -5 39 -11 43 -7 5 -3 7 11 4 17 -4 21 -2 14 6 -17 22 -23 67 -10
67 7 0 5 5 -5 11 -17 10 -17 12 -2 36 13 20 14 28 4 37 -9 8 -10 8 -5 -1 3 -6
2 -14 -3 -18 -13 -7 -5 33 9 49 5 7 7 16 4 19 -11 10 5 39 17 31 6 -3 7 -9 2
-13z m-342 -12 c31 -16 12 -29 -34 -25 -23 3 -66 5 -94 5 -51 1 -71 15 -35 24
34 9 144 7 163 -4z m-208 -46 c-7 -2 -19 -2 -25 0 -7 3 -2 5 12 5 14 0 19 -2
13 -5z m67 -32 c0 -14 -18 -23 -30 -16 -6 4 -8 11 -5 16 8 12 35 12 35 0z
m390 -287 c0 -8 -5 -12 -10 -9 -6 4 -8 11 -5 16 9 14 15 11 15 -7z m-20 -34
c0 -5 -2 -10 -4 -10 -3 0 -8 5 -11 10 -3 6 -1 10 4 10 6 0 11 -4 11 -10z
m-130 -511 c0 -5 -9 -9 -20 -9 -22 0 -27 16 -7 23 15 5 27 -1 27 -14z m-1064
-145 c7 19 36 21 64 4 15 -10 22 -10 32 0 17 17 38 15 60 -5 14 -13 21 -14 30
-5 18 18 59 15 101 -7 20 -10 40 -15 43 -10 3 5 23 9 44 9 40 0 70 -20 70 -47
0 -11 5 -9 18 7 13 17 24 21 40 16 12 -4 22 -14 22 -22 0 -41 -54 -89 -71 -63
-7 11 -12 9 -24 -8 -12 -17 -26 -23 -51 -23 -21 0 -33 -4 -29 -10 3 -5 42 -10
86 -10 78 0 90 -5 67 -28 -9 -9 -9 -12 0 -12 9 0 10 -5 3 -19 -14 -26 -4 -32
38 -25 32 6 35 5 23 -9 -8 -9 -10 -22 -6 -29 6 -10 5 -10 -7 -1 -20 16 -71 4
-76 -18 -3 -11 -10 -19 -15 -19 -5 0 -6 6 -2 13 6 9 4 9 -8 -1 -9 -7 -19 -9
-22 -4 -7 12 -88 7 -114 -7 -30 -16 -52 -13 -53 7 -1 16 -2 16 -6 0 -5 -20
-16 -22 -43 -8 -12 7 -28 7 -44 0 -18 -6 -26 -6 -26 1 0 6 -12 9 -28 8 -15 -2
-33 0 -40 5 -8 5 -18 2 -26 -10 -8 -10 -18 -14 -26 -9 -9 5 -11 4 -6 -4 4 -6
0 -14 -8 -17 -9 -3 -16 -14 -16 -23 0 -9 -5 -22 -10 -29 -6 -6 -7 -10 -4 -7 9
6 34 -14 34 -27 0 -5 -4 -6 -10 -3 -5 3 -10 -1 -10 -10 0 -11 -7 -15 -22 -13
-13 2 -22 9 -20 17 2 9 -3 11 -13 7 -9 -3 -22 0 -29 7 -15 15 -16 79 -1 73 18
-6 55 13 55 29 0 17 -16 20 -25 5 -3 -5 -16 -10 -29 -10 -12 0 -27 -5 -34 -12
-9 -9 -12 -8 -12 5 0 9 -5 17 -12 17 -6 0 -9 3 -5 6 3 4 -1 13 -9 21 -8 9 -13
22 -9 31 4 11 2 12 -7 5 -8 -7 -22 -7 -35 -2 -27 10 -27 50 -1 57 21 5 24 22
4 22 -15 0 -11 35 7 58 7 8 7 16 1 20 -17 13 -12 40 10 52 19 9 32 7 77 -13
117 -53 139 -57 125 -21 -5 13 -9 14 -21 4 -19 -16 -31 -7 -45 35 -8 25 -8 39
0 55 11 21 13 21 31 4 17 -15 19 -15 25 0z m724 -230 c0 -2 -7 -4 -15 -4 -8 0
-15 4 -15 10 0 5 7 7 15 4 8 -4 15 -8 15 -10z m-670 -243 c0 -6 -5 -13 -11
-17 -7 -4 -1 -12 17 -20 19 -9 21 -12 7 -8 -13 3 -23 1 -23 -4 0 -5 -18 -14
-40 -20 -22 -5 -40 -6 -40 -2 0 4 -11 5 -25 2 -15 -2 -25 0 -25 7 0 6 6 11 14
11 8 0 16 7 20 15 3 8 14 15 25 15 10 0 21 7 25 15 6 16 56 21 56 6z m80 -45
c0 -3 -4 -8 -10 -11 -5 -3 -10 -1 -10 4 0 6 5 11 10 11 6 0 10 -2 10 -4z m-30
-21 c0 -2 -13 -11 -30 -20 -31 -16 -43 -3 -12 14 18 11 42 14 42 6z m1130 -32
c0 -20 -3 -24 -11 -16 -7 7 -9 19 -6 27 10 24 17 19 17 -11z m-997 -18 c4 -8
1 -17 -5 -21 -7 -4 -8 -3 -4 4 4 7 2 12 -3 12 -6 0 -11 5 -11 10 0 15 17 12
23 -5z m-73 -25 c0 -11 -7 -20 -15 -20 -15 0 -21 21 -8 33 12 13 23 7 23 -13z
m97 -12 c-3 -8 -6 -5 -6 6 -1 11 2 17 5 13 3 -3 4 -12 1 -19z m-57 1 c0 -6 7
-8 16 -5 19 7 9 -11 -14 -23 -14 -7 -17 -4 -17 15 0 13 3 24 8 24 4 0 7 -5 7
-11z m-73 -71 c-2 -13 -4 -5 -4 17 -1 22 1 32 4 23 2 -10 2 -28 0 -40z m343
-598 c0 -5 -4 -10 -10 -10 -5 0 -10 5 -10 10 0 6 5 10 10 10 6 0 10 -4 10 -10z
m83 -124 c-3 -4 -9 -2 -14 5 -13 22 -11 31 5 17 8 -7 12 -17 9 -22z m477 -161
c-7 -8 -17 -15 -23 -15 -6 0 -2 7 9 15 25 19 30 19 14 0z m-1566 -877 c-10
-13 -20 -25 -21 -27 -2 -2 -3 1 -3 7 0 11 27 42 37 42 3 0 -2 -10 -13 -22z
m53 -4 c-3 -3 -12 -4 -19 -1 -8 3 -5 6 6 6 11 1 17 -2 13 -5z m28 -84 c-12
-13 -29 -19 -49 -18 l-31 1 32 4 c17 2 37 11 43 19 7 8 15 14 18 14 3 0 -3 -9
-13 -20z m1320 -642 c-2 -35 -4 -107 -4 -161 l-1 -97 -532 2 -533 3 -3 30 c-2
17 -1 85 3 152 l7 123 382 2 c209 2 449 4 533 6 l152 3 -4 -63z m-1549 -260
c11 -13 12 -17 3 -11 -8 7 -26 17 -40 22 -22 9 -22 10 -3 10 11 1 29 -9 40
-21z m-68 -109 c11 0 13 -2 4 -6 -14 -6 -52 24 -52 41 0 6 7 0 16 -12 8 -12
23 -22 32 -23z m1477 -130 c168 -33 162 -29 169 -118 4 -42 11 -119 16 -171
21 -216 30 -361 29 -465 -2 -289 10 -1333 16 -1358 l7 -28 -58 3 -59 3 -11 53
c-7 30 -15 101 -19 159 -7 103 -8 106 -23 77 -42 -82 -136 -166 -251 -223
-186 -94 -500 -107 -728 -31 -224 75 -379 240 -419 447 -18 95 -18 149 1 259
22 125 63 204 149 289 137 136 314 194 681 225 324 27 475 40 524 46 l53 6 -5
106 c-6 130 -16 167 -67 231 -138 174 -531 172 -666 -4 -16 -21 -38 -67 -51
-104 l-22 -66 -108 3 c-126 2 -396 21 -402 28 -7 6 35 168 55 211 102 219 293
358 581 423 149 34 436 33 608 -1z m-1575 -1164 c0 -8 -7 -15 -15 -15 -8 0
-15 7 -15 15 0 8 7 15 15 15 8 0 15 -7 15 -15z"/>
<path d="M5736 8003 c-13 -13 -5 -29 14 -30 11 -1 20 4 20 12 0 14 -24 27 -34
18z"/>
<path d="M5800 7825 c-7 -8 -9 -15 -6 -15 4 0 14 7 22 15 9 8 11 15 6 15 -5 0
-15 -7 -22 -15z"/>
<path d="M5786 7785 c4 -8 8 -15 10 -15 2 0 4 7 4 15 0 8 -4 15 -10 15 -5 0
-7 -7 -4 -15z"/>
<path d="M5813 7763 c4 -3 1 -13 -6 -22 -11 -14 -10 -14 5 -2 16 12 16 31 1
31 -4 0 -3 -3 0 -7z"/>
<path d="M4638 7359 c-32 -5 -71 -15 -87 -24 -17 -8 -41 -15 -55 -15 -14 0
-27 -4 -30 -9 -7 -10 27 -21 64 -21 14 0 35 -7 47 -15 11 -8 40 -17 63 -21 54
-9 35 -21 -52 -35 -85 -14 -170 -44 -218 -77 -40 -27 -55 -50 -22 -34 16 8
170 0 252 -14 19 -3 53 -7 75 -8 22 -1 45 -4 50 -6 6 -1 15 -1 20 0 13 3 61 6
108 8 20 1 37 7 37 13 0 7 -10 9 -26 5 -25 -7 -25 -6 -9 10 9 9 12 20 7 23 -5
3 -8 14 -6 24 2 18 -16 42 -38 50 -24 8 -1 18 63 26 35 5 58 9 52 10 -7 0 -13
6 -13 11 0 6 12 8 28 4 21 -4 24 -3 12 5 -13 9 -12 11 3 11 15 0 16 2 5 13
-20 20 -126 60 -142 54 -8 -3 -16 -2 -18 2 -5 13 -106 18 -170 10z m-31 -25
c-3 -3 -12 -4 -19 -1 -8 3 -5 6 6 6 11 1 17 -2 13 -5z m3 -174 c0 -12 -29 -20
-35 -10 -9 15 4 30 20 23 8 -3 15 -9 15 -13z m138 -32 c-6 -18 -28 -21 -28 -4
0 9 7 16 16 16 9 0 14 -5 12 -12z"/>
<path d="M4330 7328 c0 -11 47 -10 55 1 3 5 -8 9 -25 9 -16 -1 -30 -5 -30 -10z"/>
<path d="M4847 6561 c-32 -12 6 -35 45 -27 17 3 45 2 62 -4 17 -5 44 -12 59
-15 15 -3 25 -10 22 -15 -3 -5 -1 -11 4 -14 20 -13 18 23 -3 43 -38 36 -138
53 -189 32z"/>
<path d="M4270 6245 c-7 -9 -11 -18 -8 -20 3 -3 11 1 18 10 7 9 11 18 8 20 -3
3 -11 -1 -18 -10z"/>
<path d="M4326 6193 c-6 -14 -5 -15 5 -6 7 7 10 15 7 18 -3 3 -9 -2 -12 -12z"/>
<path d="M6066 6953 c-6 -14 -5 -15 5 -6 7 7 10 15 7 18 -3 3 -9 -2 -12 -12z"/>
<path d="M5926 6907 c3 -10 9 -15 12 -12 3 3 0 11 -7 18 -10 9 -11 8 -5 -6z"/>
<path d="M5880 6791 c0 -5 7 -12 16 -15 14 -5 15 -4 4 9 -14 17 -20 19 -20 6z"/>
<path d="M5700 6386 c0 -2 8 -10 18 -17 15 -13 16 -12 3 4 -13 16 -21 21 -21
13z"/>
<path d="M4842 6035 c-20 -11 -21 -13 -7 -19 25 -9 32 -7 38 9 8 20 -4 24 -31
10z"/>
<path d="M5061 6004 l-23 -12 22 -7 c25 -8 33 -3 28 17 -2 11 -8 12 -27 2z"/>
<path d="M4990 5989 c0 -5 5 -7 10 -4 6 3 10 8 10 11 0 2 -4 4 -10 4 -5 0 -10
-5 -10 -11z"/>
<path d="M5525 1285 c-5 -2 -120 -14 -254 -25 -135 -12 -280 -27 -322 -35 -99
-17 -174 -57 -214 -113 -26 -38 -30 -54 -34 -123 -3 -70 0 -86 23 -134 45 -91
118 -136 252 -155 264 -36 506 94 574 309 28 87 29 281 3 280 -10 0 -22 -2
-28 -4z"/>
<path d="M5445 9490 c21 -22 41 -40 43 -40 8 0 -64 80 -73 80 -5 0 9 -18 30
-40z"/>
<path d="M5948 9184 c12 -9 22 -24 22 -33 0 -9 7 -25 15 -35 13 -17 15 -17 15
-3 0 30 -22 65 -49 76 -26 11 -26 11 -3 -5z"/>
<path d="M6151 8863 c-1 -12 4 -25 9 -28 12 -7 12 2 0 30 -8 19 -9 19 -9 -2z"/>
<path d="M3546 7905 c-3 -9 -6 -22 -5 -28 0 -7 5 -1 10 12 5 13 8 26 5 28 -2
2 -6 -3 -10 -12z"/>
<path d="M6107 6003 c-4 -3 -7 -11 -7 -17 0 -6 5 -5 12 2 6 6 9 14 7 17 -3 3
-9 2 -12 -2z"/>
<path d="M4552 5153 c-10 -4 -8 -9 5 -19 24 -18 44 -18 37 0 -7 17 -24 25 -42
19z"/>
</g>
</svg>
